<svg xmlns="http://www.w3.org/2000/svg" xmlns:xlink="http://www.w3.org/1999/xlink" width="100" zoomAndPan="magnify" viewBox="0 0 75 74.999997" height="100" preserveAspectRatio="xMidYMid meet" version="1.0"><rect x="-7.5" width="90" fill="#ffffff" y="-7.5" height="89.999996" fill-opacity="1"/><rect x="-7.5" width="90" fill="#ffffff" y="-7.5" height="89.999996" fill-opacity="1"/><path fill="#ffffff" d="M 0 37.5 L 3 37.5 L 3 40.5 L 0 40.5 M 6 37.5 L 9 37.5 L 9 40.5 L 6 40.5 M 12 37.5 L 15 37.5 L 15 40.5 L 12 40.5 M 18 37.5 L 21 37.5 L 21 40.5 L 18 40.5 M 24 37.5 L 27 37.5 L 27 40.5 L 24 40.5 M 30 37.5 L 33 37.5 L 33 40.5 L 30 40.5 M 36 37.5 L 39 37.5 L 39 40.5 L 36 40.5 M 42 37.5 L 45 37.5 L 45 40.5 L 42 40.5 M 48 37.5 L 51 37.5 L 51 40.5 L 48 40.5 M 54 37.5 L 57 37.5 L 57 40.5 L 54 40.5 M 60 37.5 L 63 37.5 L 63 40.5 L 60 40.5 M 66 37.5 L 69 37.5 L 69 40.5 L 66 40.5 M 72 37.5 L 75 37.5 L 75 40.5 L 72 40.5 " fill-opacity="1" fill-rule="nonzero"/></svg>