<svg xmlns="http://www.w3.org/2000/svg" xmlns:xlink="http://www.w3.org/1999/xlink" width="150" zoomAndPan="magnify" viewBox="0 0 112.5 112.499997" height="150" preserveAspectRatio="xMidYMid meet" version="1.0"><defs><clipPath id="9dd39d23ab"><path d="M 49 36.113281 L 73 36.113281 L 73 59 L 49 59 Z M 49 36.113281 " clip-rule="nonzero"/></clipPath><clipPath id="858648bb69"><path d="M 49 36.113281 L 72 36.113281 L 72 59 L 49 59 Z M 49 36.113281 " clip-rule="nonzero"/></clipPath><clipPath id="41e9a41c51"><path d="M 2.359375 56 L 27 56 L 27 75.6875 L 2.359375 75.6875 Z M 2.359375 56 " clip-rule="nonzero"/></clipPath><clipPath id="e914e80759"><path d="M 25 60 L 41 60 L 41 75.6875 L 25 75.6875 Z M 25 60 " clip-rule="nonzero"/></clipPath><clipPath id="7395762b5a"><path d="M 41 56 L 50 56 L 50 75.6875 L 41 75.6875 Z M 41 56 " clip-rule="nonzero"/></clipPath><clipPath id="2a9c8cc3aa"><path d="M 49 60 L 65 60 L 65 75.6875 L 49 75.6875 Z M 49 60 " clip-rule="nonzero"/></clipPath><clipPath id="949e89a59e"><path d="M 64 60 L 73 60 L 73 75.6875 L 64 75.6875 Z M 64 60 " clip-rule="nonzero"/></clipPath><clipPath id="e2a284ea4c"><path d="M 73 56 L 78 56 L 78 75.6875 L 73 75.6875 Z M 73 56 " clip-rule="nonzero"/></clipPath><clipPath id="8488f0d440"><path d="M 78 60 L 94 60 L 94 75.6875 L 78 75.6875 Z M 78 60 " clip-rule="nonzero"/></clipPath><clipPath id="e22f328712"><path d="M 94 60 L 109.882812 60 L 109.882812 75.6875 L 94 75.6875 Z M 94 60 " clip-rule="nonzero"/></clipPath><clipPath id="f0abb9a8be"><path d="M 2.359375 48 L 6 48 L 6 54 L 2.359375 54 Z M 2.359375 48 " clip-rule="nonzero"/></clipPath></defs><g clip-path="url(#9dd39d23ab)"><path fill="#fec057" d="M 49.1875 36.230469 L 72.273438 36.230469 L 72.273438 58.75 L 49.1875 58.75 Z M 49.1875 36.230469 " fill-opacity="1" fill-rule="nonzero"/></g><g clip-path="url(#858648bb69)"><path fill="#ffffff" d="M 49.867188 36.933594 L 71.621094 36.933594 L 71.621094 58.074219 L 49.867188 58.074219 Z M 49.867188 36.933594 " fill-opacity="1" fill-rule="nonzero"/></g><g clip-path="url(#41e9a41c51)"><path fill="#000000" d="M 2.660156 56.375 L 7.582031 56.375 L 10.136719 68.554688 L 12.941406 56.375 L 16.640625 56.375 L 19.414062 68.605469 L 21.996094 56.375 L 26.863281 56.375 L 21.859375 75.113281 L 17.617188 75.113281 L 14.730469 62.964844 L 11.902344 75.113281 L 7.554688 75.113281 L 2.660156 56.375 " fill-opacity="1" fill-rule="nonzero"/></g><g clip-path="url(#e914e80759)"><path fill="#000000" d="M 40.703125 61.019531 L 36.460938 61.019531 L 36.460938 62.503906 C 35.890625 61.640625 34.585938 60.535156 32.246094 60.535156 C 28.441406 60.535156 25.09375 63.398438 25.09375 68.039062 C 25.09375 72.089844 27.734375 75.574219 32.246094 75.574219 C 33.90625 75.574219 35.671875 74.953125 36.460938 73.578125 L 36.460938 75.085938 L 40.703125 75.085938 L 40.703125 61.019531 M 29.363281 68.121094 C 29.363281 66.5 30.453125 64.476562 32.871094 64.476562 C 33.207031 64.457031 33.539062 64.492188 33.867188 64.574219 C 34.191406 64.65625 34.5 64.789062 34.785156 64.964844 C 35.074219 65.140625 35.328125 65.355469 35.546875 65.605469 C 35.769531 65.859375 35.945312 66.140625 36.082031 66.445312 C 36.359375 67.039062 36.476562 67.660156 36.433594 68.3125 C 36.390625 68.964844 36.191406 69.570312 35.835938 70.121094 C 35.523438 70.632812 35.105469 71.03125 34.574219 71.316406 C 34.042969 71.605469 33.476562 71.734375 32.871094 71.710938 C 30.34375 71.6875 29.363281 69.417969 29.363281 68.121094 Z M 29.363281 68.121094 " fill-opacity="1" fill-rule="nonzero"/></g><g clip-path="url(#7395762b5a)"><path fill="#000000" d="M 43.585938 64.234375 L 41.464844 64.234375 L 41.464844 61.019531 L 43.585938 61.019531 L 43.585938 56.347656 L 47.828125 56.347656 L 47.828125 61.019531 L 49.867188 61.019531 L 49.867188 64.234375 L 47.828125 64.234375 L 47.828125 75.113281 L 43.585938 75.113281 L 43.585938 64.234375 " fill-opacity="1" fill-rule="nonzero"/></g><g clip-path="url(#2a9c8cc3aa)"><path fill="#000000" d="M 59.546875 71.414062 C 58.132812 72.308594 56.148438 72.09375 55.199219 70.929688 L 64.113281 65.367188 C 63 62.992188 61.339844 61.371094 58.8125 60.722656 C 57.832031 60.46875 56.84375 60.425781 55.84375 60.589844 C 54.84375 60.753906 53.921875 61.113281 53.078125 61.664062 C 49.40625 63.933594 48.726562 68.660156 50.820312 71.980469 C 51.085938 72.394531 51.386719 72.777344 51.726562 73.132812 C 52.066406 73.488281 52.4375 73.804688 52.839844 74.089844 C 53.242188 74.371094 53.667969 74.613281 54.121094 74.8125 C 54.570312 75.007812 55.035156 75.164062 55.515625 75.269531 C 56 75.378906 56.484375 75.4375 56.976562 75.453125 C 57.472656 75.464844 57.960938 75.429688 58.445312 75.34375 C 58.933594 75.261719 59.40625 75.132812 59.867188 74.957031 C 60.328125 74.78125 60.765625 74.5625 61.183594 74.300781 C 61.765625 73.949219 62.28125 73.515625 62.730469 73.003906 L 62.730469 68.601562 C 61.84375 69.734375 60.785156 70.671875 59.550781 71.410156 M 53.511719 68.175781 C 53.238281 67.582031 53.15625 65.800781 55.007812 64.640625 C 56.855469 63.476562 58.433594 64.34375 58.867188 64.828125 Z M 53.511719 68.175781 " fill-opacity="1" fill-rule="nonzero"/></g><g clip-path="url(#949e89a59e)"><path fill="#000000" d="M 64.769531 61.019531 L 68.765625 61.019531 L 68.765625 62.585938 C 69.175781 61.828125 69.910156 60.535156 72.355469 60.535156 L 72.355469 64.746094 L 72.195312 64.746094 C 70.019531 64.746094 69.011719 65.527344 69.011719 67.527344 L 69.011719 75.089844 L 64.769531 75.089844 L 64.769531 61.019531 " fill-opacity="1" fill-rule="nonzero"/></g><g clip-path="url(#e2a284ea4c)"><path fill="#000000" d="M 73.554688 56.375 L 77.796875 56.375 L 77.796875 75.113281 L 73.554688 75.113281 Z M 73.554688 56.375 " fill-opacity="1" fill-rule="nonzero"/></g><g clip-path="url(#8488f0d440)"><path fill="#000000" d="M 78.53125 68.039062 C 78.539062 68.53125 78.59375 69.019531 78.699219 69.5 C 78.804688 69.980469 78.957031 70.449219 79.152344 70.902344 C 79.347656 71.351562 79.585938 71.78125 79.867188 72.1875 C 80.144531 72.59375 80.464844 72.972656 80.816406 73.316406 C 81.171875 73.660156 81.554688 73.96875 81.96875 74.238281 C 82.382812 74.511719 82.820312 74.738281 83.277344 74.925781 C 83.738281 75.109375 84.210938 75.25 84.695312 75.347656 C 85.183594 75.441406 85.675781 75.488281 86.171875 75.488281 C 86.667969 75.488281 87.15625 75.441406 87.644531 75.347656 C 88.132812 75.25 88.605469 75.109375 89.0625 74.925781 C 89.523438 74.738281 89.957031 74.511719 90.371094 74.238281 C 90.785156 73.96875 91.171875 73.660156 91.523438 73.316406 C 91.878906 72.972656 92.195312 72.59375 92.476562 72.1875 C 92.757812 71.78125 92.992188 71.351562 93.191406 70.902344 C 93.386719 70.449219 93.535156 69.980469 93.640625 69.5 C 93.746094 69.019531 93.804688 68.53125 93.8125 68.039062 C 93.8125 64.582031 91.335938 60.585938 86.171875 60.585938 C 85.671875 60.570312 85.175781 60.601562 84.683594 60.6875 C 84.1875 60.769531 83.710938 60.898438 83.242188 61.078125 C 82.777344 61.257812 82.335938 61.484375 81.914062 61.753906 C 81.496094 62.019531 81.105469 62.328125 80.75 62.675781 C 80.390625 63.023438 80.074219 63.402344 79.792969 63.8125 C 79.515625 64.226562 79.277344 64.660156 79.085938 65.117188 C 78.898438 65.578125 78.753906 66.050781 78.660156 66.539062 C 78.566406 67.027344 78.523438 67.515625 78.53125 68.015625 L 78.53125 68.039062 M 82.773438 68.015625 C 82.773438 67.703125 82.8125 67.402344 82.894531 67.101562 C 82.976562 66.804688 83.097656 66.519531 83.253906 66.253906 C 83.410156 65.988281 83.597656 65.742188 83.820312 65.527344 C 84.039062 65.308594 84.285156 65.121094 84.554688 64.96875 C 84.824219 64.8125 85.109375 64.699219 85.410156 64.617188 C 85.714844 64.539062 86.019531 64.5 86.332031 64.5 C 86.640625 64.5 86.949219 64.542969 87.25 64.621094 C 87.550781 64.703125 87.835938 64.820312 88.105469 64.976562 C 88.375 65.128906 88.617188 65.316406 88.835938 65.535156 C 89.058594 65.753906 89.246094 65.996094 89.402344 66.265625 C 89.554688 66.535156 89.675781 66.816406 89.753906 67.117188 C 89.835938 67.414062 89.875 67.71875 89.875 68.027344 C 89.875 68.335938 89.835938 68.640625 89.753906 68.9375 C 89.675781 69.238281 89.554688 69.519531 89.402344 69.789062 C 89.246094 70.058594 89.058594 70.300781 88.835938 70.519531 C 88.617188 70.738281 88.375 70.925781 88.105469 71.078125 C 87.835938 71.234375 87.550781 71.351562 87.25 71.433594 C 86.949219 71.511719 86.640625 71.554688 86.332031 71.554688 C 86.019531 71.554688 85.714844 71.515625 85.410156 71.4375 C 85.109375 71.355469 84.824219 71.242188 84.554688 71.085938 C 84.285156 70.933594 84.039062 70.746094 83.820312 70.527344 C 83.597656 70.3125 83.410156 70.066406 83.253906 69.800781 C 83.097656 69.535156 82.976562 69.25 82.894531 68.953125 C 82.8125 68.652344 82.773438 68.351562 82.773438 68.039062 Z M 82.773438 68.015625 " fill-opacity="1" fill-rule="nonzero"/></g><g clip-path="url(#e22f328712)"><path fill="#000000" d="M 94.601562 68.039062 C 94.609375 68.53125 94.667969 69.019531 94.769531 69.5 C 94.875 69.980469 95.027344 70.449219 95.222656 70.902344 C 95.417969 71.351562 95.65625 71.78125 95.9375 72.1875 C 96.21875 72.59375 96.535156 72.972656 96.886719 73.316406 C 97.242188 73.660156 97.625 73.96875 98.039062 74.238281 C 98.453125 74.511719 98.890625 74.738281 99.351562 74.925781 C 99.808594 75.109375 100.28125 75.25 100.769531 75.347656 C 101.253906 75.441406 101.746094 75.488281 102.242188 75.488281 C 102.738281 75.488281 103.230469 75.441406 103.714844 75.347656 C 104.203125 75.25 104.675781 75.109375 105.132812 74.925781 C 105.59375 74.738281 106.027344 74.511719 106.441406 74.238281 C 106.859375 73.96875 107.242188 73.660156 107.59375 73.316406 C 107.949219 72.972656 108.265625 72.59375 108.546875 72.1875 C 108.828125 71.78125 109.066406 71.351562 109.261719 70.902344 C 109.457031 70.449219 109.609375 69.980469 109.710938 69.5 C 109.816406 69.019531 109.875 68.53125 109.882812 68.039062 C 109.882812 64.582031 107.40625 60.585938 102.242188 60.585938 C 101.742188 60.570312 101.246094 60.605469 100.753906 60.6875 C 100.261719 60.773438 99.78125 60.90625 99.316406 61.085938 C 98.851562 61.265625 98.410156 61.488281 97.988281 61.757812 C 97.570312 62.027344 97.183594 62.335938 96.824219 62.679688 C 96.46875 63.027344 96.148438 63.40625 95.871094 63.816406 C 95.589844 64.230469 95.355469 64.664062 95.164062 65.121094 C 94.972656 65.578125 94.828125 66.050781 94.734375 66.539062 C 94.640625 67.027344 94.59375 67.519531 94.601562 68.015625 L 94.601562 68.039062 M 98.84375 68.015625 C 98.84375 67.703125 98.886719 67.402344 98.964844 67.101562 C 99.046875 66.804688 99.167969 66.519531 99.324219 66.253906 C 99.480469 65.988281 99.667969 65.742188 99.890625 65.527344 C 100.109375 65.308594 100.355469 65.121094 100.625 64.96875 C 100.894531 64.8125 101.183594 64.699219 101.484375 64.617188 C 101.785156 64.539062 102.089844 64.5 102.402344 64.5 C 102.710938 64.5 103.019531 64.542969 103.320312 64.621094 C 103.621094 64.703125 103.90625 64.820312 104.175781 64.976562 C 104.445312 65.128906 104.6875 65.316406 104.910156 65.535156 C 105.128906 65.753906 105.316406 65.996094 105.472656 66.265625 C 105.628906 66.535156 105.746094 66.816406 105.824219 67.117188 C 105.90625 67.414062 105.945312 67.71875 105.945312 68.027344 C 105.945312 68.335938 105.90625 68.640625 105.824219 68.9375 C 105.746094 69.238281 105.628906 69.519531 105.472656 69.789062 C 105.316406 70.058594 105.128906 70.300781 104.910156 70.519531 C 104.6875 70.738281 104.445312 70.925781 104.175781 71.078125 C 103.90625 71.234375 103.621094 71.351562 103.320312 71.433594 C 103.019531 71.511719 102.710938 71.554688 102.402344 71.554688 C 102.089844 71.554688 101.785156 71.515625 101.484375 71.4375 C 101.183594 71.355469 100.894531 71.242188 100.625 71.085938 C 100.355469 70.933594 100.109375 70.746094 99.890625 70.527344 C 99.667969 70.3125 99.480469 70.066406 99.324219 69.800781 C 99.167969 69.535156 99.046875 69.25 98.964844 68.953125 C 98.886719 68.652344 98.84375 68.351562 98.84375 68.039062 Z M 98.84375 68.015625 " fill-opacity="1" fill-rule="nonzero"/></g><path fill="#000000" d="M 51.445312 38.472656 L 70.046875 38.472656 L 70.046875 56.589844 L 51.445312 56.589844 Z M 51.445312 38.472656 " fill-opacity="1" fill-rule="nonzero"/><path fill="#fec057" d="M 51.445312 40.066406 L 70.046875 40.066406 L 70.046875 40.496094 L 51.445312 40.496094 Z M 51.445312 40.066406 " fill-opacity="1" fill-rule="nonzero"/><path fill="#fec057" d="M 51.445312 41.820312 L 70.046875 41.820312 L 70.046875 42.25 L 51.445312 42.25 Z M 51.445312 41.820312 " fill-opacity="1" fill-rule="nonzero"/><path fill="#fec057" d="M 51.445312 43.414062 L 70.046875 43.414062 L 70.046875 43.84375 L 51.445312 43.84375 Z M 51.445312 43.414062 " fill-opacity="1" fill-rule="nonzero"/><path fill="#fec057" d="M 51.445312 45.007812 L 70.046875 45.007812 L 70.046875 45.4375 L 51.445312 45.4375 Z M 51.445312 45.007812 " fill-opacity="1" fill-rule="nonzero"/><path fill="#fec057" d="M 51.445312 46.707031 L 70.046875 46.707031 L 70.046875 47.140625 L 51.445312 47.140625 Z M 51.445312 46.707031 " fill-opacity="1" fill-rule="nonzero"/><path fill="#fec057" d="M 51.445312 48.300781 L 70.046875 48.300781 L 70.046875 48.730469 L 51.445312 48.730469 Z M 51.445312 48.300781 " fill-opacity="1" fill-rule="nonzero"/><path fill="#fec057" d="M 51.445312 49.976562 L 70.046875 49.976562 L 70.046875 50.40625 L 51.445312 50.40625 Z M 51.445312 49.976562 " fill-opacity="1" fill-rule="nonzero"/><path fill="#fec057" d="M 51.445312 51.566406 L 70.046875 51.566406 L 70.046875 52.027344 L 51.445312 52.027344 Z M 51.445312 51.566406 " fill-opacity="1" fill-rule="nonzero"/><path fill="#fec057" d="M 51.445312 53.269531 L 70.046875 53.269531 L 70.046875 53.699219 L 51.445312 53.699219 Z M 51.445312 53.269531 " fill-opacity="1" fill-rule="nonzero"/><path fill="#fec057" d="M 51.445312 54.917969 L 70.046875 54.917969 L 70.046875 55.347656 L 51.445312 55.347656 Z M 51.445312 54.917969 " fill-opacity="1" fill-rule="nonzero"/><path fill="#ffffff" d="M 51.253906 42.601562 L 54.875 48.355469 L 58.136719 43.710938 L 61.210938 48.40625 C 64.335938 43.25 66.703125 39.957031 70.265625 39.089844 L 70.265625 42.6875 C 67.652344 43.199219 63.359375 49.894531 61.210938 53.542969 L 58.132812 48.675781 L 54.761719 53.617188 L 51.226562 48.460938 L 51.253906 42.601562 " fill-opacity="1" fill-rule="nonzero"/><g clip-path="url(#f0abb9a8be)"><path fill="#000000" d="M 3.558594 49.625 L 2.359375 49.625 L 2.359375 48.894531 L 5.515625 48.894531 L 5.515625 49.625 L 4.347656 49.625 L 4.347656 54 L 3.558594 54 L 3.558594 49.625 " fill-opacity="1" fill-rule="nonzero"/></g><path fill="#000000" d="M 6.414062 54 L 6.414062 48.894531 L 7.226562 48.894531 L 7.226562 51.054688 L 9.429688 51.054688 L 9.429688 48.894531 L 10.246094 48.894531 L 10.246094 54 L 9.429688 54 L 9.429688 51.757812 L 7.226562 51.757812 L 7.226562 54 L 6.414062 54 " fill-opacity="1" fill-rule="nonzero"/><path fill="#000000" d="M 11.578125 48.894531 L 14.433594 48.894531 L 14.433594 49.625 L 12.394531 49.625 L 12.394531 51.082031 L 14.40625 51.082031 L 14.40625 51.785156 L 12.394531 51.785156 L 12.394531 53.269531 L 14.433594 53.269531 L 14.433594 54 L 11.578125 54 L 11.578125 48.894531 " fill-opacity="1" fill-rule="nonzero"/><path fill="#000000" d="M 22.890625 52.433594 C 22.703125 52.929688 22.382812 53.332031 21.941406 53.632812 C 21.5 53.933594 21.007812 54.082031 20.472656 54.078125 C 20.148438 54.082031 19.835938 54.023438 19.535156 53.914062 C 19.230469 53.800781 18.960938 53.640625 18.714844 53.429688 C 18.472656 53.21875 18.273438 52.972656 18.121094 52.6875 C 17.96875 52.40625 17.875 52.105469 17.832031 51.789062 C 17.789062 51.472656 17.804688 51.15625 17.878906 50.84375 C 17.953125 50.53125 18.078125 50.242188 18.257812 49.976562 C 18.4375 49.710938 18.660156 49.484375 18.921875 49.300781 C 19.1875 49.113281 19.472656 48.980469 19.785156 48.898438 C 20.097656 48.816406 20.414062 48.792969 20.734375 48.828125 C 21.054688 48.859375 21.359375 48.949219 21.648438 49.09375 C 21.9375 49.234375 22.191406 49.425781 22.410156 49.660156 C 22.628906 49.898438 22.796875 50.164062 22.917969 50.460938 L 22.046875 50.460938 C 21.894531 50.171875 21.675781 49.941406 21.390625 49.769531 C 21.109375 49.601562 20.800781 49.515625 20.472656 49.515625 C 20.222656 49.527344 19.984375 49.582031 19.757812 49.683594 C 19.527344 49.785156 19.328125 49.925781 19.15625 50.105469 C 18.984375 50.28125 18.851562 50.488281 18.757812 50.714844 C 18.664062 50.945312 18.617188 51.183594 18.617188 51.433594 C 18.617188 51.679688 18.664062 51.917969 18.757812 52.148438 C 18.851562 52.378906 18.984375 52.582031 19.15625 52.761719 C 19.328125 52.941406 19.527344 53.082031 19.757812 53.183594 C 19.984375 53.285156 20.222656 53.339844 20.472656 53.351562 C 20.796875 53.347656 21.101562 53.261719 21.382812 53.097656 C 21.664062 52.933594 21.886719 52.714844 22.046875 52.433594 L 22.890625 52.433594 " fill-opacity="1" fill-rule="nonzero"/><path fill="#000000" d="M 23.980469 48.894531 L 24.796875 48.894531 L 24.796875 53.972656 L 23.980469 53.972656 Z M 23.980469 48.894531 " fill-opacity="1" fill-rule="nonzero"/><path fill="#000000" d="M 26.863281 49.625 L 25.691406 49.625 L 25.691406 48.894531 L 28.847656 48.894531 L 28.847656 49.625 L 27.679688 49.625 L 27.679688 54 L 26.863281 54 L 26.863281 49.625 " fill-opacity="1" fill-rule="nonzero"/><path fill="#000000" d="M 30.941406 52.1875 L 29.335938 48.894531 L 30.234375 48.894531 L 31.347656 51.433594 L 32.492188 48.894531 L 33.363281 48.894531 L 31.757812 52.1875 L 31.757812 54 L 30.941406 54 L 30.941406 52.1875 " fill-opacity="1" fill-rule="nonzero"/><path fill="#000000" d="M 36.433594 51.488281 C 36.433594 51.839844 36.5 52.179688 36.632812 52.507812 C 36.765625 52.832031 36.960938 53.121094 37.210938 53.371094 C 37.460938 53.621094 37.746094 53.816406 38.074219 53.953125 C 38.402344 54.089844 38.746094 54.160156 39.097656 54.160156 C 39.453125 54.164062 39.796875 54.097656 40.125 53.964844 C 40.453125 53.828125 40.746094 53.640625 40.996094 53.390625 C 41.25 53.144531 41.445312 52.855469 41.582031 52.53125 C 41.71875 52.207031 41.789062 51.867188 41.792969 51.515625 C 41.792969 51.160156 41.726562 50.820312 41.59375 50.496094 C 41.457031 50.167969 41.265625 49.878906 41.015625 49.628906 C 40.765625 49.378906 40.476562 49.183594 40.148438 49.046875 C 39.824219 48.910156 39.480469 48.84375 39.125 48.839844 C 38.769531 48.828125 38.421875 48.886719 38.089844 49.019531 C 37.753906 49.148438 37.460938 49.335938 37.207031 49.589844 C 36.953125 49.839844 36.757812 50.128906 36.621094 50.457031 C 36.488281 50.789062 36.425781 51.132812 36.433594 51.488281 M 37.25 51.433594 C 37.242188 51.183594 37.285156 50.941406 37.378906 50.710938 C 37.46875 50.476562 37.605469 50.269531 37.78125 50.09375 C 37.960938 49.914062 38.164062 49.777344 38.398438 49.683594 C 38.632812 49.585938 38.875 49.542969 39.125 49.542969 C 39.378906 49.546875 39.621094 49.597656 39.855469 49.695312 C 40.085938 49.792969 40.292969 49.933594 40.46875 50.113281 C 40.644531 50.292969 40.777344 50.5 40.871094 50.734375 C 40.964844 50.96875 41.007812 51.210938 41.003906 51.460938 C 41.011719 51.710938 40.96875 51.953125 40.878906 52.1875 C 40.789062 52.421875 40.660156 52.628906 40.484375 52.808594 C 40.308594 52.988281 40.109375 53.128906 39.878906 53.226562 C 39.644531 53.328125 39.40625 53.378906 39.152344 53.378906 C 38.894531 53.378906 38.648438 53.332031 38.410156 53.230469 C 38.175781 53.132812 37.96875 52.988281 37.789062 52.808594 C 37.609375 52.625 37.472656 52.414062 37.378906 52.175781 C 37.285156 51.9375 37.242188 51.691406 37.25 51.433594 Z M 37.25 51.433594 " fill-opacity="1" fill-rule="nonzero"/><path fill="#000000" d="M 42.878906 48.894531 L 45.542969 48.894531 L 45.542969 49.625 L 43.695312 49.625 L 43.695312 51.109375 L 45.515625 51.109375 L 45.515625 51.8125 L 43.695312 51.8125 L 43.695312 54 L 42.878906 54 L 42.878906 48.894531 " fill-opacity="1" fill-rule="nonzero"/></svg>