<svg xmlns="http://www.w3.org/2000/svg" xmlns:xlink="http://www.w3.org/1999/xlink" width="150" zoomAndPan="magnify" viewBox="0 0 112.5 112.499997" height="150" preserveAspectRatio="xMidYMid meet" version="1.0"><defs><clipPath id="8711d803e1"><path d="M 49 56.746094 L 73 56.746094 L 73 80 L 49 80 Z M 49 56.746094 " clip-rule="nonzero"/></clipPath><clipPath id="61d0657318"><path d="M 2.605469 77 L 27 77 L 27 96 L 2.605469 96 Z M 2.605469 77 " clip-rule="nonzero"/></clipPath><clipPath id="0efc16b1c5"><path d="M 25 81 L 41 81 L 41 96.320312 L 25 96.320312 Z M 25 81 " clip-rule="nonzero"/></clipPath><clipPath id="54f362d6a7"><path d="M 49 81 L 64 81 L 64 96.320312 L 49 96.320312 Z M 49 81 " clip-rule="nonzero"/></clipPath><clipPath id="0f431771f7"><path d="M 78 81 L 94 81 L 94 96.320312 L 78 96.320312 Z M 78 81 " clip-rule="nonzero"/></clipPath><clipPath id="1038e48611"><path d="M 94 81 L 109.382812 81 L 109.382812 96.320312 L 94 96.320312 Z M 94 81 " clip-rule="nonzero"/></clipPath><clipPath id="e387682eb9"><path d="M 2.605469 69 L 6 69 L 6 75 L 2.605469 75 Z M 2.605469 69 " clip-rule="nonzero"/></clipPath></defs><g clip-path="url(#8711d803e1)"><path fill="#fec057" d="M 49.105469 56.867188 L 72.035156 56.867188 L 72.035156 79.382812 L 49.105469 79.382812 Z M 49.105469 56.867188 " fill-opacity="1" fill-rule="nonzero"/></g><path fill="#ffffff" d="M 49.78125 57.566406 L 71.386719 57.566406 L 71.386719 78.707031 L 49.78125 78.707031 Z M 49.78125 57.566406 " fill-opacity="1" fill-rule="nonzero"/><g clip-path="url(#61d0657318)"><path fill="#000000" d="M 2.902344 77.007812 L 7.789062 77.007812 L 10.328125 89.183594 L 13.113281 77.007812 L 16.785156 77.007812 L 19.539062 89.238281 L 22.101562 77.007812 L 26.9375 77.007812 L 21.96875 95.746094 L 17.753906 95.746094 L 14.890625 83.59375 L 12.082031 95.746094 L 7.765625 95.746094 L 2.902344 77.007812 " fill-opacity="1" fill-rule="nonzero"/></g><g clip-path="url(#0efc16b1c5)"><path fill="#000000" d="M 40.683594 81.652344 L 36.46875 81.652344 L 36.46875 83.136719 C 35.902344 82.273438 34.605469 81.164062 32.285156 81.164062 C 28.503906 81.164062 25.179688 84.03125 25.179688 88.671875 C 25.179688 92.722656 27.800781 96.203125 32.285156 96.203125 C 33.929688 96.203125 35.6875 95.582031 36.46875 94.207031 L 36.46875 95.714844 L 40.683594 95.714844 L 40.683594 81.652344 M 29.421875 88.753906 C 29.421875 87.132812 30.5 85.105469 32.90625 85.105469 C 33.238281 85.089844 33.566406 85.121094 33.890625 85.207031 C 34.214844 85.289062 34.519531 85.417969 34.804688 85.59375 C 35.089844 85.769531 35.34375 85.984375 35.5625 86.238281 C 35.78125 86.492188 35.957031 86.769531 36.089844 87.078125 C 36.367188 87.667969 36.484375 88.292969 36.441406 88.945312 C 36.398438 89.597656 36.199219 90.199219 35.847656 90.75 C 35.539062 91.261719 35.121094 91.664062 34.59375 91.949219 C 34.066406 92.234375 33.503906 92.363281 32.902344 92.34375 C 30.394531 92.316406 29.421875 90.046875 29.421875 88.75 Z M 29.421875 88.753906 " fill-opacity="1" fill-rule="nonzero"/></g><path fill="#000000" d="M 43.542969 84.863281 L 41.4375 84.863281 L 41.4375 81.652344 L 43.542969 81.652344 L 43.542969 76.980469 L 47.757812 76.980469 L 47.757812 81.652344 L 49.78125 81.652344 L 49.78125 84.863281 L 47.757812 84.863281 L 47.757812 95.746094 L 43.542969 95.746094 L 43.542969 84.863281 " fill-opacity="1" fill-rule="nonzero"/><g clip-path="url(#54f362d6a7)"><path fill="#000000" d="M 59.394531 92.046875 C 57.988281 92.9375 56.019531 92.722656 55.074219 91.558594 L 63.929688 86 C 62.824219 83.621094 61.175781 82.003906 58.664062 81.355469 C 57.691406 81.101562 56.707031 81.058594 55.71875 81.222656 C 54.726562 81.386719 53.808594 81.746094 52.96875 82.296875 C 49.324219 84.566406 48.648438 89.289062 50.730469 92.609375 C 50.992188 93.023438 51.289062 93.40625 51.628906 93.761719 C 51.964844 94.117188 52.332031 94.4375 52.734375 94.71875 C 53.132812 95 53.558594 95.242188 54.003906 95.441406 C 54.453125 95.640625 54.914062 95.792969 55.394531 95.898438 C 55.871094 96.007812 56.355469 96.066406 56.84375 96.082031 C 57.332031 96.09375 57.820312 96.058594 58.300781 95.976562 C 58.785156 95.890625 59.253906 95.761719 59.710938 95.585938 C 60.167969 95.410156 60.605469 95.191406 61.019531 94.929688 C 61.597656 94.578125 62.113281 94.148438 62.558594 93.636719 L 62.558594 89.234375 C 61.675781 90.363281 60.625 91.300781 59.398438 92.042969 M 53.402344 88.808594 C 53.132812 88.210938 53.050781 86.429688 54.886719 85.269531 C 56.722656 84.109375 58.289062 84.972656 58.722656 85.460938 Z M 53.402344 88.808594 " fill-opacity="1" fill-rule="nonzero"/></g><path fill="#000000" d="M 64.582031 81.652344 L 68.550781 81.652344 L 68.550781 83.21875 C 68.957031 82.460938 69.6875 81.164062 72.117188 81.164062 L 72.117188 85.378906 L 71.953125 85.378906 C 69.792969 85.378906 68.792969 86.15625 68.792969 88.15625 L 68.792969 95.71875 L 64.582031 95.71875 L 64.582031 81.652344 " fill-opacity="1" fill-rule="nonzero"/><path fill="#000000" d="M 73.304688 77.007812 L 77.515625 77.007812 L 77.515625 95.746094 L 73.304688 95.746094 Z M 73.304688 77.007812 " fill-opacity="1" fill-rule="nonzero"/><g clip-path="url(#0f431771f7)"><path fill="#000000" d="M 78.246094 88.671875 C 78.253906 89.164062 78.3125 89.648438 78.414062 90.132812 C 78.519531 90.613281 78.667969 91.078125 78.863281 91.53125 C 79.058594 91.984375 79.292969 92.414062 79.570312 92.820312 C 79.851562 93.226562 80.164062 93.601562 80.515625 93.945312 C 80.867188 94.289062 81.25 94.597656 81.660156 94.867188 C 82.070312 95.140625 82.503906 95.367188 82.960938 95.554688 C 83.417969 95.742188 83.886719 95.882812 84.371094 95.976562 C 84.851562 96.070312 85.339844 96.117188 85.832031 96.117188 C 86.324219 96.117188 86.8125 96.070312 87.296875 95.976562 C 87.78125 95.882812 88.25 95.742188 88.707031 95.554688 C 89.160156 95.367188 89.59375 95.140625 90.003906 94.867188 C 90.417969 94.597656 90.796875 94.289062 91.148438 93.945312 C 91.5 93.601562 91.816406 93.226562 92.09375 92.820312 C 92.371094 92.414062 92.609375 91.984375 92.804688 91.53125 C 93 91.078125 93.148438 90.613281 93.253906 90.132812 C 93.355469 89.648438 93.414062 89.164062 93.421875 88.671875 C 93.421875 85.214844 90.964844 81.21875 85.832031 81.21875 C 85.335938 81.203125 84.84375 81.234375 84.355469 81.316406 C 83.867188 81.402344 83.390625 81.53125 82.925781 81.710938 C 82.464844 81.890625 82.023438 82.113281 81.605469 82.382812 C 81.191406 82.652344 80.804688 82.960938 80.449219 83.308594 C 80.09375 83.65625 79.777344 84.035156 79.5 84.445312 C 79.222656 84.855469 78.988281 85.292969 78.800781 85.75 C 78.609375 86.207031 78.46875 86.683594 78.375 87.167969 C 78.28125 87.65625 78.238281 88.148438 78.246094 88.644531 L 78.246094 88.671875 M 82.457031 88.644531 C 82.457031 88.335938 82.5 88.03125 82.582031 87.734375 C 82.664062 87.433594 82.78125 87.152344 82.9375 86.886719 C 83.089844 86.617188 83.277344 86.375 83.496094 86.15625 C 83.71875 85.9375 83.960938 85.753906 84.230469 85.597656 C 84.496094 85.445312 84.78125 85.328125 85.078125 85.25 C 85.378906 85.171875 85.683594 85.128906 85.992188 85.132812 C 86.300781 85.132812 86.605469 85.171875 86.902344 85.253906 C 87.203125 85.332031 87.484375 85.449219 87.753906 85.605469 C 88.019531 85.761719 88.261719 85.949219 88.480469 86.167969 C 88.699219 86.386719 88.886719 86.628906 89.042969 86.898438 C 89.195312 87.164062 89.3125 87.449219 89.394531 87.746094 C 89.472656 88.046875 89.511719 88.347656 89.511719 88.65625 C 89.511719 88.96875 89.472656 89.269531 89.394531 89.570312 C 89.3125 89.867188 89.195312 90.152344 89.042969 90.417969 C 88.886719 90.6875 88.699219 90.929688 88.480469 91.148438 C 88.261719 91.367188 88.019531 91.554688 87.753906 91.710938 C 87.484375 91.863281 87.203125 91.984375 86.902344 92.0625 C 86.605469 92.144531 86.300781 92.183594 85.992188 92.183594 C 85.683594 92.183594 85.378906 92.144531 85.078125 92.066406 C 84.78125 91.988281 84.496094 91.871094 84.230469 91.71875 C 83.960938 91.5625 83.71875 91.378906 83.496094 91.160156 C 83.277344 90.941406 83.089844 90.699219 82.9375 90.429688 C 82.78125 90.164062 82.664062 89.882812 82.582031 89.582031 C 82.5 89.285156 82.457031 88.980469 82.457031 88.671875 Z M 82.457031 88.644531 " fill-opacity="1" fill-rule="nonzero"/></g><g clip-path="url(#1038e48611)"><path fill="#000000" d="M 94.203125 88.671875 C 94.214844 89.164062 94.269531 89.648438 94.375 90.132812 C 94.476562 90.613281 94.628906 91.078125 94.820312 91.53125 C 95.015625 91.984375 95.253906 92.414062 95.53125 92.820312 C 95.808594 93.226562 96.125 93.601562 96.476562 93.945312 C 96.828125 94.289062 97.207031 94.597656 97.621094 94.867188 C 98.03125 95.140625 98.464844 95.367188 98.921875 95.554688 C 99.375 95.742188 99.847656 95.882812 100.328125 95.976562 C 100.8125 96.070312 101.300781 96.117188 101.792969 96.117188 C 102.285156 96.117188 102.773438 96.070312 103.257812 95.976562 C 103.738281 95.882812 104.207031 95.742188 104.664062 95.554688 C 105.121094 95.367188 105.554688 95.140625 105.964844 94.867188 C 106.375 94.597656 106.757812 94.289062 107.109375 93.945312 C 107.460938 93.601562 107.777344 93.226562 108.054688 92.820312 C 108.332031 92.414062 108.570312 91.984375 108.761719 91.53125 C 108.957031 91.078125 109.105469 90.613281 109.210938 90.132812 C 109.316406 89.648438 109.371094 89.164062 109.378906 88.671875 C 109.378906 85.214844 106.921875 81.21875 101.792969 81.21875 C 101.296875 81.203125 100.804688 81.238281 100.316406 81.320312 C 99.828125 81.40625 99.351562 81.535156 98.890625 81.714844 C 98.425781 81.894531 97.988281 82.121094 97.570312 82.390625 C 97.152344 82.65625 96.769531 82.964844 96.414062 83.3125 C 96.058594 83.660156 95.742188 84.039062 95.464844 84.449219 C 95.1875 84.859375 94.953125 85.292969 94.761719 85.753906 C 94.574219 86.210938 94.433594 86.683594 94.335938 87.171875 C 94.242188 87.65625 94.199219 88.148438 94.203125 88.644531 L 94.203125 88.671875 M 98.417969 88.644531 C 98.417969 88.335938 98.460938 88.03125 98.539062 87.734375 C 98.621094 87.433594 98.738281 87.152344 98.894531 86.886719 C 99.050781 86.617188 99.238281 86.375 99.457031 86.15625 C 99.675781 85.9375 99.921875 85.753906 100.1875 85.597656 C 100.457031 85.445312 100.738281 85.328125 101.039062 85.25 C 101.335938 85.171875 101.640625 85.128906 101.949219 85.132812 C 102.261719 85.132812 102.5625 85.171875 102.863281 85.253906 C 103.160156 85.332031 103.445312 85.449219 103.710938 85.605469 C 103.980469 85.761719 104.222656 85.949219 104.441406 86.167969 C 104.660156 86.386719 104.847656 86.628906 105 86.898438 C 105.15625 87.164062 105.273438 87.449219 105.351562 87.746094 C 105.433594 88.046875 105.472656 88.347656 105.472656 88.65625 C 105.472656 88.96875 105.433594 89.269531 105.351562 89.570312 C 105.273438 89.867188 105.15625 90.152344 105 90.417969 C 104.847656 90.6875 104.660156 90.929688 104.441406 91.148438 C 104.222656 91.367188 103.980469 91.554688 103.710938 91.710938 C 103.445312 91.863281 103.160156 91.984375 102.863281 92.0625 C 102.5625 92.144531 102.261719 92.183594 101.949219 92.183594 C 101.640625 92.183594 101.335938 92.144531 101.039062 92.066406 C 100.738281 91.988281 100.457031 91.871094 100.1875 91.71875 C 99.921875 91.5625 99.675781 91.378906 99.457031 91.160156 C 99.238281 90.941406 99.050781 90.699219 98.894531 90.429688 C 98.738281 90.164062 98.621094 89.882812 98.539062 89.582031 C 98.460938 89.285156 98.417969 88.980469 98.417969 88.671875 Z M 98.417969 88.644531 " fill-opacity="1" fill-rule="nonzero"/></g><path fill="#000000" d="M 51.347656 59.105469 L 69.820312 59.105469 L 69.820312 77.222656 L 51.347656 77.222656 Z M 51.347656 59.105469 " fill-opacity="1" fill-rule="nonzero"/><path fill="#fec057" d="M 51.347656 60.699219 L 69.820312 60.699219 L 69.820312 61.132812 L 51.347656 61.132812 Z M 51.347656 60.699219 " fill-opacity="1" fill-rule="nonzero"/><path fill="#fec057" d="M 51.347656 62.453125 L 69.820312 62.453125 L 69.820312 62.886719 L 51.347656 62.886719 Z M 51.347656 62.453125 " fill-opacity="1" fill-rule="nonzero"/><path fill="#fec057" d="M 51.347656 64.046875 L 69.820312 64.046875 L 69.820312 64.480469 L 51.347656 64.480469 Z M 51.347656 64.046875 " fill-opacity="1" fill-rule="nonzero"/><path fill="#fec057" d="M 51.347656 65.640625 L 69.820312 65.640625 L 69.820312 66.074219 L 51.347656 66.074219 Z M 51.347656 65.640625 " fill-opacity="1" fill-rule="nonzero"/><path fill="#fec057" d="M 51.347656 67.339844 L 69.820312 67.339844 L 69.820312 67.773438 L 51.347656 67.773438 Z M 51.347656 67.339844 " fill-opacity="1" fill-rule="nonzero"/><path fill="#fec057" d="M 51.347656 68.933594 L 69.820312 68.933594 L 69.820312 69.367188 L 51.347656 69.367188 Z M 51.347656 68.933594 " fill-opacity="1" fill-rule="nonzero"/><path fill="#fec057" d="M 51.347656 70.609375 L 69.820312 70.609375 L 69.820312 71.039062 L 51.347656 71.039062 Z M 51.347656 70.609375 " fill-opacity="1" fill-rule="nonzero"/><path fill="#fec057" d="M 51.347656 72.203125 L 69.820312 72.203125 L 69.820312 72.660156 L 51.347656 72.660156 Z M 51.347656 72.203125 " fill-opacity="1" fill-rule="nonzero"/><path fill="#fec057" d="M 51.347656 73.902344 L 69.820312 73.902344 L 69.820312 74.332031 L 51.347656 74.332031 Z M 51.347656 73.902344 " fill-opacity="1" fill-rule="nonzero"/><path fill="#fec057" d="M 51.347656 75.550781 L 69.820312 75.550781 L 69.820312 75.980469 L 51.347656 75.980469 Z M 51.347656 75.550781 " fill-opacity="1" fill-rule="nonzero"/><path fill="#ffffff" d="M 51.160156 63.238281 L 54.753906 68.988281 L 57.996094 64.34375 L 61.046875 69.042969 C 64.152344 63.886719 66.5 60.589844 70.039062 59.726562 L 70.039062 63.320312 C 67.445312 63.832031 63.179688 70.53125 61.046875 74.175781 L 57.992188 69.308594 L 54.644531 74.25 L 51.132812 69.09375 L 51.160156 63.234375 " fill-opacity="1" fill-rule="nonzero"/><g clip-path="url(#e387682eb9)"><path fill="#000000" d="M 3.792969 70.257812 L 2.605469 70.257812 L 2.605469 69.527344 L 5.738281 69.527344 L 5.738281 70.257812 L 4.578125 70.257812 L 4.578125 74.632812 L 3.796875 74.632812 L 3.796875 70.257812 " fill-opacity="1" fill-rule="nonzero"/></g><path fill="#000000" d="M 6.628906 74.632812 L 6.628906 69.527344 L 7.4375 69.527344 L 7.4375 71.6875 L 9.628906 71.6875 L 9.628906 69.527344 L 10.4375 69.527344 L 10.4375 74.632812 L 9.625 74.632812 L 9.625 72.394531 L 7.4375 72.394531 L 7.4375 74.632812 L 6.628906 74.632812 " fill-opacity="1" fill-rule="nonzero"/><path fill="#000000" d="M 11.761719 69.527344 L 14.59375 69.527344 L 14.59375 70.257812 L 12.570312 70.257812 L 12.570312 71.714844 L 14.566406 71.714844 L 14.566406 72.417969 L 12.570312 72.417969 L 12.570312 73.902344 L 14.59375 73.902344 L 14.59375 74.632812 L 11.761719 74.632812 L 11.761719 69.527344 " fill-opacity="1" fill-rule="nonzero"/><path fill="#000000" d="M 22.992188 73.066406 C 22.804688 73.5625 22.488281 73.964844 22.050781 74.265625 C 21.609375 74.566406 21.125 74.714844 20.589844 74.710938 C 20.269531 74.714844 19.960938 74.65625 19.660156 74.546875 C 19.359375 74.433594 19.089844 74.273438 18.847656 74.0625 C 18.605469 73.851562 18.410156 73.605469 18.257812 73.324219 C 18.105469 73.039062 18.011719 72.738281 17.96875 72.421875 C 17.925781 72.105469 17.941406 71.789062 18.015625 71.476562 C 18.089844 71.167969 18.214844 70.878906 18.394531 70.613281 C 18.570312 70.34375 18.792969 70.121094 19.054688 69.933594 C 19.3125 69.75 19.597656 69.613281 19.910156 69.535156 C 20.21875 69.453125 20.535156 69.429688 20.851562 69.460938 C 21.171875 69.496094 21.472656 69.582031 21.761719 69.726562 C 22.046875 69.871094 22.296875 70.058594 22.515625 70.296875 C 22.730469 70.53125 22.902344 70.796875 23.019531 71.09375 L 22.15625 71.09375 C 22.003906 70.804688 21.785156 70.574219 21.503906 70.40625 C 21.222656 70.234375 20.917969 70.148438 20.589844 70.148438 C 20.34375 70.160156 20.105469 70.214844 19.878906 70.316406 C 19.652344 70.417969 19.457031 70.558594 19.285156 70.738281 C 19.113281 70.917969 18.980469 71.121094 18.886719 71.351562 C 18.796875 71.578125 18.75 71.820312 18.75 72.066406 C 18.75 72.3125 18.796875 72.554688 18.886719 72.78125 C 18.980469 73.011719 19.113281 73.214844 19.285156 73.394531 C 19.457031 73.574219 19.652344 73.714844 19.878906 73.816406 C 20.105469 73.917969 20.34375 73.972656 20.589844 73.984375 C 20.914062 73.980469 21.214844 73.894531 21.496094 73.734375 C 21.773438 73.570312 21.996094 73.347656 22.15625 73.066406 L 22.992188 73.066406 " fill-opacity="1" fill-rule="nonzero"/><path fill="#000000" d="M 24.074219 69.527344 L 24.882812 69.527344 L 24.882812 74.605469 L 24.074219 74.605469 Z M 24.074219 69.527344 " fill-opacity="1" fill-rule="nonzero"/><path fill="#000000" d="M 26.9375 70.257812 L 25.777344 70.257812 L 25.777344 69.527344 L 28.910156 69.527344 L 28.910156 70.257812 L 27.746094 70.257812 L 27.746094 74.632812 L 26.9375 74.632812 L 26.9375 70.257812 " fill-opacity="1" fill-rule="nonzero"/><path fill="#000000" d="M 30.988281 72.824219 L 29.394531 69.527344 L 30.285156 69.527344 L 31.394531 72.066406 L 32.527344 69.527344 L 33.390625 69.527344 L 31.796875 72.824219 L 31.796875 74.632812 L 30.988281 74.632812 L 30.988281 72.824219 " fill-opacity="1" fill-rule="nonzero"/><path fill="#000000" d="M 36.441406 72.121094 C 36.441406 72.472656 36.507812 72.8125 36.640625 73.140625 C 36.773438 73.464844 36.964844 73.753906 37.210938 74.003906 C 37.460938 74.257812 37.746094 74.449219 38.070312 74.585938 C 38.398438 74.722656 38.734375 74.792969 39.089844 74.792969 C 39.441406 74.796875 39.78125 74.730469 40.109375 74.597656 C 40.433594 74.464844 40.722656 74.273438 40.972656 74.023438 C 41.226562 73.777344 41.417969 73.488281 41.554688 73.164062 C 41.691406 72.839844 41.761719 72.5 41.761719 72.148438 C 41.765625 71.792969 41.699219 71.453125 41.566406 71.128906 C 41.433594 70.800781 41.242188 70.511719 40.992188 70.261719 C 40.746094 70.011719 40.457031 69.820312 40.132812 69.683594 C 39.808594 69.546875 39.46875 69.476562 39.117188 69.472656 C 38.761719 69.460938 38.417969 69.523438 38.085938 69.652344 C 37.753906 69.78125 37.460938 69.972656 37.207031 70.222656 C 36.957031 70.472656 36.761719 70.761719 36.628906 71.09375 C 36.496094 71.421875 36.433594 71.765625 36.441406 72.121094 M 37.253906 72.070312 C 37.246094 71.816406 37.289062 71.578125 37.378906 71.34375 C 37.472656 71.109375 37.605469 70.90625 37.78125 70.726562 C 37.957031 70.546875 38.160156 70.410156 38.390625 70.316406 C 38.625 70.222656 38.863281 70.175781 39.117188 70.179688 C 39.367188 70.179688 39.609375 70.230469 39.839844 70.328125 C 40.070312 70.429688 40.273438 70.566406 40.449219 70.746094 C 40.625 70.925781 40.757812 71.132812 40.847656 71.367188 C 40.941406 71.601562 40.984375 71.84375 40.980469 72.09375 C 40.988281 72.34375 40.945312 72.585938 40.855469 72.820312 C 40.769531 73.054688 40.636719 73.261719 40.464844 73.441406 C 40.292969 73.621094 40.089844 73.761719 39.859375 73.859375 C 39.632812 73.960938 39.390625 74.011719 39.140625 74.011719 C 38.886719 74.011719 38.640625 73.964844 38.40625 73.863281 C 38.171875 73.765625 37.964844 73.625 37.785156 73.441406 C 37.609375 73.257812 37.472656 73.046875 37.378906 72.808594 C 37.289062 72.570312 37.246094 72.324219 37.253906 72.070312 Z M 37.253906 72.070312 " fill-opacity="1" fill-rule="nonzero"/><path fill="#000000" d="M 42.84375 69.527344 L 45.488281 69.527344 L 45.488281 70.257812 L 43.652344 70.257812 L 43.652344 71.742188 L 45.460938 71.742188 L 45.460938 72.445312 L 43.652344 72.445312 L 43.652344 74.632812 L 42.84375 74.632812 L 42.84375 69.527344 " fill-opacity="1" fill-rule="nonzero"/></svg>