<svg xmlns="http://www.w3.org/2000/svg" xmlns:xlink="http://www.w3.org/1999/xlink" width="150" zoomAndPan="magnify" viewBox="0 0 112.5 112.499997" height="150" preserveAspectRatio="xMidYMid meet" version="1.0"><defs><clipPath id="5463a7ddd8"><path d="M 5.210938 86 L 14 86 L 14 96 L 5.210938 96 Z M 5.210938 86 " clip-rule="nonzero"/></clipPath><clipPath id="7fce2f8a4a"><path d="M 18 89 L 26 89 L 26 98.28125 L 18 98.28125 Z M 18 89 " clip-rule="nonzero"/></clipPath><clipPath id="d0679271b6"><path d="M 99 89 L 106.761719 89 L 106.761719 96 L 99 96 Z M 99 89 " clip-rule="nonzero"/></clipPath><clipPath id="cf80a0ea32"><path d="M 5.210938 8.679688 L 106.761719 8.679688 L 106.761719 78 L 5.210938 78 Z M 5.210938 8.679688 " clip-rule="nonzero"/></clipPath><clipPath id="400f28fe0d"><path d="M 42 23 L 70 23 L 70 59 L 42 59 Z M 42 23 " clip-rule="nonzero"/></clipPath><clipPath id="9ea70e6d36"><path d="M 56.082031 58.742188 C 61.71875 50.398438 69.277344 41.089844 69.40625 40.898438 C 68.316406 40.707031 67.035156 39.488281 66.394531 38.269531 C 65.816406 37.113281 65.816406 35.378906 65.753906 33.96875 C 65.691406 33.195312 65.753906 29.347656 65.753906 29.347656 C 60.117188 30.820312 57.300781 26.074219 56.082031 23.890625 C 54.863281 26.074219 52.046875 30.820312 46.410156 29.347656 C 46.410156 29.347656 46.472656 33.195312 46.410156 33.96875 C 46.347656 35.445312 46.347656 37.113281 45.769531 38.269531 C 45.191406 39.550781 43.910156 40.707031 42.757812 40.898438 C 42.757812 40.898438 50.316406 50.335938 56.082031 58.742188 Z M 46.792969 41.992188 C 46.792969 41.992188 47.371094 41.15625 47.628906 40.769531 C 50.0625 43.789062 52.304688 46.933594 54.289062 50.207031 L 53.902344 49.4375 C 52.496094 45.777344 50.894531 42.183594 49.101562 38.71875 L 50.1875 37.175781 C 51.984375 40.769531 53.457031 44.492188 54.738281 48.28125 L 54.992188 48.921875 L 54.800781 48.152344 C 52.496094 38.140625 51.46875 35.316406 51.46875 35.316406 L 51.535156 35.25 L 52.75 33.453125 L 55.503906 45.714844 C 55.503906 45.714844 55.570312 41.796875 55.183594 30.179688 C 55.441406 29.796875 55.953125 29.023438 56.144531 28.703125 C 56.273438 29.023438 56.851562 29.796875 57.105469 30.179688 C 56.722656 41.796875 56.785156 45.714844 56.785156 45.714844 L 59.539062 33.390625 L 60.757812 35.1875 L 60.820312 35.25 C 60.820312 35.25 59.796875 38.140625 57.492188 48.089844 L 57.300781 48.859375 L 57.554688 48.214844 C 58.835938 44.429688 60.308594 40.707031 62.101562 37.113281 L 63.191406 38.652344 C 61.398438 42.183594 59.734375 45.777344 58.324219 49.4375 L 58.003906 50.207031 C 60.054688 46.933594 62.230469 43.789062 64.664062 40.769531 L 65.496094 41.925781 C 64.984375 42.566406 60.179688 48.539062 56.210938 54.378906 C 52.046875 48.539062 47.308594 42.632812 46.792969 41.992188 Z M 46.792969 41.992188 " clip-rule="nonzero"/></clipPath><linearGradient x1="-594.35982" gradientTransform="matrix(0, 22.426113, -28.247339, 0, 8578.180226, 13353.070662)" y1="301.69601" x2="-592.805727" gradientUnits="userSpaceOnUse" y2="301.69601" id="a168ba78e6"><stop stop-opacity="1" stop-color="rgb(93.699646%, 88.198853%, 16.899109%)" offset="0"/><stop stop-opacity="1" stop-color="rgb(93.699646%, 88.198853%, 16.899109%)" offset="0.125"/><stop stop-opacity="1" stop-color="rgb(93.699646%, 88.198853%, 16.899109%)" offset="0.1875"/><stop stop-opacity="1" stop-color="rgb(93.699646%, 88.198853%, 16.899109%)" offset="0.203125"/><stop stop-opacity="1" stop-color="rgb(93.441772%, 88.140869%, 17.024231%)" offset="0.207031"/><stop stop-opacity="1" stop-color="rgb(93.183899%, 88.082886%, 17.149353%)" offset="0.210938"/><stop stop-opacity="1" stop-color="rgb(92.869568%, 88.011169%, 17.300415%)" offset="0.214844"/><stop stop-opacity="1" stop-color="rgb(92.555237%, 87.940979%, 17.453003%)" offset="0.21875"/><stop stop-opacity="1" stop-color="rgb(92.240906%, 87.869263%, 17.604065%)" offset="0.222656"/><stop stop-opacity="1" stop-color="rgb(91.928101%, 87.799072%, 17.756653%)" offset="0.226562"/><stop stop-opacity="1" stop-color="rgb(91.61377%, 87.727356%, 17.907715%)" offset="0.230469"/><stop stop-opacity="1" stop-color="rgb(91.300964%, 87.657166%, 18.058777%)" offset="0.234375"/><stop stop-opacity="1" stop-color="rgb(90.986633%, 87.586975%, 18.209839%)" offset="0.238281"/><stop stop-opacity="1" stop-color="rgb(90.673828%, 87.516785%, 18.362427%)" offset="0.242188"/><stop stop-opacity="1" stop-color="rgb(90.155029%, 87.358093%, 18.59436%)" offset="0.246094"/><stop stop-opacity="1" stop-color="rgb(89.63623%, 87.199402%, 18.826294%)" offset="0.25"/><stop stop-opacity="1" stop-color="rgb(89.089966%, 87.028503%, 19.068909%)" offset="0.253906"/><stop stop-opacity="1" stop-color="rgb(88.543701%, 86.859131%, 19.313049%)" offset="0.257812"/><stop stop-opacity="1" stop-color="rgb(87.997437%, 86.689758%, 19.555664%)" offset="0.261719"/><stop stop-opacity="1" stop-color="rgb(87.451172%, 86.520386%, 19.798279%)" offset="0.265625"/><stop stop-opacity="1" stop-color="rgb(86.904907%, 86.349487%, 20.040894%)" offset="0.269531"/><stop stop-opacity="1" stop-color="rgb(86.358643%, 86.180115%, 20.283508%)" offset="0.273438"/><stop stop-opacity="1" stop-color="rgb(85.812378%, 86.009216%, 20.526123%)" offset="0.277344"/><stop stop-opacity="1" stop-color="rgb(85.266113%, 85.839844%, 20.770264%)" offset="0.28125"/><stop stop-opacity="1" stop-color="rgb(84.719849%, 85.668945%, 21.012878%)" offset="0.285156"/><stop stop-opacity="1" stop-color="rgb(84.173584%, 85.499573%, 21.255493%)" offset="0.289062"/><stop stop-opacity="1" stop-color="rgb(83.627319%, 85.3302%, 21.498108%)" offset="0.292969"/><stop stop-opacity="1" stop-color="rgb(83.081055%, 85.160828%, 21.740723%)" offset="0.296875"/><stop stop-opacity="1" stop-color="rgb(82.53479%, 84.989929%, 21.983337%)" offset="0.300781"/><stop stop-opacity="1" stop-color="rgb(81.988525%, 84.820557%, 22.225952%)" offset="0.304688"/><stop stop-opacity="1" stop-color="rgb(81.369019%, 84.632874%, 22.488403%)" offset="0.308594"/><stop stop-opacity="1" stop-color="rgb(80.751038%, 84.44519%, 22.750854%)" offset="0.3125"/><stop stop-opacity="1" stop-color="rgb(80.093384%, 84.246826%, 23.023987%)" offset="0.316406"/><stop stop-opacity="1" stop-color="rgb(79.43573%, 84.049988%, 23.297119%)" offset="0.320312"/><stop stop-opacity="1" stop-color="rgb(78.778076%, 83.853149%, 23.570251%)" offset="0.324219"/><stop stop-opacity="1" stop-color="rgb(78.120422%, 83.656311%, 23.843384%)" offset="0.328125"/><stop stop-opacity="1" stop-color="rgb(77.462769%, 83.457947%, 24.116516%)" offset="0.332031"/><stop stop-opacity="1" stop-color="rgb(76.805115%, 83.261108%, 24.389648%)" offset="0.335938"/><stop stop-opacity="1" stop-color="rgb(76.147461%, 83.062744%, 24.662781%)" offset="0.339844"/><stop stop-opacity="1" stop-color="rgb(75.489807%, 82.865906%, 24.937439%)" offset="0.34375"/><stop stop-opacity="1" stop-color="rgb(74.832153%, 82.669067%, 25.210571%)" offset="0.347656"/><stop stop-opacity="1" stop-color="rgb(74.1745%, 82.472229%, 25.483704%)" offset="0.351562"/><stop stop-opacity="1" stop-color="rgb(73.516846%, 82.273865%, 25.756836%)" offset="0.355469"/><stop stop-opacity="1" stop-color="rgb(72.859192%, 82.077026%, 26.029968%)" offset="0.359375"/><stop stop-opacity="1" stop-color="rgb(72.201538%, 81.880188%, 26.303101%)" offset="0.363281"/><stop stop-opacity="1" stop-color="rgb(71.543884%, 81.68335%, 26.576233%)" offset="0.367188"/><stop stop-opacity="1" stop-color="rgb(70.88623%, 81.484985%, 26.849365%)" offset="0.371094"/><stop stop-opacity="1" stop-color="rgb(70.228577%, 81.288147%, 27.122498%)" offset="0.375"/><stop stop-opacity="1" stop-color="rgb(69.570923%, 81.089783%, 27.39563%)" offset="0.378906"/><stop stop-opacity="1" stop-color="rgb(68.913269%, 80.892944%, 27.668762%)" offset="0.382812"/><stop stop-opacity="1" stop-color="rgb(68.379211%, 80.754089%, 27.810669%)" offset="0.386719"/><stop stop-opacity="1" stop-color="rgb(67.845154%, 80.615234%, 27.952576%)" offset="0.390625"/><stop stop-opacity="1" stop-color="rgb(67.349243%, 80.493164%, 28.053284%)" offset="0.394531"/><stop stop-opacity="1" stop-color="rgb(66.853333%, 80.371094%, 28.155518%)" offset="0.398438"/><stop stop-opacity="1" stop-color="rgb(66.357422%, 80.249023%, 28.256226%)" offset="0.402344"/><stop stop-opacity="1" stop-color="rgb(65.861511%, 80.128479%, 28.358459%)" offset="0.40625"/><stop stop-opacity="1" stop-color="rgb(65.365601%, 80.006409%, 28.459167%)" offset="0.410156"/><stop stop-opacity="1" stop-color="rgb(64.86969%, 79.885864%, 28.559875%)" offset="0.414062"/><stop stop-opacity="1" stop-color="rgb(64.373779%, 79.763794%, 28.660583%)" offset="0.417969"/><stop stop-opacity="1" stop-color="rgb(63.879395%, 79.64325%, 28.762817%)" offset="0.421875"/><stop stop-opacity="1" stop-color="rgb(63.383484%, 79.521179%, 28.863525%)" offset="0.425781"/><stop stop-opacity="1" stop-color="rgb(62.887573%, 79.400635%, 28.964233%)" offset="0.429688"/><stop stop-opacity="1" stop-color="rgb(62.391663%, 79.278564%, 29.064941%)" offset="0.433594"/><stop stop-opacity="1" stop-color="rgb(61.895752%, 79.15802%, 29.167175%)" offset="0.4375"/><stop stop-opacity="1" stop-color="rgb(61.399841%, 79.03595%, 29.267883%)" offset="0.441406"/><stop stop-opacity="1" stop-color="rgb(60.903931%, 78.915405%, 29.370117%)" offset="0.445312"/><stop stop-opacity="1" stop-color="rgb(60.40802%, 78.793335%, 29.470825%)" offset="0.449219"/><stop stop-opacity="1" stop-color="rgb(59.912109%, 78.671265%, 29.571533%)" offset="0.453125"/><stop stop-opacity="1" stop-color="rgb(59.416199%, 78.549194%, 29.672241%)" offset="0.457031"/><stop stop-opacity="1" stop-color="rgb(58.920288%, 78.42865%, 29.774475%)" offset="0.460938"/><stop stop-opacity="1" stop-color="rgb(58.354187%, 78.28064%, 29.904175%)" offset="0.464844"/><stop stop-opacity="1" stop-color="rgb(57.788086%, 78.132629%, 30.0354%)" offset="0.46875"/><stop stop-opacity="1" stop-color="rgb(57.211304%, 77.980042%, 30.169678%)" offset="0.472656"/><stop stop-opacity="1" stop-color="rgb(56.634521%, 77.828979%, 30.303955%)" offset="0.476562"/><stop stop-opacity="1" stop-color="rgb(56.057739%, 77.676392%, 30.438232%)" offset="0.480469"/><stop stop-opacity="1" stop-color="rgb(55.480957%, 77.52533%, 30.57251%)" offset="0.484375"/><stop stop-opacity="1" stop-color="rgb(54.904175%, 77.372742%, 30.706787%)" offset="0.488281"/><stop stop-opacity="1" stop-color="rgb(54.327393%, 77.22168%, 30.841064%)" offset="0.492188"/><stop stop-opacity="1" stop-color="rgb(53.75061%, 77.070618%, 30.975342%)" offset="0.496094"/><stop stop-opacity="1" stop-color="rgb(53.173828%, 76.919556%, 31.111145%)" offset="0.5"/><stop stop-opacity="1" stop-color="rgb(52.597046%, 76.766968%, 31.245422%)" offset="0.503906"/><stop stop-opacity="1" stop-color="rgb(52.020264%, 76.615906%, 31.3797%)" offset="0.507812"/><stop stop-opacity="1" stop-color="rgb(51.443481%, 76.463318%, 31.513977%)" offset="0.511719"/><stop stop-opacity="1" stop-color="rgb(50.866699%, 76.312256%, 31.648254%)" offset="0.515625"/><stop stop-opacity="1" stop-color="rgb(50.289917%, 76.159668%, 31.782532%)" offset="0.519531"/><stop stop-opacity="1" stop-color="rgb(49.713135%, 76.008606%, 31.916809%)" offset="0.523438"/><stop stop-opacity="1" stop-color="rgb(49.136353%, 75.856018%, 32.051086%)" offset="0.527344"/><stop stop-opacity="1" stop-color="rgb(48.55957%, 75.704956%, 32.185364%)" offset="0.53125"/><stop stop-opacity="1" stop-color="rgb(47.982788%, 75.552368%, 32.319641%)" offset="0.535156"/><stop stop-opacity="1" stop-color="rgb(47.406006%, 75.401306%, 32.455444%)" offset="0.539062"/><stop stop-opacity="1" stop-color="rgb(46.829224%, 75.248718%, 32.589722%)" offset="0.542969"/><stop stop-opacity="1" stop-color="rgb(46.252441%, 75.097656%, 32.723999%)" offset="0.546875"/><stop stop-opacity="1" stop-color="rgb(45.602417%, 74.914551%, 32.810974%)" offset="0.550781"/><stop stop-opacity="1" stop-color="rgb(44.952393%, 74.731445%, 32.899475%)" offset="0.554688"/><stop stop-opacity="1" stop-color="rgb(44.163513%, 74.487305%, 32.899475%)" offset="0.558594"/><stop stop-opacity="1" stop-color="rgb(43.374634%, 74.24469%, 32.899475%)" offset="0.5625"/><stop stop-opacity="1" stop-color="rgb(42.584229%, 74.002075%, 32.899475%)" offset="0.566406"/><stop stop-opacity="1" stop-color="rgb(41.795349%, 73.75946%, 32.899475%)" offset="0.570312"/><stop stop-opacity="1" stop-color="rgb(41.165161%, 73.599243%, 32.879639%)" offset="0.574219"/><stop stop-opacity="1" stop-color="rgb(40.536499%, 73.439026%, 32.861328%)" offset="0.578125"/><stop stop-opacity="1" stop-color="rgb(39.929199%, 73.28949%, 32.83844%)" offset="0.582031"/><stop stop-opacity="1" stop-color="rgb(39.321899%, 73.139954%, 32.817078%)" offset="0.585938"/><stop stop-opacity="1" stop-color="rgb(38.7146%, 72.990417%, 32.794189%)" offset="0.589844"/><stop stop-opacity="1" stop-color="rgb(38.1073%, 72.842407%, 32.772827%)" offset="0.59375"/><stop stop-opacity="1" stop-color="rgb(37.5%, 72.692871%, 32.749939%)" offset="0.597656"/><stop stop-opacity="1" stop-color="rgb(36.894226%, 72.544861%, 32.728577%)" offset="0.601562"/><stop stop-opacity="1" stop-color="rgb(36.286926%, 72.395325%, 32.705688%)" offset="0.605469"/><stop stop-opacity="1" stop-color="rgb(35.679626%, 72.245789%, 32.684326%)" offset="0.609375"/><stop stop-opacity="1" stop-color="rgb(35.072327%, 72.096252%, 32.661438%)" offset="0.613281"/><stop stop-opacity="1" stop-color="rgb(34.465027%, 71.948242%, 32.640076%)" offset="0.617188"/><stop stop-opacity="1" stop-color="rgb(33.857727%, 71.798706%, 32.617188%)" offset="0.621094"/><stop stop-opacity="1" stop-color="rgb(33.251953%, 71.650696%, 32.595825%)" offset="0.625"/><stop stop-opacity="1" stop-color="rgb(32.644653%, 71.50116%, 32.572937%)" offset="0.628906"/><stop stop-opacity="1" stop-color="rgb(32.037354%, 71.351624%, 32.551575%)" offset="0.632812"/><stop stop-opacity="1" stop-color="rgb(31.430054%, 71.202087%, 32.528687%)" offset="0.636719"/><stop stop-opacity="1" stop-color="rgb(30.822754%, 71.054077%, 32.507324%)" offset="0.640625"/><stop stop-opacity="1" stop-color="rgb(30.342102%, 70.918274%, 32.489014%)" offset="0.644531"/><stop stop-opacity="1" stop-color="rgb(29.86145%, 70.782471%, 32.472229%)" offset="0.648438"/><stop stop-opacity="1" stop-color="rgb(29.408264%, 70.649719%, 32.455444%)" offset="0.652344"/><stop stop-opacity="1" stop-color="rgb(28.956604%, 70.518494%, 32.43866%)" offset="0.65625"/><stop stop-opacity="1" stop-color="rgb(28.503418%, 70.385742%, 32.421875%)" offset="0.660156"/><stop stop-opacity="1" stop-color="rgb(28.050232%, 70.252991%, 32.406616%)" offset="0.664062"/><stop stop-opacity="1" stop-color="rgb(27.597046%, 70.120239%, 32.389832%)" offset="0.667969"/><stop stop-opacity="1" stop-color="rgb(27.145386%, 69.989014%, 32.373047%)" offset="0.671875"/><stop stop-opacity="1" stop-color="rgb(26.6922%, 69.856262%, 32.356262%)" offset="0.675781"/><stop stop-opacity="1" stop-color="rgb(26.24054%, 69.723511%, 32.339478%)" offset="0.679688"/><stop stop-opacity="1" stop-color="rgb(25.787354%, 69.590759%, 32.322693%)" offset="0.683594"/><stop stop-opacity="1" stop-color="rgb(25.335693%, 69.458008%, 32.305908%)" offset="0.6875"/><stop stop-opacity="1" stop-color="rgb(24.882507%, 69.325256%, 32.289124%)" offset="0.691406"/><stop stop-opacity="1" stop-color="rgb(24.430847%, 69.194031%, 32.273865%)" offset="0.695312"/><stop stop-opacity="1" stop-color="rgb(23.977661%, 69.061279%, 32.25708%)" offset="0.699219"/><stop stop-opacity="1" stop-color="rgb(23.526001%, 68.928528%, 32.240295%)" offset="0.703125"/><stop stop-opacity="1" stop-color="rgb(23.072815%, 68.795776%, 32.223511%)" offset="0.707031"/><stop stop-opacity="1" stop-color="rgb(22.621155%, 68.664551%, 32.206726%)" offset="0.710938"/><stop stop-opacity="1" stop-color="rgb(22.309875%, 68.585205%, 32.202148%)" offset="0.714844"/><stop stop-opacity="1" stop-color="rgb(21.998596%, 68.507385%, 32.199097%)" offset="0.71875"/><stop stop-opacity="1" stop-color="rgb(21.733093%, 68.44635%, 32.199097%)" offset="0.722656"/><stop stop-opacity="1" stop-color="rgb(21.469116%, 68.386841%, 32.199097%)" offset="0.726562"/><stop stop-opacity="1" stop-color="rgb(21.203613%, 68.325806%, 32.199097%)" offset="0.730469"/><stop stop-opacity="1" stop-color="rgb(20.939636%, 68.264771%, 32.199097%)" offset="0.734375"/><stop stop-opacity="1" stop-color="rgb(20.674133%, 68.203735%, 32.199097%)" offset="0.738281"/><stop stop-opacity="1" stop-color="rgb(20.410156%, 68.1427%, 32.199097%)" offset="0.742188"/><stop stop-opacity="1" stop-color="rgb(20.144653%, 68.081665%, 32.199097%)" offset="0.746094"/><stop stop-opacity="1" stop-color="rgb(19.87915%, 68.022156%, 32.199097%)" offset="0.75"/><stop stop-opacity="1" stop-color="rgb(19.613647%, 67.961121%, 32.199097%)" offset="0.753906"/><stop stop-opacity="1" stop-color="rgb(19.34967%, 67.900085%, 32.199097%)" offset="0.757812"/><stop stop-opacity="1" stop-color="rgb(19.084167%, 67.83905%, 32.199097%)" offset="0.761719"/><stop stop-opacity="1" stop-color="rgb(18.82019%, 67.779541%, 32.199097%)" offset="0.765625"/><stop stop-opacity="1" stop-color="rgb(18.554688%, 67.718506%, 32.199097%)" offset="0.769531"/><stop stop-opacity="1" stop-color="rgb(18.29071%, 67.657471%, 32.199097%)" offset="0.773438"/><stop stop-opacity="1" stop-color="rgb(18.025208%, 67.596436%, 32.199097%)" offset="0.777344"/><stop stop-opacity="1" stop-color="rgb(17.759705%, 67.536926%, 32.199097%)" offset="0.78125"/><stop stop-opacity="1" stop-color="rgb(17.616272%, 67.500305%, 32.199097%)" offset="0.789062"/><stop stop-opacity="1" stop-color="rgb(17.381287%, 67.440796%, 32.199097%)" offset="0.796875"/><stop stop-opacity="1" stop-color="rgb(17.108154%, 67.367554%, 32.199097%)" offset="0.8125"/><stop stop-opacity="1" stop-color="rgb(16.743469%, 67.271423%, 32.199097%)" offset="0.828125"/><stop stop-opacity="1" stop-color="rgb(16.378784%, 67.173767%, 32.199097%)" offset="0.84375"/><stop stop-opacity="1" stop-color="rgb(16.148376%, 67.111206%, 32.199097%)" offset="0.875"/><stop stop-opacity="1" stop-color="rgb(16.099548%, 67.098999%, 32.199097%)" offset="1"/></linearGradient></defs><g clip-path="url(#5463a7ddd8)"><path fill="#000000" d="M 11.117188 93.402344 L 9.257812 91.027344 C 10.347656 90.835938 11.246094 89.871094 11.308594 88.78125 C 11.308594 87.625 10.347656 86.726562 8.617188 86.726562 L 5.542969 86.726562 L 5.542969 86.792969 C 6.183594 87.046875 6.121094 88.011719 6.121094 88.589844 L 6.121094 93.464844 C 6.121094 94.042969 6.183594 95.007812 5.542969 95.261719 L 5.542969 95.328125 L 7.976562 95.328125 L 7.976562 95.261719 C 7.335938 95.007812 7.402344 94.109375 7.402344 93.464844 L 7.402344 87.691406 C 7.722656 87.625 7.976562 87.625 8.296875 87.5625 L 8.492188 87.5625 C 9.324219 87.5625 9.964844 88.203125 10.027344 89.039062 C 10.027344 90.257812 8.8125 90.707031 7.785156 90.898438 L 9.003906 92.695312 L 10.605469 94.621094 C 10.988281 95.070312 11.5 95.328125 12.078125 95.261719 L 13.292969 95.261719 C 12.398438 94.75 11.691406 94.109375 11.117188 93.402344 Z M 11.117188 93.402344 " fill-opacity="1" fill-rule="nonzero"/></g><path fill="#000000" d="M 18.417969 93.851562 C 17.777344 94.300781 17.074219 94.558594 16.304688 94.558594 L 16.113281 94.558594 C 14.769531 94.492188 13.742188 93.402344 13.742188 92.054688 L 18.417969 92.054688 C 18.417969 91.925781 18.417969 91.863281 18.417969 91.734375 C 18.355469 90.191406 17.007812 89.039062 15.535156 89.101562 L 15.34375 89.101562 C 13.679688 89.167969 12.332031 90.515625 12.398438 92.183594 C 12.398438 93.980469 13.933594 95.390625 16.113281 95.390625 C 16.753906 95.390625 17.328125 95.261719 17.90625 95.070312 Z M 15.472656 89.9375 C 16.304688 89.871094 17.007812 90.449219 17.074219 91.285156 L 13.808594 91.285156 C 13.933594 90.449219 14.640625 89.871094 15.472656 89.9375 Z M 15.472656 89.9375 " fill-opacity="1" fill-rule="nonzero"/><g clip-path="url(#7fce2f8a4a)"><path fill="#000000" d="M 25.273438 89.679688 L 25.59375 89.039062 L 21.6875 89.101562 C 20.339844 89.101562 18.929688 89.808594 18.929688 91.285156 C 18.996094 92.246094 19.699219 93.082031 20.660156 93.273438 C 20.40625 93.402344 19.636719 93.59375 19.636719 93.980469 C 19.636719 94.492188 20.085938 94.878906 20.597656 94.878906 L 21.492188 94.878906 C 22.261719 94.878906 24.121094 95.007812 24.121094 96.097656 C 24.121094 97.1875 22.710938 97.445312 21.8125 97.445312 C 20.980469 97.445312 19.699219 97.253906 19.699219 96.164062 C 19.699219 95.839844 19.890625 95.585938 20.210938 95.585938 C 19.957031 95.457031 19.699219 95.390625 19.507812 95.390625 C 18.867188 95.390625 18.289062 95.714844 18.289062 96.417969 C 18.289062 97.511719 19.828125 98.28125 21.878906 98.28125 C 23.925781 98.28125 25.527344 97.445312 25.527344 96.035156 C 25.527344 94.75 24.3125 94.109375 22.070312 94.109375 C 21.941406 94.109375 21.300781 94.109375 21.300781 93.851562 C 21.300781 93.59375 21.621094 93.53125 21.8125 93.53125 C 22.964844 93.402344 24.566406 92.953125 24.566406 91.476562 C 24.566406 90.835938 24.246094 90.191406 23.671875 89.871094 C 24.121094 89.9375 24.566406 90 25.015625 90.066406 C 25.144531 90 25.207031 89.9375 25.273438 89.679688 Z M 23.160156 91.414062 C 23.09375 92.117188 22.519531 92.695312 21.8125 92.632812 C 20.980469 92.632812 20.277344 91.925781 20.210938 91.089844 L 20.210938 90.964844 C 20.277344 90.320312 20.851562 89.871094 21.492188 89.9375 L 21.558594 89.9375 C 22.390625 89.9375 23.09375 90.578125 23.09375 91.347656 L 23.09375 91.414062 Z M 23.160156 91.414062 " fill-opacity="1" fill-rule="nonzero"/></g><path fill="#000000" d="M 27.898438 87.691406 C 27.898438 87.242188 27.578125 86.917969 27.128906 86.917969 C 26.683594 86.917969 26.296875 87.242188 26.296875 87.691406 C 26.296875 88.140625 26.683594 88.523438 27.128906 88.523438 C 27.578125 88.460938 27.898438 88.074219 27.898438 87.691406 Z M 27.898438 87.691406 " fill-opacity="1" fill-rule="nonzero"/><path fill="#000000" d="M 27.769531 93.789062 L 27.769531 89.039062 L 27.707031 89.039062 C 27.449219 89.230469 27.195312 89.292969 26.875 89.230469 L 26.105469 89.230469 L 26.105469 89.292969 C 26.683594 89.617188 26.617188 90.066406 26.617188 90.707031 L 26.617188 93.789062 C 26.617188 94.363281 26.683594 94.878906 26.105469 95.199219 L 26.105469 95.261719 L 28.28125 95.261719 L 28.28125 95.199219 C 27.707031 94.878906 27.769531 94.363281 27.769531 93.789062 Z M 27.769531 93.789062 " fill-opacity="1" fill-rule="nonzero"/><path fill="#000000" d="M 32 89.101562 L 31.742188 89.101562 C 29.949219 89.101562 28.539062 90.515625 28.539062 92.3125 L 28.539062 92.375 C 28.601562 94.109375 30.078125 95.457031 31.804688 95.390625 L 31.871094 95.390625 C 33.664062 95.390625 35.136719 93.980469 35.199219 92.183594 L 35.199219 92.117188 C 35.136719 90.386719 33.664062 89.039062 32 89.101562 Z M 33.917969 92.441406 L 33.917969 92.566406 C 33.917969 93.660156 33.023438 94.558594 31.933594 94.558594 C 30.589844 94.558594 29.882812 93.273438 29.882812 92.054688 L 29.882812 91.925781 C 29.882812 90.835938 30.78125 89.9375 31.871094 89.9375 C 33.277344 89.9375 33.917969 91.15625 33.917969 92.441406 Z M 33.917969 92.441406 " fill-opacity="1" fill-rule="nonzero"/><path fill="#000000" d="M 41.15625 93.789062 L 41.15625 91.925781 C 41.222656 91.285156 41.09375 90.578125 40.835938 90 C 40.390625 89.421875 39.621094 89.101562 38.851562 89.101562 C 38.082031 89.101562 37.441406 89.488281 36.996094 90.066406 L 36.996094 89.101562 L 36.929688 89.101562 C 36.675781 89.230469 36.355469 89.292969 36.035156 89.292969 L 35.265625 89.292969 L 35.265625 89.359375 C 35.839844 89.679688 35.777344 90.128906 35.777344 90.769531 L 35.777344 93.851562 C 35.777344 94.429688 35.839844 94.941406 35.265625 95.261719 L 35.265625 95.328125 L 37.441406 95.328125 L 37.441406 95.261719 C 36.867188 94.941406 36.929688 94.492188 36.929688 93.851562 L 36.929688 91.476562 C 36.929688 90.707031 37.121094 89.9375 38.273438 89.9375 C 39.429688 89.9375 39.8125 90.640625 39.8125 92.054688 L 39.8125 93.789062 C 39.8125 94.363281 39.875 94.878906 39.300781 95.199219 L 39.300781 95.261719 L 41.476562 95.261719 L 41.476562 95.199219 C 41.09375 94.878906 41.15625 94.363281 41.15625 93.789062 Z M 41.15625 93.789062 " fill-opacity="1" fill-rule="nonzero"/><path fill="#000000" d="M 47.820312 89.101562 L 47.5625 89.101562 C 45.769531 89.101562 44.359375 90.515625 44.359375 92.3125 L 44.359375 92.375 C 44.425781 94.109375 45.898438 95.457031 47.628906 95.390625 L 47.691406 95.390625 C 49.484375 95.390625 50.957031 93.980469 51.023438 92.183594 L 51.023438 92.117188 C 50.957031 90.386719 49.546875 89.039062 47.820312 89.101562 Z M 49.742188 92.441406 L 49.742188 92.566406 C 49.742188 93.660156 48.84375 94.558594 47.753906 94.558594 C 46.410156 94.558594 45.707031 93.273438 45.707031 92.054688 L 45.707031 91.925781 C 45.707031 90.835938 46.601562 89.9375 47.691406 89.9375 C 49.101562 89.9375 49.742188 91.15625 49.742188 92.441406 Z M 49.742188 92.441406 " fill-opacity="1" fill-rule="nonzero"/><path fill="#000000" d="M 54.289062 87.242188 C 54.542969 87.242188 54.738281 87.304688 54.929688 87.433594 L 55.824219 86.40625 L 54.929688 86.34375 C 54.097656 86.277344 53.265625 86.597656 52.625 87.175781 C 52.238281 87.625 52.046875 88.265625 52.109375 88.910156 L 52.109375 89.230469 L 51.46875 90.066406 L 52.109375 90.066406 L 52.109375 93.722656 C 52.109375 94.300781 52.175781 94.8125 51.597656 95.136719 L 51.597656 95.199219 L 53.902344 95.199219 L 53.902344 95.136719 C 53.265625 94.8125 53.328125 93.914062 53.328125 93.273438 L 53.328125 90 L 54.609375 90 C 54.800781 90 54.992188 90.066406 55.121094 90.191406 L 55.183594 90.191406 L 55.183594 89.039062 L 55.121094 89.039062 L 54.929688 89.101562 L 53.457031 89.101562 L 53.457031 88.265625 C 53.390625 87.625 53.519531 87.242188 54.289062 87.242188 Z M 54.289062 87.242188 " fill-opacity="1" fill-rule="nonzero"/><path fill="#000000" d="M 68.316406 86.664062 C 69.277344 87.046875 68.894531 88.074219 68.636719 88.84375 L 67.164062 93.53125 L 65.371094 87.945312 C 65.175781 87.5625 65.113281 87.113281 65.175781 86.664062 L 63.382812 86.664062 L 63.382812 86.726562 C 64.089844 87.113281 63.832031 87.945312 63.578125 88.714844 L 62.039062 93.660156 L 60.117188 87.625 C 59.988281 87.304688 59.925781 86.984375 59.988281 86.664062 L 58.066406 86.664062 L 58.066406 86.726562 C 58.707031 87.175781 58.898438 88.011719 59.15625 88.714844 L 60.695312 93.53125 C 61.140625 94.878906 61.269531 94.75 62.421875 95.648438 L 64.472656 89.101562 L 65.882812 93.59375 C 66.332031 94.941406 66.394531 94.878906 67.613281 95.648438 L 70.367188 86.726562 Z M 68.316406 86.664062 " fill-opacity="1" fill-rule="nonzero"/><path fill="#000000" d="M 74.335938 92.953125 L 74.335938 91.027344 C 74.335938 89.488281 73.25 89.039062 71.839844 89.039062 L 71.007812 89.101562 L 70.109375 90.386719 C 70.621094 90.066406 71.261719 89.871094 71.839844 89.871094 C 72.351562 89.871094 73.054688 90.066406 73.054688 90.707031 C 73.054688 92.117188 69.210938 91.027344 69.210938 93.402344 L 69.210938 93.464844 C 69.339844 94.558594 70.300781 95.390625 71.390625 95.328125 C 71.582031 95.328125 71.839844 95.328125 72.03125 95.261719 L 72.800781 94.300781 C 72.480469 94.429688 72.160156 94.492188 71.839844 94.492188 C 71.132812 94.492188 70.429688 94.238281 70.429688 93.402344 C 70.429688 92.632812 71.132812 92.441406 71.773438 92.3125 C 72.222656 92.246094 72.609375 92.117188 72.992188 91.925781 L 72.992188 93.980469 C 72.992188 95.007812 73.824219 95.261719 74.722656 95.328125 L 75.296875 94.492188 C 74.335938 94.363281 74.335938 93.980469 74.335938 92.953125 Z M 74.335938 92.953125 " fill-opacity="1" fill-rule="nonzero"/><path fill="#000000" d="M 78.566406 89.230469 L 77.347656 89.230469 L 77.347656 87.304688 L 76.835938 87.304688 C 76.835938 88.523438 76.515625 89.421875 75.296875 89.617188 L 75.296875 90.066406 L 76.195312 90.066406 L 76.195312 92.761719 C 76.195312 93.273438 76.003906 95.328125 77.988281 95.328125 C 78.117188 95.328125 78.246094 95.328125 78.371094 95.261719 L 79.078125 94.363281 C 78.886719 94.429688 78.757812 94.492188 78.566406 94.492188 C 77.15625 94.492188 77.347656 93.144531 77.347656 92.695312 L 77.347656 90.128906 L 78.117188 90.128906 C 78.4375 90.128906 78.820312 90.128906 79.078125 90.386719 L 79.140625 90.386719 L 79.140625 89.230469 L 79.078125 89.230469 C 78.886719 89.230469 78.691406 89.292969 78.566406 89.230469 Z M 78.566406 89.230469 " fill-opacity="1" fill-rule="nonzero"/><path fill="#000000" d="M 83.175781 94.558594 L 82.984375 94.558594 C 81.640625 94.492188 80.613281 93.402344 80.613281 92.054688 L 85.289062 92.054688 C 85.289062 91.925781 85.289062 91.863281 85.289062 91.734375 C 85.226562 90.191406 83.882812 89.039062 82.40625 89.101562 L 82.152344 89.101562 C 80.484375 89.167969 79.140625 90.515625 79.207031 92.183594 C 79.207031 93.980469 80.742188 95.390625 82.921875 95.390625 C 83.5625 95.390625 84.136719 95.261719 84.714844 95.070312 L 85.355469 93.851562 L 85.289062 93.851562 C 84.714844 94.300781 83.945312 94.558594 83.175781 94.558594 Z M 82.34375 89.9375 C 83.175781 89.871094 83.945312 90.449219 84.007812 91.285156 L 80.679688 91.285156 C 80.804688 90.449219 81.511719 89.871094 82.34375 89.9375 Z M 82.34375 89.9375 " fill-opacity="1" fill-rule="nonzero"/><path fill="#000000" d="M 87.53125 90.066406 L 87.53125 89.101562 L 87.46875 89.101562 C 87.210938 89.230469 86.957031 89.292969 86.699219 89.292969 L 85.867188 89.292969 L 85.867188 89.359375 C 86.441406 89.679688 86.378906 90.128906 86.378906 90.769531 L 86.378906 93.851562 C 86.378906 94.429688 86.441406 94.941406 85.867188 95.261719 L 85.867188 95.328125 L 88.042969 95.328125 L 88.042969 95.261719 C 87.46875 94.941406 87.53125 94.492188 87.53125 93.851562 L 87.53125 92.054688 C 87.53125 90.707031 87.917969 90.191406 88.941406 90.191406 C 89.132812 90.191406 89.390625 90.257812 89.519531 90.386719 L 89.519531 89.167969 L 89.070312 89.101562 C 88.429688 89.101562 87.789062 89.488281 87.53125 90.066406 Z M 87.53125 90.066406 " fill-opacity="1" fill-rule="nonzero"/><path fill="#000000" d="M 91.566406 93.789062 L 91.566406 86.46875 L 91.503906 86.46875 C 91.246094 86.664062 90.992188 86.726562 90.671875 86.664062 L 89.902344 86.664062 L 89.902344 86.726562 C 90.476562 87.046875 90.351562 87.496094 90.351562 88.140625 L 90.351562 93.789062 C 90.351562 94.363281 90.414062 94.878906 89.902344 95.199219 L 89.902344 95.261719 L 92.015625 95.261719 L 92.015625 95.199219 C 91.503906 94.878906 91.566406 94.363281 91.566406 93.789062 Z M 91.566406 93.789062 " fill-opacity="1" fill-rule="nonzero"/><path fill="#000000" d="M 95.859375 89.101562 L 95.601562 89.101562 C 93.808594 89.101562 92.398438 90.515625 92.398438 92.3125 L 92.398438 92.375 C 92.464844 94.109375 93.9375 95.457031 95.667969 95.390625 L 95.730469 95.390625 C 97.523438 95.390625 98.996094 93.980469 99.0625 92.183594 L 99.0625 92.117188 C 98.996094 90.386719 97.523438 89.039062 95.859375 89.101562 Z M 97.714844 92.441406 L 97.714844 92.566406 C 97.714844 93.660156 96.820312 94.558594 95.730469 94.558594 C 94.386719 94.558594 93.679688 93.273438 93.679688 92.054688 L 93.679688 91.925781 C 93.679688 90.835938 94.578125 89.9375 95.667969 89.9375 C 97.140625 89.9375 97.78125 91.15625 97.714844 92.441406 Z M 97.714844 92.441406 " fill-opacity="1" fill-rule="nonzero"/><g clip-path="url(#d0679271b6)"><path fill="#000000" d="M 103.097656 89.101562 L 102.839844 89.101562 C 101.046875 89.101562 99.636719 90.515625 99.636719 92.3125 L 99.636719 92.375 C 99.703125 94.109375 101.175781 95.457031 102.90625 95.390625 L 102.96875 95.390625 C 104.761719 95.390625 106.234375 93.980469 106.300781 92.183594 L 106.300781 92.117188 C 106.234375 90.386719 104.761719 89.039062 103.097656 89.101562 Z M 105.019531 92.441406 L 105.019531 92.566406 C 105.019531 93.660156 104.121094 94.558594 103.03125 94.558594 C 101.6875 94.558594 100.984375 93.273438 100.984375 92.054688 L 100.984375 91.925781 C 100.984375 90.835938 101.878906 89.9375 102.96875 89.9375 C 104.3125 89.9375 105.019531 91.15625 105.019531 92.441406 Z M 105.019531 92.441406 " fill-opacity="1" fill-rule="nonzero"/></g><g clip-path="url(#cf80a0ea32)"><path fill="#ffffff" d="M 101.304688 35.570312 C 104.632812 32.8125 106.746094 32.492188 106.746094 32.492188 L 93.617188 32.296875 C 93.617188 32.296875 87.851562 32.296875 86.121094 32.492188 C 84.074219 32.683594 82.023438 33.132812 80.039062 33.710938 C 78.820312 34.09375 77.285156 34.929688 76.003906 35.316406 C 75.042969 35.636719 74.015625 35.699219 72.992188 35.507812 C 72.160156 35.316406 70.878906 34.996094 71.070312 29.601562 L 71.199219 22.414062 C 71.199219 22.414062 66.457031 24.980469 62.359375 22.925781 C 60.695312 22.09375 59.414062 20.488281 58.261719 17.921875 C 57.042969 14.96875 56.273438 11.886719 56.082031 8.679688 C 55.824219 11.886719 55.058594 14.96875 53.777344 17.921875 C 52.625 20.488281 51.34375 22.09375 49.675781 22.925781 C 45.578125 24.980469 40.835938 22.414062 40.835938 22.414062 L 40.964844 29.601562 C 41.15625 34.996094 39.875 35.378906 39.042969 35.507812 C 38.019531 35.699219 36.996094 35.636719 36.035156 35.316406 C 34.753906 34.929688 33.214844 34.09375 32 33.710938 C 30.011719 33.132812 27.960938 32.683594 25.847656 32.492188 C 24.121094 32.296875 18.355469 32.296875 18.355469 32.296875 L 5.222656 32.363281 C 5.222656 32.363281 7.335938 32.683594 10.667969 35.445312 C 11.4375 36.085938 15.089844 39.230469 16.113281 40.128906 C 18.738281 42.441406 21.621094 45.199219 24.183594 47.894531 C 31.164062 55.148438 38.46875 64.261719 43.144531 70.296875 C 44.359375 71.902344 45.386719 73.25 46.21875 74.339844 C 46.859375 75.238281 47.5625 76.074219 48.332031 76.90625 C 49.101562 77.613281 50.316406 77.613281 51.085938 76.84375 C 51.34375 76.585938 51.535156 76.328125 51.726562 76.007812 C 52.429688 74.851562 53.710938 73.054688 56.019531 69.589844 C 58.261719 73.054688 59.539062 74.851562 60.246094 76.007812 C 60.4375 76.328125 60.628906 76.585938 60.886719 76.90625 C 61.65625 77.675781 62.871094 77.742188 63.703125 76.972656 C 64.089844 76.585938 64.535156 76.136719 64.855469 75.6875 C 65.691406 74.53125 67.097656 72.671875 68.828125 70.425781 C 73.503906 64.390625 80.804688 55.277344 87.722656 48.023438 C 90.351562 45.328125 93.167969 42.632812 95.792969 40.257812 C 96.882812 39.359375 100.535156 36.148438 101.304688 35.570312 Z M 84.328125 48.664062 C 78.050781 55.339844 71.390625 63.683594 67.164062 69.269531 C 65.5625 71.386719 64.28125 73.054688 63.511719 74.148438 C 63.382812 74.339844 63.257812 74.46875 63.0625 74.597656 C 62.617188 74.917969 62.039062 74.789062 61.71875 74.402344 C 61.527344 74.148438 61.335938 73.890625 61.140625 73.570312 C 60.4375 72.414062 58.582031 69.460938 56.210938 65.738281 L 56.082031 65.480469 L 55.824219 65.675781 C 53.457031 69.398438 51.597656 72.351562 50.894531 73.503906 C 50.703125 73.761719 50.507812 74.082031 50.316406 74.339844 C 49.996094 74.722656 49.421875 74.851562 48.972656 74.53125 C 48.78125 74.402344 48.652344 74.273438 48.523438 74.148438 C 47.753906 73.054688 46.472656 71.386719 44.871094 69.269531 C 40.644531 63.75 34.046875 55.339844 27.769531 48.664062 C 23.542969 44.171875 19.1875 39.617188 16.113281 37.046875 C 13.039062 34.480469 12.527344 34.480469 12.527344 34.480469 L 23.414062 34.480469 C 27.449219 34.351562 31.292969 36.984375 33.597656 38.910156 C 35.007812 40.191406 36.289062 41.542969 37.441406 43.082031 C 41.796875 48.730469 52.75 63.8125 52.75 63.8125 C 53.070312 63.234375 53.457031 62.65625 53.839844 62.082031 C 51.789062 58.933594 49.546875 55.660156 47.308594 52.515625 C 44.230469 48.023438 40.964844 43.722656 37.441406 39.550781 C 36.675781 38.652344 35.777344 37.753906 34.878906 36.984375 C 34.878906 36.984375 37.316406 38.589844 39.492188 38.394531 C 40.261719 38.332031 43.527344 38.269531 43.269531 33.96875 L 43.269531 25.625 C 43.269531 25.625 53.199219 30.886719 56.082031 16.574219 C 56.082031 16.507812 56.082031 16.378906 56.082031 16.316406 C 56.082031 16.378906 56.082031 16.507812 56.082031 16.574219 C 58.964844 30.886719 68.894531 25.558594 68.894531 25.558594 L 68.894531 33.902344 C 68.636719 38.203125 71.902344 38.269531 72.671875 38.332031 C 74.847656 38.523438 77.285156 36.917969 77.285156 36.917969 C 76.386719 37.691406 75.488281 38.589844 74.722656 39.488281 C 71.132812 43.59375 67.738281 47.960938 64.601562 52.453125 C 62.421875 55.597656 60.117188 58.871094 58.066406 62.015625 C 58.453125 62.59375 58.835938 63.171875 59.15625 63.75 C 59.15625 63.75 70.109375 48.664062 74.464844 43.015625 C 75.617188 41.542969 76.898438 40.128906 78.308594 38.84375 C 80.613281 36.917969 84.457031 34.289062 88.429688 34.351562 L 99.316406 34.351562 C 99.316406 34.351562 98.742188 34.351562 95.730469 36.917969 C 92.71875 39.488281 88.492188 44.171875 84.328125 48.664062 Z M 84.328125 48.664062 " fill-opacity="1" fill-rule="nonzero"/></g><path fill="#006ab4" d="M 99.511719 34.480469 L 88.621094 34.480469 C 84.648438 34.351562 80.804688 36.984375 78.5 38.972656 C 77.089844 40.257812 75.808594 41.605469 74.65625 43.144531 C 70.300781 48.792969 59.347656 63.878906 59.347656 63.878906 C 59.027344 63.300781 58.644531 62.722656 58.261719 62.144531 C 60.308594 59.0625 62.550781 55.726562 64.792969 52.582031 C 67.933594 48.089844 71.261719 43.722656 74.914062 39.617188 C 75.683594 38.71875 76.578125 37.820312 77.476562 37.046875 C 77.476562 37.046875 75.042969 38.652344 72.863281 38.460938 C 72.09375 38.394531 68.828125 38.332031 69.085938 34.03125 L 69.085938 25.6875 C 69.085938 25.6875 59.15625 31.015625 56.273438 16.703125 C 53.390625 31.015625 43.464844 25.75 43.464844 25.75 L 43.464844 34.09375 C 43.71875 38.394531 40.453125 38.460938 39.683594 38.523438 C 37.507812 38.71875 35.074219 37.113281 35.074219 37.113281 C 35.96875 37.882812 36.867188 38.78125 37.636719 39.679688 C 41.15625 43.789062 44.488281 48.152344 47.5 52.644531 C 49.742188 55.789062 51.984375 59.0625 54.03125 62.207031 C 53.648438 62.785156 53.328125 63.363281 52.945312 63.941406 C 52.945312 63.941406 41.992188 48.859375 37.636719 43.210938 C 36.480469 41.734375 35.199219 40.320312 33.792969 39.039062 C 31.484375 37.113281 27.640625 34.480469 23.605469 34.609375 L 12.71875 34.609375 C 12.71875 34.609375 13.230469 34.609375 16.304688 37.175781 C 19.378906 39.742188 23.734375 44.300781 27.960938 48.792969 C 34.046875 55.339844 40.644531 63.75 44.871094 69.332031 C 46.472656 71.449219 47.753906 73.121094 48.523438 74.210938 C 48.652344 74.402344 48.78125 74.53125 48.972656 74.597656 C 49.421875 74.917969 49.996094 74.789062 50.316406 74.402344 C 50.507812 74.148438 50.703125 73.890625 50.894531 73.570312 C 51.597656 72.414062 53.457031 69.460938 55.824219 65.738281 L 55.953125 65.480469 L 56.082031 65.738281 C 58.453125 69.460938 60.308594 72.414062 61.015625 73.570312 C 61.207031 73.824219 61.398438 74.148438 61.589844 74.402344 C 61.910156 74.789062 62.488281 74.917969 62.9375 74.597656 C 63.128906 74.46875 63.257812 74.339844 63.382812 74.148438 C 64.152344 73.121094 65.433594 71.386719 67.035156 69.269531 C 71.261719 63.683594 77.925781 55.277344 84.203125 48.664062 C 88.429688 44.171875 92.847656 39.550781 95.859375 37.046875 C 98.871094 34.546875 99.511719 34.480469 99.511719 34.480469 Z M 42.757812 40.898438 C 43.910156 40.707031 45.191406 39.550781 45.769531 38.269531 C 46.347656 37.113281 46.347656 35.378906 46.410156 33.96875 C 46.472656 33.195312 46.410156 29.347656 46.410156 29.347656 C 52.046875 30.820312 54.863281 26.074219 56.082031 23.890625 C 57.300781 26.074219 60.117188 30.820312 65.753906 29.347656 C 65.753906 29.347656 65.691406 33.195312 65.753906 33.96875 C 65.816406 35.445312 65.816406 37.113281 66.394531 38.269531 C 66.972656 39.550781 68.253906 40.707031 69.40625 40.898438 C 69.210938 41.089844 61.71875 50.398438 56.082031 58.742188 C 50.316406 50.335938 42.757812 40.898438 42.757812 40.898438 Z M 42.757812 40.898438 " fill-opacity="1" fill-rule="nonzero"/><path fill="#efe12c" d="M 56.082031 58.742188 C 61.71875 50.398438 69.277344 41.089844 69.40625 40.898438 C 68.316406 40.707031 67.035156 39.488281 66.394531 38.269531 C 65.816406 37.113281 65.816406 35.378906 65.753906 33.96875 C 65.691406 33.195312 65.753906 29.347656 65.753906 29.347656 C 60.117188 30.820312 57.300781 26.074219 56.082031 23.890625 C 54.863281 26.074219 52.046875 30.820312 46.410156 29.347656 C 46.410156 29.347656 46.472656 33.195312 46.410156 33.96875 C 46.347656 35.445312 46.347656 37.113281 45.769531 38.269531 C 45.191406 39.550781 43.910156 40.707031 42.757812 40.898438 C 42.757812 40.898438 50.316406 50.335938 56.082031 58.742188 Z M 46.792969 41.992188 C 46.792969 41.992188 47.371094 41.15625 47.628906 40.769531 C 50.0625 43.789062 52.304688 46.933594 54.289062 50.207031 L 53.902344 49.4375 C 52.496094 45.777344 50.894531 42.183594 49.101562 38.71875 L 50.1875 37.175781 C 51.984375 40.769531 53.457031 44.492188 54.738281 48.28125 L 54.992188 48.921875 L 54.800781 48.152344 C 52.496094 38.140625 51.46875 35.316406 51.46875 35.316406 L 51.535156 35.25 L 52.75 33.453125 L 55.503906 45.714844 C 55.503906 45.714844 55.570312 41.796875 55.183594 30.179688 C 55.441406 29.796875 55.953125 29.023438 56.144531 28.703125 C 56.273438 29.023438 56.851562 29.796875 57.105469 30.179688 C 56.722656 41.796875 56.785156 45.714844 56.785156 45.714844 L 59.539062 33.390625 L 60.757812 35.1875 L 60.820312 35.25 C 60.820312 35.25 59.796875 38.140625 57.492188 48.089844 L 57.300781 48.859375 L 57.554688 48.214844 C 58.835938 44.429688 60.308594 40.707031 62.101562 37.113281 L 63.191406 38.652344 C 61.398438 42.183594 59.734375 45.777344 58.324219 49.4375 L 58.003906 50.207031 C 60.054688 46.933594 62.230469 43.789062 64.664062 40.769531 L 65.496094 41.925781 C 64.984375 42.566406 60.179688 48.539062 56.210938 54.378906 C 52.046875 48.539062 47.308594 42.632812 46.792969 41.992188 Z M 46.792969 41.992188 " fill-opacity="1" fill-rule="nonzero"/><g clip-path="url(#400f28fe0d)"><g clip-path="url(#9ea70e6d36)"><path fill="url(#a168ba78e6)" d="M 69.40625 23.890625 L 42.757812 23.890625 L 42.757812 58.742188 L 69.40625 58.742188 Z M 69.40625 23.890625 " fill-rule="nonzero"/></g></g><path fill="#ffffff" d="M 64.535156 40.769531 C 62.101562 43.789062 59.859375 46.933594 57.875 50.207031 L 58.195312 49.4375 C 59.605469 45.777344 61.269531 42.117188 63.0625 38.652344 L 61.976562 37.113281 C 60.179688 40.707031 58.707031 44.429688 57.425781 48.214844 L 57.171875 48.859375 L 57.363281 48.089844 C 59.667969 38.140625 60.695312 35.25 60.695312 35.25 L 60.628906 35.1875 L 59.414062 33.390625 L 56.660156 45.714844 C 56.660156 45.714844 56.660156 41.796875 56.980469 30.179688 C 56.722656 29.796875 56.210938 29.023438 56.019531 28.703125 C 55.890625 29.023438 55.3125 29.796875 55.058594 30.179688 C 55.441406 41.796875 55.378906 45.714844 55.378906 45.714844 L 52.625 33.453125 L 51.40625 35.25 L 51.34375 35.316406 C 51.34375 35.316406 52.367188 38.140625 54.671875 48.152344 L 54.863281 48.921875 L 54.609375 48.28125 C 53.328125 44.492188 51.855469 40.769531 50.0625 37.175781 L 48.972656 38.71875 C 50.765625 42.183594 52.367188 45.777344 53.777344 49.4375 L 54.097656 50.207031 C 52.109375 46.933594 49.867188 43.789062 47.433594 40.769531 C 47.179688 41.15625 46.601562 41.992188 46.601562 41.992188 C 47.113281 42.632812 51.917969 48.601562 55.890625 54.441406 C 59.859375 48.539062 64.664062 42.632812 65.175781 41.992188 Z M 64.535156 40.769531 " fill-opacity="1" fill-rule="nonzero"/></svg>