<svg xmlns="http://www.w3.org/2000/svg" xmlns:xlink="http://www.w3.org/1999/xlink" width="40" zoomAndPan="magnify" viewBox="0 0 30 30.000001" height="40" preserveAspectRatio="xMidYMid meet" version="1.0"><defs><clipPath id="6877778194"><path d="M 9.621094 9.136719 L 20.507812 9.136719 L 20.507812 20 L 9.621094 20 Z M 9.621094 9.136719 " clip-rule="nonzero"/></clipPath></defs><g clip-path="url(#6877778194)"><path fill="#ffffff" d="M 20.371094 13.519531 L 17.640625 13.519531 C 17.757812 13.828125 17.824219 14.164062 17.824219 14.511719 C 17.824219 16.074219 16.554688 17.339844 14.996094 17.339844 C 13.4375 17.339844 12.167969 16.074219 12.167969 14.511719 C 12.167969 14.164062 12.234375 13.828125 12.347656 13.519531 L 9.621094 13.519531 L 9.621094 18.257812 C 9.621094 19.15625 10.351562 19.890625 11.253906 19.890625 L 18.738281 19.890625 C 19.640625 19.890625 20.371094 19.15625 20.371094 18.257812 Z M 14.996094 12.242188 C 16.25 12.242188 17.265625 13.261719 17.265625 14.511719 C 17.265625 15.765625 16.25 16.78125 14.996094 16.78125 C 13.742188 16.78125 12.726562 15.765625 12.726562 14.511719 C 12.726562 13.261719 13.742188 12.242188 14.996094 12.242188 Z M 9.621094 12.960938 L 12.632812 12.960938 C 13.140625 12.191406 14.007812 11.6875 14.996094 11.6875 C 15.984375 11.6875 16.851562 12.191406 17.359375 12.960938 L 20.371094 12.960938 L 20.371094 10.769531 C 20.371094 9.867188 19.640625 9.136719 18.738281 9.136719 L 11.253906 9.136719 C 10.351562 9.136719 9.621094 9.867188 9.621094 10.769531 Z M 18.179688 10.691406 C 18.53125 10.691406 18.820312 10.976562 18.820312 11.328125 C 18.820312 11.679688 18.53125 11.964844 18.179688 11.964844 C 17.828125 11.964844 17.542969 11.679688 17.542969 11.328125 C 17.542969 10.976562 17.828125 10.691406 18.179688 10.691406 Z M 18.179688 10.691406 " fill-opacity="1" fill-rule="evenodd"/><path fill="#ffffff" d="M 20.371094 13.519531 L 17.640625 13.519531 C 17.757812 13.828125 17.824219 14.164062 17.824219 14.511719 C 17.824219 16.074219 16.554688 17.339844 14.996094 17.339844 C 13.4375 17.339844 12.167969 16.074219 12.167969 14.511719 C 12.167969 14.164062 12.234375 13.828125 12.347656 13.519531 L 9.621094 13.519531 L 9.621094 18.257812 C 9.621094 19.15625 10.351562 19.890625 11.253906 19.890625 L 18.738281 19.890625 C 19.640625 19.890625 20.371094 19.15625 20.371094 18.257812 Z M 14.996094 12.242188 C 16.25 12.242188 17.265625 13.261719 17.265625 14.511719 C 17.265625 15.765625 16.25 16.78125 14.996094 16.78125 C 13.742188 16.78125 12.726562 15.765625 12.726562 14.511719 C 12.726562 13.261719 13.742188 12.242188 14.996094 12.242188 Z M 9.621094 12.960938 L 12.632812 12.960938 C 13.140625 12.191406 14.007812 11.6875 14.996094 11.6875 C 15.984375 11.6875 16.851562 12.191406 17.359375 12.960938 L 20.371094 12.960938 L 20.371094 10.769531 C 20.371094 9.867188 19.640625 9.136719 18.738281 9.136719 L 11.253906 9.136719 C 10.351562 9.136719 9.621094 9.867188 9.621094 10.769531 Z M 18.179688 10.691406 C 18.53125 10.691406 18.820312 10.976562 18.820312 11.328125 C 18.820312 11.679688 18.53125 11.964844 18.179688 11.964844 C 17.828125 11.964844 17.542969 11.679688 17.542969 11.328125 C 17.542969 10.976562 17.828125 10.691406 18.179688 10.691406 Z M 18.179688 10.691406 " fill-opacity="1" fill-rule="evenodd"/></g></svg>