<svg xmlns="http://www.w3.org/2000/svg" xmlns:xlink="http://www.w3.org/1999/xlink" width="150" zoomAndPan="magnify" viewBox="0 0 112.5 112.499997" height="150" preserveAspectRatio="xMidYMid meet" version="1.0"><defs><clipPath id="1c61f1385c"><path d="M 0 0 L 112.003906 0 L 112.003906 112.003906 L 0 112.003906 Z M 0 0 " clip-rule="nonzero"/></clipPath><clipPath id="d01527d395"><path d="M 1.5 91 L 11 91 L 11 102 L 1.5 102 Z M 1.5 91 " clip-rule="nonzero"/></clipPath><clipPath id="bd921e0b7d"><path d="M 15 94 L 24 94 L 24 104.332031 L 15 104.332031 Z M 15 94 " clip-rule="nonzero"/></clipPath><clipPath id="2d6c9cb640"><path d="M 102 94 L 110.515625 94 L 110.515625 102 L 102 102 Z M 102 94 " clip-rule="nonzero"/></clipPath><clipPath id="54fd8aa0c6"><path d="M 1.5 8.011719 L 110.515625 8.011719 L 110.515625 83 L 1.5 83 Z M 1.5 8.011719 " clip-rule="nonzero"/></clipPath><clipPath id="4276bf0deb"><path d="M 41 24 L 71 24 L 71 62 L 41 62 Z M 41 24 " clip-rule="nonzero"/></clipPath><clipPath id="17c8f7fe94"><path d="M 56.109375 61.828125 C 62.160156 52.859375 70.273438 42.855469 70.410156 42.648438 C 69.242188 42.441406 67.867188 41.128906 67.179688 39.820312 C 66.558594 38.578125 66.558594 36.714844 66.492188 35.195312 C 66.421875 34.367188 66.492188 30.230469 66.492188 30.230469 C 60.441406 31.816406 57.414062 26.710938 56.109375 24.363281 C 54.804688 26.710938 51.777344 31.816406 45.726562 30.230469 C 45.726562 30.230469 45.796875 34.367188 45.726562 35.195312 C 45.660156 36.785156 45.660156 38.578125 45.039062 39.820312 C 44.421875 41.199219 43.046875 42.441406 41.808594 42.648438 C 41.808594 42.648438 49.921875 52.792969 56.109375 61.828125 Z M 46.140625 43.820312 C 46.140625 43.820312 46.757812 42.925781 47.035156 42.511719 C 49.644531 45.753906 52.050781 49.132812 54.183594 52.652344 L 53.773438 51.824219 C 52.257812 47.890625 50.539062 44.027344 48.613281 40.300781 L 49.785156 38.648438 C 51.707031 42.511719 53.289062 46.511719 54.664062 50.582031 L 54.941406 51.273438 L 54.734375 50.445312 C 52.257812 39.679688 51.160156 36.644531 51.160156 36.644531 L 51.226562 36.578125 L 52.535156 34.644531 L 55.492188 47.824219 C 55.492188 47.824219 55.558594 43.613281 55.148438 31.125 C 55.421875 30.710938 55.972656 29.882812 56.179688 29.539062 C 56.316406 29.882812 56.933594 30.710938 57.210938 31.125 C 56.796875 43.613281 56.867188 47.824219 56.867188 47.824219 L 59.820312 34.574219 L 61.128906 36.507812 L 61.195312 36.578125 C 61.195312 36.578125 60.097656 39.679688 57.621094 50.375 L 57.414062 51.203125 L 57.691406 50.515625 C 59.066406 46.445312 60.648438 42.441406 62.570312 38.578125 L 63.742188 40.234375 C 61.816406 44.027344 60.027344 47.890625 58.515625 51.824219 L 58.171875 52.652344 C 60.371094 49.132812 62.710938 45.753906 65.324219 42.511719 L 66.214844 43.753906 C 65.667969 44.441406 60.507812 50.859375 56.246094 57.136719 C 51.777344 50.859375 46.691406 44.511719 46.140625 43.820312 Z M 46.140625 43.820312 " clip-rule="nonzero"/></clipPath><linearGradient x1="-594.359814" gradientTransform="matrix(0, 24.108073, -30.321009, 0, 9203.824369, 14353.233865)" y1="301.69601" x2="-592.805722" gradientUnits="userSpaceOnUse" y2="301.69601" id="bd70cc13e2"><stop stop-opacity="1" stop-color="rgb(93.699646%, 88.198853%, 16.899109%)" offset="0"/><stop stop-opacity="1" stop-color="rgb(93.699646%, 88.198853%, 16.899109%)" offset="0.125"/><stop stop-opacity="1" stop-color="rgb(93.699646%, 88.198853%, 16.899109%)" offset="0.1875"/><stop stop-opacity="1" stop-color="rgb(93.699646%, 88.198853%, 16.899109%)" offset="0.203125"/><stop stop-opacity="1" stop-color="rgb(93.440247%, 88.140869%, 17.024231%)" offset="0.207031"/><stop stop-opacity="1" stop-color="rgb(93.182373%, 88.082886%, 17.149353%)" offset="0.210938"/><stop stop-opacity="1" stop-color="rgb(92.868042%, 88.011169%, 17.300415%)" offset="0.214844"/><stop stop-opacity="1" stop-color="rgb(92.555237%, 87.940979%, 17.453003%)" offset="0.21875"/><stop stop-opacity="1" stop-color="rgb(92.240906%, 87.869263%, 17.604065%)" offset="0.222656"/><stop stop-opacity="1" stop-color="rgb(91.928101%, 87.799072%, 17.756653%)" offset="0.226562"/><stop stop-opacity="1" stop-color="rgb(91.61377%, 87.727356%, 17.907715%)" offset="0.230469"/><stop stop-opacity="1" stop-color="rgb(91.300964%, 87.657166%, 18.060303%)" offset="0.234375"/><stop stop-opacity="1" stop-color="rgb(90.986633%, 87.586975%, 18.211365%)" offset="0.238281"/><stop stop-opacity="1" stop-color="rgb(90.673828%, 87.516785%, 18.362427%)" offset="0.242188"/><stop stop-opacity="1" stop-color="rgb(90.155029%, 87.358093%, 18.59436%)" offset="0.246094"/><stop stop-opacity="1" stop-color="rgb(89.63623%, 87.199402%, 18.82782%)" offset="0.25"/><stop stop-opacity="1" stop-color="rgb(89.089966%, 87.028503%, 19.070435%)" offset="0.253906"/><stop stop-opacity="1" stop-color="rgb(88.543701%, 86.859131%, 19.313049%)" offset="0.257812"/><stop stop-opacity="1" stop-color="rgb(87.997437%, 86.689758%, 19.555664%)" offset="0.261719"/><stop stop-opacity="1" stop-color="rgb(87.451172%, 86.520386%, 19.798279%)" offset="0.265625"/><stop stop-opacity="1" stop-color="rgb(86.904907%, 86.349487%, 20.040894%)" offset="0.269531"/><stop stop-opacity="1" stop-color="rgb(86.358643%, 86.180115%, 20.283508%)" offset="0.273438"/><stop stop-opacity="1" stop-color="rgb(85.812378%, 86.009216%, 20.526123%)" offset="0.277344"/><stop stop-opacity="1" stop-color="rgb(85.266113%, 85.839844%, 20.770264%)" offset="0.28125"/><stop stop-opacity="1" stop-color="rgb(84.718323%, 85.668945%, 21.012878%)" offset="0.285156"/><stop stop-opacity="1" stop-color="rgb(84.172058%, 85.499573%, 21.255493%)" offset="0.289062"/><stop stop-opacity="1" stop-color="rgb(83.625793%, 85.328674%, 21.498108%)" offset="0.292969"/><stop stop-opacity="1" stop-color="rgb(83.079529%, 85.159302%, 21.740723%)" offset="0.296875"/><stop stop-opacity="1" stop-color="rgb(82.533264%, 84.989929%, 21.983337%)" offset="0.300781"/><stop stop-opacity="1" stop-color="rgb(81.987%, 84.820557%, 22.227478%)" offset="0.304688"/><stop stop-opacity="1" stop-color="rgb(81.369019%, 84.632874%, 22.488403%)" offset="0.308594"/><stop stop-opacity="1" stop-color="rgb(80.751038%, 84.44519%, 22.750854%)" offset="0.3125"/><stop stop-opacity="1" stop-color="rgb(80.093384%, 84.246826%, 23.023987%)" offset="0.316406"/><stop stop-opacity="1" stop-color="rgb(79.43573%, 84.049988%, 23.298645%)" offset="0.320312"/><stop stop-opacity="1" stop-color="rgb(78.778076%, 83.853149%, 23.571777%)" offset="0.324219"/><stop stop-opacity="1" stop-color="rgb(78.120422%, 83.656311%, 23.84491%)" offset="0.328125"/><stop stop-opacity="1" stop-color="rgb(77.462769%, 83.457947%, 24.118042%)" offset="0.332031"/><stop stop-opacity="1" stop-color="rgb(76.805115%, 83.261108%, 24.391174%)" offset="0.335938"/><stop stop-opacity="1" stop-color="rgb(76.147461%, 83.062744%, 24.664307%)" offset="0.339844"/><stop stop-opacity="1" stop-color="rgb(75.489807%, 82.865906%, 24.937439%)" offset="0.34375"/><stop stop-opacity="1" stop-color="rgb(74.832153%, 82.669067%, 25.210571%)" offset="0.347656"/><stop stop-opacity="1" stop-color="rgb(74.1745%, 82.472229%, 25.483704%)" offset="0.351562"/><stop stop-opacity="1" stop-color="rgb(73.516846%, 82.273865%, 25.756836%)" offset="0.355469"/><stop stop-opacity="1" stop-color="rgb(72.859192%, 82.077026%, 26.029968%)" offset="0.359375"/><stop stop-opacity="1" stop-color="rgb(72.201538%, 81.880188%, 26.303101%)" offset="0.363281"/><stop stop-opacity="1" stop-color="rgb(71.543884%, 81.68335%, 26.576233%)" offset="0.367188"/><stop stop-opacity="1" stop-color="rgb(70.88623%, 81.484985%, 26.849365%)" offset="0.371094"/><stop stop-opacity="1" stop-color="rgb(70.228577%, 81.288147%, 27.122498%)" offset="0.375"/><stop stop-opacity="1" stop-color="rgb(69.570923%, 81.089783%, 27.39563%)" offset="0.378906"/><stop stop-opacity="1" stop-color="rgb(68.913269%, 80.892944%, 27.668762%)" offset="0.382812"/><stop stop-opacity="1" stop-color="rgb(68.377686%, 80.752563%, 27.810669%)" offset="0.386719"/><stop stop-opacity="1" stop-color="rgb(67.843628%, 80.613708%, 27.952576%)" offset="0.390625"/><stop stop-opacity="1" stop-color="rgb(67.347717%, 80.491638%, 28.053284%)" offset="0.394531"/><stop stop-opacity="1" stop-color="rgb(66.853333%, 80.371094%, 28.155518%)" offset="0.398438"/><stop stop-opacity="1" stop-color="rgb(66.357422%, 80.249023%, 28.256226%)" offset="0.402344"/><stop stop-opacity="1" stop-color="rgb(65.861511%, 80.128479%, 28.358459%)" offset="0.40625"/><stop stop-opacity="1" stop-color="rgb(65.365601%, 80.006409%, 28.459167%)" offset="0.410156"/><stop stop-opacity="1" stop-color="rgb(64.86969%, 79.885864%, 28.559875%)" offset="0.414062"/><stop stop-opacity="1" stop-color="rgb(64.373779%, 79.763794%, 28.660583%)" offset="0.417969"/><stop stop-opacity="1" stop-color="rgb(63.877869%, 79.64325%, 28.762817%)" offset="0.421875"/><stop stop-opacity="1" stop-color="rgb(63.381958%, 79.521179%, 28.863525%)" offset="0.425781"/><stop stop-opacity="1" stop-color="rgb(62.886047%, 79.400635%, 28.965759%)" offset="0.429688"/><stop stop-opacity="1" stop-color="rgb(62.390137%, 79.278564%, 29.066467%)" offset="0.433594"/><stop stop-opacity="1" stop-color="rgb(61.895752%, 79.15802%, 29.167175%)" offset="0.4375"/><stop stop-opacity="1" stop-color="rgb(61.399841%, 79.03595%, 29.267883%)" offset="0.441406"/><stop stop-opacity="1" stop-color="rgb(60.903931%, 78.913879%, 29.370117%)" offset="0.445312"/><stop stop-opacity="1" stop-color="rgb(60.40802%, 78.791809%, 29.470825%)" offset="0.449219"/><stop stop-opacity="1" stop-color="rgb(59.912109%, 78.671265%, 29.571533%)" offset="0.453125"/><stop stop-opacity="1" stop-color="rgb(59.416199%, 78.549194%, 29.672241%)" offset="0.457031"/><stop stop-opacity="1" stop-color="rgb(58.920288%, 78.42865%, 29.774475%)" offset="0.460938"/><stop stop-opacity="1" stop-color="rgb(58.352661%, 78.28064%, 29.904175%)" offset="0.464844"/><stop stop-opacity="1" stop-color="rgb(57.78656%, 78.132629%, 30.0354%)" offset="0.46875"/><stop stop-opacity="1" stop-color="rgb(57.209778%, 77.980042%, 30.169678%)" offset="0.472656"/><stop stop-opacity="1" stop-color="rgb(56.632996%, 77.828979%, 30.303955%)" offset="0.476562"/><stop stop-opacity="1" stop-color="rgb(56.056213%, 77.676392%, 30.438232%)" offset="0.480469"/><stop stop-opacity="1" stop-color="rgb(55.479431%, 77.52533%, 30.57251%)" offset="0.484375"/><stop stop-opacity="1" stop-color="rgb(54.902649%, 77.372742%, 30.706787%)" offset="0.488281"/><stop stop-opacity="1" stop-color="rgb(54.325867%, 77.22168%, 30.841064%)" offset="0.492188"/><stop stop-opacity="1" stop-color="rgb(53.749084%, 77.069092%, 30.975342%)" offset="0.496094"/><stop stop-opacity="1" stop-color="rgb(53.173828%, 76.91803%, 31.111145%)" offset="0.5"/><stop stop-opacity="1" stop-color="rgb(52.597046%, 76.766968%, 31.245422%)" offset="0.503906"/><stop stop-opacity="1" stop-color="rgb(52.020264%, 76.615906%, 31.3797%)" offset="0.507812"/><stop stop-opacity="1" stop-color="rgb(51.443481%, 76.463318%, 31.513977%)" offset="0.511719"/><stop stop-opacity="1" stop-color="rgb(50.866699%, 76.312256%, 31.648254%)" offset="0.515625"/><stop stop-opacity="1" stop-color="rgb(50.289917%, 76.159668%, 31.782532%)" offset="0.519531"/><stop stop-opacity="1" stop-color="rgb(49.713135%, 76.008606%, 31.916809%)" offset="0.523438"/><stop stop-opacity="1" stop-color="rgb(49.136353%, 75.856018%, 32.051086%)" offset="0.527344"/><stop stop-opacity="1" stop-color="rgb(48.55957%, 75.704956%, 32.185364%)" offset="0.53125"/><stop stop-opacity="1" stop-color="rgb(47.982788%, 75.552368%, 32.319641%)" offset="0.535156"/><stop stop-opacity="1" stop-color="rgb(47.406006%, 75.401306%, 32.455444%)" offset="0.539062"/><stop stop-opacity="1" stop-color="rgb(46.829224%, 75.248718%, 32.589722%)" offset="0.542969"/><stop stop-opacity="1" stop-color="rgb(46.252441%, 75.097656%, 32.723999%)" offset="0.546875"/><stop stop-opacity="1" stop-color="rgb(45.602417%, 74.914551%, 32.810974%)" offset="0.550781"/><stop stop-opacity="1" stop-color="rgb(44.952393%, 74.731445%, 32.899475%)" offset="0.554688"/><stop stop-opacity="1" stop-color="rgb(44.161987%, 74.487305%, 32.899475%)" offset="0.558594"/><stop stop-opacity="1" stop-color="rgb(43.373108%, 74.24469%, 32.899475%)" offset="0.5625"/><stop stop-opacity="1" stop-color="rgb(42.584229%, 74.002075%, 32.899475%)" offset="0.566406"/><stop stop-opacity="1" stop-color="rgb(41.795349%, 73.75946%, 32.899475%)" offset="0.570312"/><stop stop-opacity="1" stop-color="rgb(41.165161%, 73.597717%, 32.879639%)" offset="0.574219"/><stop stop-opacity="1" stop-color="rgb(40.534973%, 73.4375%, 32.859802%)" offset="0.578125"/><stop stop-opacity="1" stop-color="rgb(39.927673%, 73.287964%, 32.83844%)" offset="0.582031"/><stop stop-opacity="1" stop-color="rgb(39.321899%, 73.139954%, 32.817078%)" offset="0.585938"/><stop stop-opacity="1" stop-color="rgb(38.7146%, 72.990417%, 32.794189%)" offset="0.589844"/><stop stop-opacity="1" stop-color="rgb(38.1073%, 72.842407%, 32.772827%)" offset="0.59375"/><stop stop-opacity="1" stop-color="rgb(37.5%, 72.692871%, 32.749939%)" offset="0.597656"/><stop stop-opacity="1" stop-color="rgb(36.8927%, 72.544861%, 32.728577%)" offset="0.601562"/><stop stop-opacity="1" stop-color="rgb(36.2854%, 72.395325%, 32.705688%)" offset="0.605469"/><stop stop-opacity="1" stop-color="rgb(35.679626%, 72.245789%, 32.684326%)" offset="0.609375"/><stop stop-opacity="1" stop-color="rgb(35.072327%, 72.096252%, 32.661438%)" offset="0.613281"/><stop stop-opacity="1" stop-color="rgb(34.465027%, 71.948242%, 32.640076%)" offset="0.617188"/><stop stop-opacity="1" stop-color="rgb(33.857727%, 71.798706%, 32.617188%)" offset="0.621094"/><stop stop-opacity="1" stop-color="rgb(33.250427%, 71.650696%, 32.595825%)" offset="0.625"/><stop stop-opacity="1" stop-color="rgb(32.643127%, 71.50116%, 32.572937%)" offset="0.628906"/><stop stop-opacity="1" stop-color="rgb(32.037354%, 71.351624%, 32.551575%)" offset="0.632812"/><stop stop-opacity="1" stop-color="rgb(31.430054%, 71.202087%, 32.528687%)" offset="0.636719"/><stop stop-opacity="1" stop-color="rgb(30.822754%, 71.054077%, 32.507324%)" offset="0.640625"/><stop stop-opacity="1" stop-color="rgb(30.340576%, 70.918274%, 32.489014%)" offset="0.644531"/><stop stop-opacity="1" stop-color="rgb(29.859924%, 70.782471%, 32.472229%)" offset="0.648438"/><stop stop-opacity="1" stop-color="rgb(29.406738%, 70.649719%, 32.455444%)" offset="0.652344"/><stop stop-opacity="1" stop-color="rgb(28.955078%, 70.518494%, 32.43866%)" offset="0.65625"/><stop stop-opacity="1" stop-color="rgb(28.501892%, 70.385742%, 32.421875%)" offset="0.660156"/><stop stop-opacity="1" stop-color="rgb(28.050232%, 70.252991%, 32.406616%)" offset="0.664062"/><stop stop-opacity="1" stop-color="rgb(27.597046%, 70.120239%, 32.389832%)" offset="0.667969"/><stop stop-opacity="1" stop-color="rgb(27.145386%, 69.989014%, 32.373047%)" offset="0.671875"/><stop stop-opacity="1" stop-color="rgb(26.6922%, 69.856262%, 32.356262%)" offset="0.675781"/><stop stop-opacity="1" stop-color="rgb(26.24054%, 69.723511%, 32.339478%)" offset="0.679688"/><stop stop-opacity="1" stop-color="rgb(25.787354%, 69.590759%, 32.322693%)" offset="0.683594"/><stop stop-opacity="1" stop-color="rgb(25.335693%, 69.458008%, 32.305908%)" offset="0.6875"/><stop stop-opacity="1" stop-color="rgb(24.882507%, 69.325256%, 32.289124%)" offset="0.691406"/><stop stop-opacity="1" stop-color="rgb(24.430847%, 69.194031%, 32.273865%)" offset="0.695312"/><stop stop-opacity="1" stop-color="rgb(23.977661%, 69.061279%, 32.25708%)" offset="0.699219"/><stop stop-opacity="1" stop-color="rgb(23.524475%, 68.928528%, 32.240295%)" offset="0.703125"/><stop stop-opacity="1" stop-color="rgb(23.071289%, 68.795776%, 32.223511%)" offset="0.707031"/><stop stop-opacity="1" stop-color="rgb(22.619629%, 68.664551%, 32.206726%)" offset="0.710938"/><stop stop-opacity="1" stop-color="rgb(22.30835%, 68.585205%, 32.202148%)" offset="0.714844"/><stop stop-opacity="1" stop-color="rgb(21.998596%, 68.507385%, 32.199097%)" offset="0.71875"/><stop stop-opacity="1" stop-color="rgb(21.733093%, 68.44635%, 32.199097%)" offset="0.722656"/><stop stop-opacity="1" stop-color="rgb(21.469116%, 68.385315%, 32.199097%)" offset="0.726562"/><stop stop-opacity="1" stop-color="rgb(21.203613%, 68.32428%, 32.199097%)" offset="0.730469"/><stop stop-opacity="1" stop-color="rgb(20.939636%, 68.264771%, 32.199097%)" offset="0.734375"/><stop stop-opacity="1" stop-color="rgb(20.674133%, 68.203735%, 32.199097%)" offset="0.738281"/><stop stop-opacity="1" stop-color="rgb(20.40863%, 68.1427%, 32.199097%)" offset="0.742188"/><stop stop-opacity="1" stop-color="rgb(20.143127%, 68.081665%, 32.199097%)" offset="0.746094"/><stop stop-opacity="1" stop-color="rgb(19.87915%, 68.022156%, 32.199097%)" offset="0.75"/><stop stop-opacity="1" stop-color="rgb(19.613647%, 67.961121%, 32.199097%)" offset="0.753906"/><stop stop-opacity="1" stop-color="rgb(19.34967%, 67.900085%, 32.199097%)" offset="0.757812"/><stop stop-opacity="1" stop-color="rgb(19.084167%, 67.83905%, 32.199097%)" offset="0.761719"/><stop stop-opacity="1" stop-color="rgb(18.82019%, 67.779541%, 32.199097%)" offset="0.765625"/><stop stop-opacity="1" stop-color="rgb(18.554688%, 67.718506%, 32.199097%)" offset="0.769531"/><stop stop-opacity="1" stop-color="rgb(18.29071%, 67.657471%, 32.199097%)" offset="0.773438"/><stop stop-opacity="1" stop-color="rgb(18.025208%, 67.596436%, 32.199097%)" offset="0.777344"/><stop stop-opacity="1" stop-color="rgb(17.759705%, 67.5354%, 32.199097%)" offset="0.78125"/><stop stop-opacity="1" stop-color="rgb(17.616272%, 67.500305%, 32.199097%)" offset="0.789062"/><stop stop-opacity="1" stop-color="rgb(17.381287%, 67.440796%, 32.199097%)" offset="0.796875"/><stop stop-opacity="1" stop-color="rgb(17.108154%, 67.367554%, 32.199097%)" offset="0.8125"/><stop stop-opacity="1" stop-color="rgb(16.743469%, 67.271423%, 32.199097%)" offset="0.828125"/><stop stop-opacity="1" stop-color="rgb(16.378784%, 67.173767%, 32.199097%)" offset="0.84375"/><stop stop-opacity="1" stop-color="rgb(16.148376%, 67.111206%, 32.199097%)" offset="0.875"/><stop stop-opacity="1" stop-color="rgb(16.099548%, 67.098999%, 32.199097%)" offset="1"/></linearGradient></defs><g clip-path="url(#1c61f1385c)"><path fill="#ffffff" d="M 0 0 L 112.003906 0 L 112.003906 112.003906 L 0 112.003906 Z M 0 0 " fill-opacity="1" fill-rule="nonzero"/><path fill="#ffffff" d="M 0 0 L 112.003906 0 L 112.003906 112.003906 L 0 112.003906 Z M 0 0 " fill-opacity="1" fill-rule="nonzero"/></g><g clip-path="url(#d01527d395)"><path fill="#000000" d="M 7.84375 99.089844 L 5.847656 96.535156 C 7.019531 96.328125 7.980469 95.292969 8.050781 94.121094 C 8.050781 92.878906 7.019531 91.914062 5.160156 91.914062 L 1.863281 91.914062 L 1.863281 91.980469 C 2.550781 92.257812 2.480469 93.292969 2.480469 93.914062 L 2.480469 99.160156 C 2.480469 99.777344 2.550781 100.8125 1.863281 101.089844 L 1.863281 101.160156 L 4.472656 101.160156 L 4.472656 101.089844 C 3.785156 100.8125 3.855469 99.847656 3.855469 99.160156 L 3.855469 92.949219 C 4.199219 92.878906 4.472656 92.878906 4.816406 92.808594 L 5.023438 92.808594 C 5.917969 92.808594 6.605469 93.5 6.675781 94.398438 C 6.675781 95.707031 5.367188 96.191406 4.269531 96.398438 L 5.574219 98.332031 L 7.292969 100.398438 C 7.707031 100.882812 8.253906 101.160156 8.875 101.089844 L 10.179688 101.089844 C 9.21875 100.539062 8.460938 99.847656 7.84375 99.089844 Z M 7.84375 99.089844 " fill-opacity="1" fill-rule="nonzero"/></g><path fill="#000000" d="M 15.679688 99.570312 C 14.992188 100.054688 14.238281 100.332031 13.414062 100.332031 L 13.207031 100.332031 C 11.761719 100.261719 10.660156 99.089844 10.660156 97.640625 L 15.679688 97.640625 C 15.679688 97.503906 15.679688 97.433594 15.679688 97.296875 C 15.613281 95.640625 14.167969 94.398438 12.585938 94.464844 L 12.382812 94.464844 C 10.59375 94.535156 9.148438 95.984375 9.21875 97.777344 C 9.21875 99.710938 10.867188 101.226562 13.207031 101.226562 C 13.894531 101.226562 14.511719 101.089844 15.132812 100.882812 Z M 12.519531 95.363281 C 13.414062 95.292969 14.167969 95.914062 14.238281 96.8125 L 10.730469 96.8125 C 10.867188 95.914062 11.625 95.292969 12.519531 95.363281 Z M 12.519531 95.363281 " fill-opacity="1" fill-rule="nonzero"/><g clip-path="url(#bd921e0b7d)"><path fill="#000000" d="M 23.039062 95.085938 L 23.382812 94.398438 L 19.1875 94.464844 C 17.742188 94.464844 16.230469 95.226562 16.230469 96.8125 C 16.300781 97.847656 17.054688 98.746094 18.085938 98.953125 C 17.8125 99.089844 16.988281 99.296875 16.988281 99.710938 C 16.988281 100.261719 17.46875 100.675781 18.019531 100.675781 L 18.980469 100.675781 C 19.804688 100.675781 21.800781 100.8125 21.800781 101.988281 C 21.800781 103.160156 20.289062 103.4375 19.324219 103.4375 C 18.429688 103.4375 17.054688 103.230469 17.054688 102.054688 C 17.054688 101.710938 17.261719 101.433594 17.605469 101.433594 C 17.332031 101.296875 17.054688 101.226562 16.851562 101.226562 C 16.164062 101.226562 15.542969 101.574219 15.542969 102.332031 C 15.542969 103.503906 17.195312 104.332031 19.394531 104.332031 C 21.59375 104.332031 23.3125 103.4375 23.3125 101.917969 C 23.3125 100.539062 22.007812 99.847656 19.601562 99.847656 C 19.460938 99.847656 18.773438 99.847656 18.773438 99.570312 C 18.773438 99.296875 19.117188 99.226562 19.324219 99.226562 C 20.5625 99.089844 22.28125 98.605469 22.28125 97.019531 C 22.28125 96.328125 21.9375 95.640625 21.320312 95.292969 C 21.800781 95.363281 22.28125 95.433594 22.761719 95.5 C 22.902344 95.433594 22.96875 95.363281 23.039062 95.085938 Z M 20.769531 96.949219 C 20.699219 97.710938 20.082031 98.332031 19.324219 98.261719 C 18.429688 98.261719 17.675781 97.503906 17.605469 96.605469 L 17.605469 96.46875 C 17.675781 95.777344 18.292969 95.292969 18.980469 95.363281 L 19.050781 95.363281 C 19.945312 95.363281 20.699219 96.054688 20.699219 96.882812 L 20.699219 96.949219 Z M 20.769531 96.949219 " fill-opacity="1" fill-rule="nonzero"/></g><path fill="#000000" d="M 25.855469 92.949219 C 25.855469 92.464844 25.511719 92.121094 25.03125 92.121094 C 24.550781 92.121094 24.136719 92.464844 24.136719 92.949219 C 24.136719 93.429688 24.550781 93.84375 25.03125 93.84375 C 25.511719 93.777344 25.855469 93.363281 25.855469 92.949219 Z M 25.855469 92.949219 " fill-opacity="1" fill-rule="nonzero"/><path fill="#000000" d="M 25.71875 99.503906 L 25.71875 94.398438 L 25.652344 94.398438 C 25.375 94.605469 25.101562 94.671875 24.757812 94.605469 L 23.933594 94.605469 L 23.933594 94.671875 C 24.550781 95.019531 24.480469 95.5 24.480469 96.191406 L 24.480469 99.503906 C 24.480469 100.125 24.550781 100.675781 23.933594 101.019531 L 23.933594 101.089844 L 26.269531 101.089844 L 26.269531 101.019531 C 25.652344 100.675781 25.71875 100.125 25.71875 99.503906 Z M 25.71875 99.503906 " fill-opacity="1" fill-rule="nonzero"/><path fill="#000000" d="M 30.257812 94.464844 L 29.980469 94.464844 C 28.058594 94.464844 26.542969 95.984375 26.542969 97.917969 L 26.542969 97.984375 C 26.613281 99.847656 28.195312 101.296875 30.050781 101.226562 L 30.121094 101.226562 C 32.042969 101.226562 33.625 99.710938 33.695312 97.777344 L 33.695312 97.710938 C 33.625 95.847656 32.042969 94.398438 30.257812 94.464844 Z M 32.320312 98.054688 L 32.320312 98.191406 C 32.320312 99.363281 31.355469 100.332031 30.1875 100.332031 C 28.746094 100.332031 27.988281 98.953125 27.988281 97.640625 L 27.988281 97.503906 C 27.988281 96.328125 28.949219 95.363281 30.121094 95.363281 C 31.632812 95.363281 32.320312 96.675781 32.320312 98.054688 Z M 32.320312 98.054688 " fill-opacity="1" fill-rule="nonzero"/><path fill="#000000" d="M 40.089844 99.503906 L 40.089844 97.503906 C 40.15625 96.8125 40.019531 96.054688 39.746094 95.433594 C 39.265625 94.8125 38.4375 94.464844 37.613281 94.464844 C 36.789062 94.464844 36.101562 94.878906 35.621094 95.5 L 35.621094 94.464844 L 35.550781 94.464844 C 35.277344 94.605469 34.933594 94.671875 34.589844 94.671875 L 33.765625 94.671875 L 33.765625 94.742188 C 34.382812 95.085938 34.3125 95.570312 34.3125 96.261719 L 34.3125 99.570312 C 34.3125 100.191406 34.382812 100.746094 33.765625 101.089844 L 33.765625 101.160156 L 36.101562 101.160156 L 36.101562 101.089844 C 35.484375 100.746094 35.550781 100.261719 35.550781 99.570312 L 35.550781 97.019531 C 35.550781 96.191406 35.757812 95.363281 36.996094 95.363281 C 38.234375 95.363281 38.644531 96.121094 38.644531 97.640625 L 38.644531 99.503906 C 38.644531 100.125 38.714844 100.675781 38.09375 101.019531 L 38.09375 101.089844 L 40.433594 101.089844 L 40.433594 101.019531 C 40.019531 100.675781 40.089844 100.125 40.089844 99.503906 Z M 40.089844 99.503906 " fill-opacity="1" fill-rule="nonzero"/><path fill="#000000" d="M 47.238281 94.464844 L 46.964844 94.464844 C 45.039062 94.464844 43.527344 95.984375 43.527344 97.917969 L 43.527344 97.984375 C 43.597656 99.847656 45.175781 101.296875 47.035156 101.226562 L 47.101562 101.226562 C 49.027344 101.226562 50.609375 99.710938 50.675781 97.777344 L 50.675781 97.710938 C 50.609375 95.847656 49.097656 94.398438 47.238281 94.464844 Z M 49.300781 98.054688 L 49.300781 98.191406 C 49.300781 99.363281 48.339844 100.332031 47.171875 100.332031 C 45.726562 100.332031 44.972656 98.953125 44.972656 97.640625 L 44.972656 97.503906 C 44.972656 96.328125 45.933594 95.363281 47.101562 95.363281 C 48.613281 95.363281 49.300781 96.675781 49.300781 98.054688 Z M 49.300781 98.054688 " fill-opacity="1" fill-rule="nonzero"/><path fill="#000000" d="M 54.183594 92.464844 C 54.460938 92.464844 54.664062 92.535156 54.871094 92.671875 L 55.835938 91.570312 L 54.871094 91.5 C 53.976562 91.429688 53.082031 91.777344 52.394531 92.394531 C 51.984375 92.878906 51.777344 93.570312 51.847656 94.257812 L 51.847656 94.605469 L 51.160156 95.5 L 51.847656 95.5 L 51.847656 99.433594 C 51.847656 100.054688 51.914062 100.605469 51.296875 100.953125 L 51.296875 101.019531 L 53.773438 101.019531 L 53.773438 100.953125 C 53.082031 100.605469 53.152344 99.640625 53.152344 98.953125 L 53.152344 95.433594 L 54.527344 95.433594 C 54.734375 95.433594 54.941406 95.5 55.078125 95.640625 L 55.148438 95.640625 L 55.148438 94.398438 L 55.078125 94.398438 L 54.871094 94.464844 L 53.289062 94.464844 L 53.289062 93.570312 C 53.222656 92.878906 53.359375 92.464844 54.183594 92.464844 Z M 54.183594 92.464844 " fill-opacity="1" fill-rule="nonzero"/><path fill="#000000" d="M 69.242188 91.84375 C 70.273438 92.257812 69.859375 93.363281 69.585938 94.191406 L 68.003906 99.226562 L 66.078125 93.222656 C 65.871094 92.808594 65.804688 92.328125 65.871094 91.84375 L 63.945312 91.84375 L 63.945312 91.914062 C 64.703125 92.328125 64.429688 93.222656 64.152344 94.050781 L 62.503906 99.363281 L 60.441406 92.878906 C 60.304688 92.535156 60.234375 92.1875 60.304688 91.84375 L 58.242188 91.84375 L 58.242188 91.914062 C 58.929688 92.394531 59.132812 93.292969 59.410156 94.050781 L 61.058594 99.226562 C 61.539062 100.675781 61.679688 100.539062 62.914062 101.503906 L 65.117188 94.464844 L 66.628906 99.296875 C 67.109375 100.746094 67.179688 100.675781 68.484375 101.503906 L 71.441406 91.914062 Z M 69.242188 91.84375 " fill-opacity="1" fill-rule="nonzero"/><path fill="#000000" d="M 75.703125 98.605469 L 75.703125 96.535156 C 75.703125 94.878906 74.535156 94.398438 73.023438 94.398438 L 72.128906 94.464844 L 71.167969 95.847656 C 71.714844 95.5 72.402344 95.292969 73.023438 95.292969 C 73.574219 95.292969 74.328125 95.5 74.328125 96.191406 C 74.328125 97.710938 70.203125 96.535156 70.203125 99.089844 L 70.203125 99.160156 C 70.339844 100.332031 71.371094 101.226562 72.542969 101.160156 C 72.746094 101.160156 73.023438 101.160156 73.230469 101.089844 L 74.054688 100.054688 C 73.710938 100.191406 73.367188 100.261719 73.023438 100.261719 C 72.265625 100.261719 71.511719 99.984375 71.511719 99.089844 C 71.511719 98.261719 72.265625 98.054688 72.953125 97.917969 C 73.433594 97.847656 73.847656 97.710938 74.261719 97.503906 L 74.261719 99.710938 C 74.261719 100.8125 75.15625 101.089844 76.117188 101.160156 L 76.734375 100.261719 C 75.703125 100.125 75.703125 99.710938 75.703125 98.605469 Z M 75.703125 98.605469 " fill-opacity="1" fill-rule="nonzero"/><path fill="#000000" d="M 80.242188 94.605469 L 78.9375 94.605469 L 78.9375 92.535156 L 78.386719 92.535156 C 78.386719 93.84375 78.042969 94.8125 76.734375 95.019531 L 76.734375 95.5 L 77.699219 95.5 L 77.699219 98.398438 C 77.699219 98.953125 77.492188 101.160156 79.625 101.160156 C 79.761719 101.160156 79.898438 101.160156 80.035156 101.089844 L 80.792969 100.125 C 80.585938 100.191406 80.449219 100.261719 80.242188 100.261719 C 78.730469 100.261719 78.9375 98.8125 78.9375 98.332031 L 78.9375 95.570312 L 79.761719 95.570312 C 80.105469 95.570312 80.515625 95.570312 80.792969 95.847656 L 80.859375 95.847656 L 80.859375 94.605469 L 80.792969 94.605469 C 80.585938 94.605469 80.378906 94.671875 80.242188 94.605469 Z M 80.242188 94.605469 " fill-opacity="1" fill-rule="nonzero"/><path fill="#000000" d="M 85.191406 100.332031 L 84.984375 100.332031 C 83.542969 100.261719 82.441406 99.089844 82.441406 97.640625 L 87.460938 97.640625 C 87.460938 97.503906 87.460938 97.433594 87.460938 97.296875 C 87.394531 95.640625 85.949219 94.398438 84.367188 94.464844 L 84.09375 94.464844 C 82.304688 94.535156 80.859375 95.984375 80.929688 97.777344 C 80.929688 99.710938 82.578125 101.226562 84.917969 101.226562 C 85.605469 101.226562 86.222656 101.089844 86.84375 100.882812 L 87.53125 99.570312 L 87.460938 99.570312 C 86.84375 100.054688 86.019531 100.332031 85.191406 100.332031 Z M 84.296875 95.363281 C 85.191406 95.292969 86.019531 95.914062 86.085938 96.8125 L 82.511719 96.8125 C 82.648438 95.914062 83.40625 95.292969 84.296875 95.363281 Z M 84.296875 95.363281 " fill-opacity="1" fill-rule="nonzero"/><path fill="#000000" d="M 89.867188 95.5 L 89.867188 94.464844 L 89.800781 94.464844 C 89.523438 94.605469 89.25 94.671875 88.972656 94.671875 L 88.082031 94.671875 L 88.082031 94.742188 C 88.699219 95.085938 88.628906 95.570312 88.628906 96.261719 L 88.628906 99.570312 C 88.628906 100.191406 88.699219 100.746094 88.082031 101.089844 L 88.082031 101.160156 L 90.417969 101.160156 L 90.417969 101.089844 C 89.800781 100.746094 89.867188 100.261719 89.867188 99.570312 L 89.867188 97.640625 C 89.867188 96.191406 90.28125 95.640625 91.378906 95.640625 C 91.585938 95.640625 91.863281 95.707031 92 95.847656 L 92 94.535156 L 91.519531 94.464844 C 90.832031 94.464844 90.144531 94.878906 89.867188 95.5 Z M 89.867188 95.5 " fill-opacity="1" fill-rule="nonzero"/><path fill="#000000" d="M 94.199219 99.503906 L 94.199219 91.636719 L 94.128906 91.636719 C 93.855469 91.84375 93.582031 91.914062 93.238281 91.84375 L 92.410156 91.84375 L 92.410156 91.914062 C 93.03125 92.257812 92.894531 92.742188 92.894531 93.429688 L 92.894531 99.503906 C 92.894531 100.125 92.960938 100.675781 92.410156 101.019531 L 92.410156 101.089844 L 94.679688 101.089844 L 94.679688 101.019531 C 94.128906 100.675781 94.199219 100.125 94.199219 99.503906 Z M 94.199219 99.503906 " fill-opacity="1" fill-rule="nonzero"/><path fill="#000000" d="M 98.804688 94.464844 L 98.53125 94.464844 C 96.605469 94.464844 95.09375 95.984375 95.09375 97.917969 L 95.09375 97.984375 C 95.160156 99.847656 96.742188 101.296875 98.601562 101.226562 L 98.667969 101.226562 C 100.59375 101.226562 102.175781 99.710938 102.242188 97.777344 L 102.242188 97.710938 C 102.175781 95.847656 100.59375 94.398438 98.804688 94.464844 Z M 100.800781 98.054688 L 100.800781 98.191406 C 100.800781 99.363281 99.835938 100.332031 98.667969 100.332031 C 97.226562 100.332031 96.46875 98.953125 96.46875 97.640625 L 96.46875 97.503906 C 96.46875 96.328125 97.429688 95.363281 98.601562 95.363281 C 100.179688 95.363281 100.867188 96.675781 100.800781 98.054688 Z M 100.800781 98.054688 " fill-opacity="1" fill-rule="nonzero"/><g clip-path="url(#2d6c9cb640)"><path fill="#000000" d="M 106.574219 94.464844 L 106.300781 94.464844 C 104.375 94.464844 102.863281 95.984375 102.863281 97.917969 L 102.863281 97.984375 C 102.929688 99.847656 104.511719 101.296875 106.371094 101.226562 L 106.4375 101.226562 C 108.363281 101.226562 109.945312 99.710938 110.011719 97.777344 L 110.011719 97.710938 C 109.945312 95.847656 108.363281 94.398438 106.574219 94.464844 Z M 108.636719 98.054688 L 108.636719 98.191406 C 108.636719 99.363281 107.675781 100.332031 106.507812 100.332031 C 105.0625 100.332031 104.304688 98.953125 104.304688 97.640625 L 104.304688 97.503906 C 104.304688 96.328125 105.269531 95.363281 106.4375 95.363281 C 107.882812 95.363281 108.636719 96.675781 108.636719 98.054688 Z M 108.636719 98.054688 " fill-opacity="1" fill-rule="nonzero"/></g><g clip-path="url(#54fd8aa0c6)"><path fill="#ffffff" d="M 104.648438 36.921875 C 108.226562 33.953125 110.496094 33.609375 110.496094 33.609375 L 96.398438 33.402344 C 96.398438 33.402344 90.210938 33.402344 88.355469 33.609375 C 86.15625 33.816406 83.953125 34.300781 81.824219 34.921875 C 80.515625 35.335938 78.867188 36.230469 77.492188 36.644531 C 76.460938 36.992188 75.359375 37.058594 74.261719 36.851562 C 73.367188 36.644531 71.992188 36.300781 72.199219 30.503906 L 72.335938 22.777344 C 72.335938 22.777344 67.246094 25.535156 62.847656 23.328125 C 61.058594 22.433594 59.683594 20.707031 58.445312 17.945312 C 57.140625 14.773438 56.316406 11.460938 56.109375 8.011719 C 55.835938 11.460938 55.007812 14.773438 53.632812 17.945312 C 52.394531 20.707031 51.019531 22.433594 49.234375 23.328125 C 44.832031 25.535156 39.746094 22.777344 39.746094 22.777344 L 39.882812 30.503906 C 40.089844 36.300781 38.714844 36.714844 37.820312 36.851562 C 36.71875 37.058594 35.621094 36.992188 34.589844 36.644531 C 33.214844 36.230469 31.5625 35.335938 30.257812 34.921875 C 28.125 34.300781 25.925781 33.816406 23.65625 33.609375 C 21.800781 33.402344 15.613281 33.402344 15.613281 33.402344 L 1.519531 33.472656 C 1.519531 33.472656 3.785156 33.816406 7.363281 36.785156 C 8.1875 37.472656 12.105469 40.855469 13.207031 41.820312 C 16.023438 44.304688 19.117188 47.269531 21.867188 50.167969 C 29.363281 57.964844 37.203125 67.765625 42.21875 74.25 C 43.527344 75.976562 44.628906 77.421875 45.519531 78.597656 C 46.207031 79.5625 46.964844 80.460938 47.789062 81.355469 C 48.613281 82.117188 49.921875 82.117188 50.746094 81.289062 C 51.019531 81.011719 51.226562 80.734375 51.433594 80.390625 C 52.191406 79.148438 53.566406 77.214844 56.039062 73.492188 C 58.445312 77.214844 59.820312 79.148438 60.578125 80.390625 C 60.785156 80.734375 60.992188 81.011719 61.265625 81.355469 C 62.089844 82.183594 63.398438 82.253906 64.292969 81.425781 C 64.703125 81.011719 65.183594 80.527344 65.527344 80.046875 C 66.421875 78.804688 67.933594 76.800781 69.792969 74.386719 C 74.8125 67.902344 82.648438 58.105469 90.074219 50.308594 C 92.894531 47.410156 95.917969 44.511719 98.738281 41.957031 C 99.90625 40.992188 103.824219 37.542969 104.648438 36.921875 Z M 86.429688 50.996094 C 79.691406 58.171875 72.542969 67.144531 68.003906 73.144531 C 66.285156 75.421875 64.910156 77.214844 64.085938 78.390625 C 63.945312 78.597656 63.808594 78.734375 63.601562 78.871094 C 63.121094 79.21875 62.503906 79.078125 62.160156 78.664062 C 61.953125 78.390625 61.746094 78.113281 61.539062 77.769531 C 60.785156 76.527344 58.789062 73.351562 56.246094 69.351562 L 56.109375 69.074219 L 55.835938 69.28125 C 53.289062 73.285156 51.296875 76.457031 50.539062 77.699219 C 50.332031 77.976562 50.128906 78.320312 49.921875 78.597656 C 49.578125 79.011719 48.957031 79.148438 48.476562 78.804688 C 48.269531 78.664062 48.132812 78.527344 47.996094 78.390625 C 47.171875 77.214844 45.796875 75.421875 44.078125 73.144531 C 39.539062 67.210938 32.457031 58.171875 25.71875 50.996094 C 21.179688 46.167969 16.507812 41.269531 13.207031 38.507812 C 9.90625 35.75 9.355469 35.75 9.355469 35.75 L 21.042969 35.75 C 25.375 35.609375 29.5 38.441406 31.976562 40.507812 C 33.488281 41.890625 34.863281 43.339844 36.101562 44.996094 C 40.777344 51.066406 52.535156 67.28125 52.535156 67.28125 C 52.878906 66.660156 53.289062 66.039062 53.703125 65.417969 C 51.503906 62.035156 49.097656 58.519531 46.691406 55.136719 C 43.390625 50.308594 39.882812 45.683594 36.101562 41.199219 C 35.277344 40.234375 34.3125 39.265625 33.351562 38.441406 C 33.351562 38.441406 35.964844 40.164062 38.300781 39.957031 C 39.125 39.886719 42.632812 39.820312 42.359375 35.195312 L 42.359375 26.226562 C 42.359375 26.226562 53.015625 31.882812 56.109375 16.496094 C 56.109375 16.429688 56.109375 16.292969 56.109375 16.222656 C 56.109375 16.292969 56.109375 16.429688 56.109375 16.496094 C 59.203125 31.882812 69.859375 26.15625 69.859375 26.15625 L 69.859375 35.128906 C 69.585938 39.75 73.089844 39.820312 73.917969 39.886719 C 76.253906 40.09375 78.867188 38.371094 78.867188 38.371094 C 77.90625 39.199219 76.941406 40.164062 76.117188 41.128906 C 72.265625 45.546875 68.621094 50.238281 65.253906 55.066406 C 62.914062 58.449219 60.441406 61.96875 58.242188 65.347656 C 58.652344 65.96875 59.066406 66.589844 59.410156 67.210938 C 59.410156 67.210938 71.167969 50.996094 75.84375 44.925781 C 77.078125 43.339844 78.453125 41.820312 79.96875 40.441406 C 82.441406 38.371094 86.566406 35.542969 90.832031 35.609375 L 102.519531 35.609375 C 102.519531 35.609375 101.898438 35.609375 98.667969 38.371094 C 95.4375 41.128906 90.898438 46.167969 86.429688 50.996094 Z M 86.429688 50.996094 " fill-opacity="1" fill-rule="nonzero"/></g><path fill="#006ab4" d="M 102.726562 35.75 L 91.035156 35.75 C 86.773438 35.609375 82.648438 38.441406 80.171875 40.578125 C 78.660156 41.957031 77.285156 43.40625 76.046875 45.0625 C 71.371094 51.136719 59.617188 67.351562 59.617188 67.351562 C 59.273438 66.730469 58.859375 66.109375 58.445312 65.488281 C 60.648438 62.175781 63.054688 58.585938 65.460938 55.207031 C 68.828125 50.375 72.402344 45.683594 76.324219 41.269531 C 77.148438 40.300781 78.109375 39.335938 79.074219 38.507812 C 79.074219 38.507812 76.460938 40.234375 74.121094 40.027344 C 73.296875 39.957031 69.792969 39.886719 70.066406 35.265625 L 70.066406 26.296875 C 70.066406 26.296875 59.410156 32.023438 56.316406 16.636719 C 53.222656 32.023438 42.5625 26.363281 42.5625 26.363281 L 42.5625 35.335938 C 42.839844 39.957031 39.332031 40.027344 38.507812 40.09375 C 36.171875 40.300781 33.558594 38.578125 33.558594 38.578125 C 34.519531 39.40625 35.484375 40.371094 36.308594 41.335938 C 40.089844 45.753906 43.664062 50.445312 46.894531 55.273438 C 49.300781 58.65625 51.707031 62.175781 53.910156 65.554688 C 53.496094 66.175781 53.152344 66.796875 52.738281 67.417969 C 52.738281 67.417969 40.984375 51.203125 36.308594 45.132812 C 35.070312 43.546875 33.695312 42.027344 32.183594 40.648438 C 29.707031 38.578125 25.582031 35.75 21.25 35.886719 L 9.5625 35.886719 C 9.5625 35.886719 10.113281 35.886719 13.414062 38.648438 C 16.710938 41.40625 21.386719 46.304688 25.925781 51.136719 C 32.457031 58.171875 39.539062 67.210938 44.078125 73.214844 C 45.796875 75.492188 47.171875 77.285156 47.996094 78.457031 C 48.132812 78.664062 48.269531 78.804688 48.476562 78.871094 C 48.957031 79.21875 49.578125 79.078125 49.921875 78.664062 C 50.128906 78.390625 50.332031 78.113281 50.539062 77.769531 C 51.296875 76.527344 53.289062 73.351562 55.835938 69.351562 L 55.972656 69.074219 L 56.109375 69.351562 C 58.652344 73.351562 60.648438 76.527344 61.402344 77.769531 C 61.609375 78.042969 61.816406 78.390625 62.023438 78.664062 C 62.367188 79.078125 62.984375 79.21875 63.464844 78.871094 C 63.671875 78.734375 63.808594 78.597656 63.945312 78.390625 C 64.773438 77.285156 66.148438 75.421875 67.867188 73.144531 C 72.402344 67.144531 79.554688 58.105469 86.292969 50.996094 C 90.832031 46.167969 95.574219 41.199219 98.804688 38.507812 C 102.039062 35.816406 102.726562 35.75 102.726562 35.75 Z M 41.808594 42.648438 C 43.046875 42.441406 44.421875 41.199219 45.039062 39.820312 C 45.660156 38.578125 45.660156 36.714844 45.726562 35.195312 C 45.796875 34.367188 45.726562 30.230469 45.726562 30.230469 C 51.777344 31.816406 54.804688 26.710938 56.109375 24.363281 C 57.414062 26.710938 60.441406 31.816406 66.492188 30.230469 C 66.492188 30.230469 66.421875 34.367188 66.492188 35.195312 C 66.558594 36.785156 66.558594 38.578125 67.179688 39.820312 C 67.796875 41.199219 69.171875 42.441406 70.410156 42.648438 C 70.203125 42.855469 62.160156 52.859375 56.109375 61.828125 C 49.921875 52.792969 41.808594 42.648438 41.808594 42.648438 Z M 41.808594 42.648438 " fill-opacity="1" fill-rule="nonzero"/><path fill="#efe12c" d="M 56.109375 61.828125 C 62.160156 52.859375 70.273438 42.855469 70.410156 42.648438 C 69.242188 42.441406 67.867188 41.128906 67.179688 39.820312 C 66.558594 38.578125 66.558594 36.714844 66.492188 35.195312 C 66.421875 34.367188 66.492188 30.230469 66.492188 30.230469 C 60.441406 31.816406 57.414062 26.710938 56.109375 24.363281 C 54.804688 26.710938 51.777344 31.816406 45.726562 30.230469 C 45.726562 30.230469 45.796875 34.367188 45.726562 35.195312 C 45.660156 36.785156 45.660156 38.578125 45.039062 39.820312 C 44.421875 41.199219 43.046875 42.441406 41.808594 42.648438 C 41.808594 42.648438 49.921875 52.792969 56.109375 61.828125 Z M 46.140625 43.820312 C 46.140625 43.820312 46.757812 42.925781 47.035156 42.511719 C 49.644531 45.753906 52.050781 49.132812 54.183594 52.652344 L 53.773438 51.824219 C 52.257812 47.890625 50.539062 44.027344 48.613281 40.300781 L 49.785156 38.648438 C 51.707031 42.511719 53.289062 46.511719 54.664062 50.582031 L 54.941406 51.273438 L 54.734375 50.445312 C 52.257812 39.679688 51.160156 36.644531 51.160156 36.644531 L 51.226562 36.578125 L 52.535156 34.644531 L 55.492188 47.824219 C 55.492188 47.824219 55.558594 43.613281 55.148438 31.125 C 55.421875 30.710938 55.972656 29.882812 56.179688 29.539062 C 56.316406 29.882812 56.933594 30.710938 57.210938 31.125 C 56.796875 43.613281 56.867188 47.824219 56.867188 47.824219 L 59.820312 34.574219 L 61.128906 36.507812 L 61.195312 36.578125 C 61.195312 36.578125 60.097656 39.679688 57.621094 50.375 L 57.414062 51.203125 L 57.691406 50.515625 C 59.066406 46.445312 60.648438 42.441406 62.570312 38.578125 L 63.742188 40.234375 C 61.816406 44.027344 60.027344 47.890625 58.515625 51.824219 L 58.171875 52.652344 C 60.371094 49.132812 62.710938 45.753906 65.324219 42.511719 L 66.214844 43.753906 C 65.667969 44.441406 60.507812 50.859375 56.246094 57.136719 C 51.777344 50.859375 46.691406 44.511719 46.140625 43.820312 Z M 46.140625 43.820312 " fill-opacity="1" fill-rule="nonzero"/><g clip-path="url(#4276bf0deb)"><g clip-path="url(#17c8f7fe94)"><path fill="url(#bd70cc13e2)" d="M 70.410156 24.363281 L 41.808594 24.363281 L 41.808594 61.828125 L 70.410156 61.828125 Z M 70.410156 24.363281 " fill-rule="nonzero"/></g></g><path fill="#ffffff" d="M 65.183594 42.511719 C 62.570312 45.753906 60.164062 49.132812 58.035156 52.652344 L 58.378906 51.824219 C 59.890625 47.890625 61.679688 43.960938 63.601562 40.234375 L 62.433594 38.578125 C 60.507812 42.441406 58.929688 46.445312 57.554688 50.515625 L 57.277344 51.203125 L 57.484375 50.375 C 59.960938 39.679688 61.058594 36.578125 61.058594 36.578125 L 60.992188 36.507812 L 59.683594 34.574219 L 56.726562 47.824219 C 56.726562 47.824219 56.726562 43.613281 57.070312 31.125 C 56.796875 30.710938 56.246094 29.882812 56.039062 29.539062 C 55.902344 29.882812 55.285156 30.710938 55.007812 31.125 C 55.421875 43.613281 55.351562 47.824219 55.351562 47.824219 L 52.394531 34.644531 L 51.089844 36.578125 L 51.019531 36.644531 C 51.019531 36.644531 52.121094 39.679688 54.597656 50.445312 L 54.804688 51.273438 L 54.527344 50.582031 C 53.152344 46.511719 51.570312 42.511719 49.644531 38.648438 L 48.476562 40.300781 C 50.402344 44.027344 52.121094 47.890625 53.632812 51.824219 L 53.976562 52.652344 C 51.847656 49.132812 49.441406 45.753906 46.828125 42.511719 C 46.550781 42.925781 45.933594 43.820312 45.933594 43.820312 C 46.484375 44.511719 51.640625 50.929688 55.902344 57.207031 C 60.164062 50.859375 65.324219 44.511719 65.871094 43.820312 Z M 65.183594 42.511719 " fill-opacity="1" fill-rule="nonzero"/></svg>