<svg xmlns="http://www.w3.org/2000/svg" xmlns:xlink="http://www.w3.org/1999/xlink" width="50" zoomAndPan="magnify" viewBox="0 0 37.5 37.499999" height="50" preserveAspectRatio="xMidYMid meet" version="1.0"><defs><clipPath id="454db8ef20"><path d="M 0 0 L 37.007812 0 L 37.007812 37.007812 L 0 37.007812 Z M 0 0 " clip-rule="nonzero"/></clipPath><clipPath id="9c3df3dc8a"><path d="M 1.851562 1.851562 L 35.15625 1.851562 L 35.15625 35.15625 L 1.851562 35.15625 Z M 1.851562 1.851562 " clip-rule="nonzero"/></clipPath></defs><g clip-path="url(#454db8ef20)"><path fill="#ffffff" d="M 0 0 L 37.007812 0 L 37.007812 37.007812 L 0 37.007812 Z M 0 0 " fill-opacity="1" fill-rule="nonzero"/><path fill="#ffffff" d="M 0 0 L 37.007812 0 L 37.007812 37.007812 L 0 37.007812 Z M 0 0 " fill-opacity="1" fill-rule="nonzero"/></g><g clip-path="url(#9c3df3dc8a)"><path fill="#ffffff" d="M 35.152344 15.417969 L 26.699219 15.417969 C 27.058594 16.378906 27.257812 17.417969 27.257812 18.503906 C 27.257812 23.335938 23.332031 27.261719 18.5 27.261719 C 13.664062 27.261719 9.742188 23.335938 9.742188 18.503906 C 9.742188 17.417969 9.9375 16.378906 10.300781 15.417969 L 1.847656 15.417969 L 1.847656 30.097656 C 1.847656 32.890625 4.109375 35.15625 6.902344 35.15625 L 30.09375 35.15625 C 32.886719 35.15625 35.152344 32.890625 35.152344 30.097656 Z M 18.5 11.472656 C 22.378906 11.472656 25.53125 14.621094 25.53125 18.503906 C 25.53125 22.382812 22.378906 25.535156 18.5 25.535156 C 14.617188 25.535156 11.46875 22.382812 11.46875 18.503906 C 11.46875 14.621094 14.617188 11.472656 18.5 11.472656 Z M 1.847656 13.691406 L 11.179688 13.691406 C 12.75 11.316406 15.441406 9.746094 18.5 9.746094 C 21.554688 9.746094 24.25 11.316406 25.816406 13.691406 L 35.152344 13.691406 L 35.152344 6.90625 C 35.152344 4.113281 32.886719 1.851562 30.09375 1.851562 L 6.902344 1.851562 C 4.109375 1.851562 1.847656 4.113281 1.847656 6.90625 Z M 28.367188 6.660156 C 29.457031 6.660156 30.339844 7.546875 30.339844 8.636719 C 30.339844 9.722656 29.457031 10.609375 28.367188 10.609375 C 27.277344 10.609375 26.394531 9.722656 26.394531 8.636719 C 26.394531 7.546875 27.277344 6.660156 28.367188 6.660156 Z M 28.367188 6.660156 " fill-opacity="1" fill-rule="evenodd"/><path fill="#ffffff" d="M 35.152344 15.417969 L 26.699219 15.417969 C 27.058594 16.378906 27.257812 17.417969 27.257812 18.503906 C 27.257812 23.335938 23.332031 27.261719 18.5 27.261719 C 13.664062 27.261719 9.742188 23.335938 9.742188 18.503906 C 9.742188 17.417969 9.9375 16.378906 10.300781 15.417969 L 1.847656 15.417969 L 1.847656 30.097656 C 1.847656 32.890625 4.109375 35.15625 6.902344 35.15625 L 30.09375 35.15625 C 32.886719 35.15625 35.152344 32.890625 35.152344 30.097656 Z M 18.5 11.472656 C 22.378906 11.472656 25.53125 14.621094 25.53125 18.503906 C 25.53125 22.382812 22.378906 25.535156 18.5 25.535156 C 14.617188 25.535156 11.46875 22.382812 11.46875 18.503906 C 11.46875 14.621094 14.617188 11.472656 18.5 11.472656 Z M 1.847656 13.691406 L 11.179688 13.691406 C 12.75 11.316406 15.441406 9.746094 18.5 9.746094 C 21.554688 9.746094 24.25 11.316406 25.816406 13.691406 L 35.152344 13.691406 L 35.152344 6.90625 C 35.152344 4.113281 32.886719 1.851562 30.09375 1.851562 L 6.902344 1.851562 C 4.109375 1.851562 1.847656 4.113281 1.847656 6.90625 Z M 28.367188 6.660156 C 29.457031 6.660156 30.339844 7.546875 30.339844 8.636719 C 30.339844 9.722656 29.457031 10.609375 28.367188 10.609375 C 27.277344 10.609375 26.394531 9.722656 26.394531 8.636719 C 26.394531 7.546875 27.277344 6.660156 28.367188 6.660156 Z M 28.367188 6.660156 " fill-opacity="1" fill-rule="evenodd"/></g></svg>