<svg xmlns="http://www.w3.org/2000/svg" xmlns:xlink="http://www.w3.org/1999/xlink" width="150" zoomAndPan="magnify" viewBox="0 0 112.5 112.499997" height="150" preserveAspectRatio="xMidYMid meet" version="1.0"><defs><clipPath id="02d53af4ff"><path d="M 0 0 L 112.003906 0 L 112.003906 112.003906 L 0 112.003906 Z M 0 0 " clip-rule="nonzero"/></clipPath><clipPath id="34a91aa1ef"><path d="M 0.746094 77 L 20 77 L 20 96 L 0.746094 96 Z M 0.746094 77 " clip-rule="nonzero"/></clipPath><clipPath id="05716ada0d"><path d="M 95 77 L 111.253906 77 L 111.253906 96 L 95 96 Z M 95 77 " clip-rule="nonzero"/></clipPath></defs><g clip-path="url(#02d53af4ff)"><path fill="#ffffff" d="M 0 0 L 112.003906 0 L 112.003906 112.003906 L 0 112.003906 Z M 0 0 " fill-opacity="1" fill-rule="nonzero"/><path fill="#ffffff" d="M 0 0 L 112.003906 0 L 112.003906 112.003906 L 0 112.003906 Z M 0 0 " fill-opacity="1" fill-rule="nonzero"/></g><g clip-path="url(#34a91aa1ef)"><path fill="#9a7e17" d="M 16.746094 77.734375 L 16.746094 78.160156 C 16.171875 78.128906 15.617188 78.226562 15.085938 78.449219 C 14.554688 78.671875 14.097656 79 13.714844 79.429688 L 8.078125 85.21875 L 16.039062 93.054688 C 17.378906 94.394531 18.4375 94.675781 19.421875 94.675781 L 19.421875 95.242188 L 11.464844 95.242188 L 11.464844 94.675781 C 12.519531 94.675781 13.15625 94.394531 13.15625 93.902344 C 13.15625 93.546875 12.449219 92.492188 11.113281 91.152344 L 6.53125 86.632812 L 5.261719 87.761719 L 5.261719 92.136719 C 5.261719 94.257812 5.613281 94.609375 7.375 94.609375 L 7.375 95.175781 L 0.746094 95.175781 L 0.746094 94.609375 C 2.578125 94.609375 2.863281 94.257812 2.863281 92.136719 L 2.863281 80.769531 C 2.863281 78.652344 2.511719 78.300781 0.746094 78.300781 L 0.746094 77.734375 L 7.445312 77.734375 L 7.445312 78.300781 C 5.613281 78.300781 5.332031 78.652344 5.332031 80.769531 L 5.332031 86.984375 L 9.558594 82.957031 C 11.179688 81.40625 12.167969 80.207031 12.167969 79.429688 C 12.167969 78.792969 11.390625 78.441406 10.40625 78.511719 L 10.40625 77.949219 " fill-opacity="1" fill-rule="nonzero"/></g><path fill="#9a7e17" d="M 21.1875 93.125 C 21.1875 94.605469 21.398438 94.820312 22.667969 94.820312 L 22.667969 95.171875 L 18.085938 95.171875 L 18.085938 94.820312 C 19.355469 94.820312 19.566406 94.535156 19.566406 93.125 L 19.566406 85.21875 C 19.566406 83.734375 19.351562 83.523438 18.085938 83.523438 L 18.085938 83.171875 L 22.949219 83.171875 L 22.949219 83.523438 C 21.46875 83.523438 21.257812 83.804688 21.257812 85.21875 " fill-opacity="1" fill-rule="nonzero"/><path fill="#9a7e17" d="M 35.285156 82.675781 L 35.285156 85.925781 L 35 85.925781 C 34.507812 84.160156 33.734375 83.878906 31.6875 83.878906 C 30.066406 83.878906 29.925781 83.945312 29.925781 85.570312 C 29.925781 87.40625 29.785156 92.066406 29.785156 93.125 C 29.785156 94.46875 30.140625 94.75 31.761719 94.820312 L 31.761719 95.171875 L 26.261719 95.171875 L 26.261719 94.820312 C 28.023438 94.820312 28.234375 94.539062 28.234375 93.125 C 28.234375 92.066406 28.375 87.335938 28.375 85.570312 C 28.375 84.019531 28.308594 83.949219 26.824219 83.949219 C 24.851562 83.949219 23.933594 84.652344 23.371094 85.925781 L 23.019531 85.925781 L 23.863281 82.675781 L 24.289062 82.675781 C 24.742188 83.175781 25.308594 83.390625 25.980469 83.3125 L 33.167969 83.3125 C 34.367188 83.3125 34.507812 83.171875 35.070312 82.675781 " fill-opacity="1" fill-rule="nonzero"/><path fill="#9a7e17" d="M 45.5 86.769531 C 45.078125 85.429688 43.949219 83.3125 41.199219 83.3125 C 39.015625 83.3125 36.898438 85.21875 36.898438 89.3125 C 36.898438 92.699219 38.871094 95.027344 41.691406 95.027344 C 43.664062 95.027344 45.144531 93.6875 45.847656 91.851562 L 46.203125 91.851562 L 45.921875 93.757812 C 45.355469 94.460938 43.59375 95.378906 41.339844 95.378906 C 37.179688 95.378906 34.925781 92.488281 34.925781 89.453125 C 34.925781 85.78125 37.390625 82.886719 41.339844 82.886719 C 42.679688 82.886719 44.933594 83.453125 45.921875 84.371094 L 45.851562 86.769531 " fill-opacity="1" fill-rule="nonzero"/><path fill="#9a7e17" d="M 56.777344 88.535156 L 56.777344 85.148438 C 56.777344 83.664062 56.566406 83.453125 55.015625 83.453125 L 55.015625 83.101562 L 59.949219 83.101562 L 59.949219 83.453125 C 58.683594 83.453125 58.46875 83.734375 58.46875 85.148438 L 58.46875 93.054688 C 58.46875 94.539062 58.683594 94.75 59.949219 94.75 L 59.949219 95.101562 L 54.945312 95.101562 L 54.945312 94.75 C 56.566406 94.75 56.777344 94.46875 56.777344 93.054688 L 56.777344 89.171875 L 49.097656 89.171875 L 49.097656 93.054688 C 49.097656 94.539062 49.308594 94.75 50.859375 94.75 L 50.859375 95.101562 L 45.855469 95.101562 L 45.855469 94.75 C 47.195312 94.75 47.476562 94.46875 47.476562 93.054688 L 47.476562 85.21875 C 47.476562 83.734375 47.261719 83.523438 45.996094 83.523438 L 45.996094 83.171875 L 50.859375 83.171875 L 50.859375 83.523438 C 49.378906 83.523438 49.167969 83.804688 49.167969 85.21875 L 49.167969 88.605469 " fill-opacity="1" fill-rule="nonzero"/><path fill="#9a7e17" d="M 59.527344 94.820312 C 61.078125 94.820312 61.289062 94.535156 61.289062 93.125 C 61.355469 90.652344 61.355469 87.972656 61.355469 85.21875 C 61.355469 83.734375 61.140625 83.523438 59.664062 83.523438 L 59.664062 83.171875 L 68.894531 83.171875 L 69.320312 85.359375 L 69.035156 85.359375 C 68.191406 84.300781 67.628906 83.664062 65.792969 83.664062 L 64.175781 83.664062 C 63.1875 83.664062 63.046875 83.730469 63.046875 84.441406 L 63.046875 88.605469 L 65.019531 88.605469 C 66.640625 88.605469 66.78125 88.324219 67.132812 86.910156 L 67.554688 86.910156 L 67.554688 91.074219 L 67.132812 91.074219 C 66.921875 89.59375 66.570312 89.242188 65.230469 89.242188 L 63.117188 89.242188 L 63.117188 94.042969 C 63.117188 94.675781 63.398438 94.816406 64.3125 94.816406 L 66.851562 94.816406 C 68.683594 94.816406 69.035156 94.464844 70.234375 92.417969 L 70.585938 92.417969 C 70.316406 93.347656 70.105469 94.289062 69.953125 95.242188 L 59.597656 95.242188 " fill-opacity="1" fill-rule="nonzero"/><path fill="#9a7e17" d="M 70.664062 94.820312 C 71.859375 94.679688 72.285156 94.464844 72.285156 92.347656 L 72.285156 85.21875 C 72.285156 83.808594 71.648438 83.59375 70.308594 83.453125 L 70.308594 83.101562 L 73.339844 83.101562 C 74.820312 84.933594 81.089844 91.570312 82.007812 92.628906 C 82.078125 90.371094 82.078125 87.054688 82.078125 85.289062 C 82.078125 84.160156 81.722656 83.734375 80.316406 83.523438 L 80.316406 83.171875 L 84.398438 83.171875 L 84.398438 83.523438 C 82.992188 83.664062 82.636719 84.160156 82.636719 85.289062 C 82.636719 85.996094 82.496094 91.996094 82.355469 95.3125 L 82.003906 95.3125 C 81.015625 93.761719 75.800781 88.746094 72.839844 85.007812 L 72.773438 85.007812 L 72.773438 92.488281 C 72.773438 94.605469 73.058594 94.820312 74.464844 94.960938 L 74.464844 95.3125 L 70.589844 95.3125 " fill-opacity="1" fill-rule="nonzero"/><path fill="#9a7e17" d="M 84.125 94.820312 C 85.675781 94.820312 85.886719 94.535156 85.957031 93.125 C 86.027344 90.652344 86.027344 87.972656 86.027344 85.21875 C 86.027344 83.734375 85.8125 83.523438 84.335938 83.523438 L 84.335938 83.171875 L 93.496094 83.171875 L 93.917969 85.359375 L 93.636719 85.359375 C 92.789062 84.300781 92.226562 83.664062 90.390625 83.664062 L 88.773438 83.664062 C 87.785156 83.664062 87.644531 83.730469 87.644531 84.441406 L 87.644531 88.605469 L 89.617188 88.605469 C 91.238281 88.605469 91.449219 88.324219 91.730469 86.910156 L 92.15625 86.910156 L 92.15625 91.074219 L 91.730469 91.074219 C 91.519531 89.59375 91.167969 89.242188 89.828125 89.242188 L 87.714844 89.242188 L 87.714844 94.042969 C 87.714844 94.675781 87.996094 94.816406 88.914062 94.816406 L 91.449219 94.816406 C 93.28125 94.816406 93.632812 94.464844 94.832031 92.417969 L 95.183594 92.417969 C 94.917969 93.347656 94.707031 94.289062 94.550781 95.242188 L 84.195312 95.242188 " fill-opacity="1" fill-rule="nonzero"/><g clip-path="url(#05716ada0d)"><path fill="#9a7e17" d="M 100.191406 86.207031 C 104.351562 86.207031 106.113281 85.359375 106.113281 82.253906 C 106.113281 79.710938 104.066406 78.441406 101.953125 78.441406 C 100.402344 78.441406 100.125 78.792969 100.125 79.851562 M 95.542969 94.675781 C 97.515625 94.675781 97.867188 94.324219 97.867188 92.207031 C 97.867188 88.113281 98.007812 84.652344 97.933594 80.769531 C 97.933594 78.652344 97.582031 78.300781 95.890625 78.300781 L 95.890625 77.734375 L 101.25 77.734375 C 105.6875 77.734375 108.648438 79.078125 108.648438 82.253906 C 108.648438 85.359375 105.40625 86.207031 104.5625 86.417969 L 109.074219 93.125 C 109.777344 94.183594 110.480469 94.609375 111.46875 94.609375 L 111.46875 95.175781 L 108.441406 95.175781 C 108.15625 95.175781 107.945312 95.105469 107.3125 94.1875 L 102.589844 86.84375 L 100.195312 86.84375 L 100.195312 92.210938 C 100.195312 94.328125 100.546875 94.683594 102.589844 94.683594 L 102.589844 95.246094 L 95.542969 95.246094 Z M 95.542969 94.675781 " fill-opacity="1" fill-rule="nonzero"/></g><path fill="#144c3d" d="M 56.566406 59.382812 C 60.230469 59.382812 60.300781 56.488281 60.300781 56.488281 C 60.34375 55.890625 60.296875 55.304688 60.160156 54.722656 C 60.082031 54.527344 59.988281 54.339844 59.878906 54.15625 C 59.8125 54.792969 59.667969 55.429688 59.667969 55.710938 C 59.675781 56.527344 59.460938 57.28125 59.03125 57.972656 C 58.757812 58.328125 58.410156 58.59375 57.996094 58.769531 C 57.582031 58.945312 57.152344 59.007812 56.707031 58.960938 C 55.789062 58.894531 54.734375 57.902344 55.015625 56.914062 C 55.183594 57.347656 55.460938 57.695312 55.847656 57.953125 C 56.238281 58.210938 56.664062 58.332031 57.128906 58.320312 C 59.386719 58.320312 59.3125 55.425781 58.1875 54.230469 C 57.199219 53.171875 54.101562 53.171875 53.957031 55.078125 C 53.675781 52.394531 58.609375 51.898438 59.171875 54.441406 C 59.453125 54.226562 59.386719 53.734375 59.3125 53.382812 C 58.820312 52.816406 57.972656 52.324219 56.28125 52.324219 C 56.085938 52.304688 55.890625 52.304688 55.695312 52.328125 C 55.496094 52.351562 55.304688 52.394531 55.121094 52.460938 C 54.933594 52.523438 54.757812 52.609375 54.589844 52.714844 C 54.421875 52.816406 54.265625 52.9375 54.125 53.078125 C 53.984375 53.214844 53.859375 53.367188 53.75 53.53125 C 53.644531 53.695312 53.554688 53.871094 53.484375 54.058594 C 53.417969 54.242188 53.367188 54.433594 53.339844 54.628906 C 53.3125 54.824219 53.304688 55.019531 53.320312 55.21875 L 53.253906 55.710938 C 53.394531 55.570312 52.902344 59.382812 56.566406 59.382812 M 41.625 60.300781 C 41.386719 60.066406 41.292969 59.785156 41.34375 59.453125 L 41.765625 56.984375 C 41.804688 56.816406 41.804688 56.652344 41.765625 56.488281 C 41.648438 56.167969 41.601562 55.839844 41.625 55.5 C 41.652344 54.921875 41.839844 54.40625 42.191406 53.945312 C 42.753906 53.171875 42.824219 53.382812 42.824219 53.382812 C 42.90625 53.707031 42.953125 54.035156 42.964844 54.371094 L 43.105469 56.347656 C 43.84375 56.609375 44.597656 56.65625 45.363281 56.488281 C 45.644531 56.421875 45.785156 56.273438 45.714844 56.207031 C 45.609375 56.003906 45.539062 55.792969 45.5 55.570312 L 45.148438 53.027344 C 48.742188 48.085938 52.761719 48.015625 52.761719 48.015625 C 52.898438 48.019531 53.015625 47.972656 53.113281 47.875 C 53.210938 47.777344 53.257812 47.660156 53.253906 47.523438 L 53.253906 36.648438 C 53.492188 36.828125 53.632812 37.0625 53.675781 37.355469 L 54.097656 47.875 C 56.003906 47.875 60.300781 49.707031 60.300781 49.707031 C 56.636719 48.507812 54.734375 48.933594 54.734375 48.933594 C 54.453125 49 54.242188 49.144531 54.242188 49.285156 C 54.242188 49.425781 54.101562 49.5 53.957031 49.566406 C 53.871094 49.558594 53.800781 49.515625 53.746094 49.449219 C 53.691406 49.378906 53.667969 49.300781 53.675781 49.214844 C 51.5625 49.496094 51.914062 50.203125 51.914062 50.203125 C 52.054688 50.484375 52.054688 50.695312 51.980469 50.765625 C 51.785156 50.875 51.574219 50.921875 51.347656 50.910156 L 49.726562 50.976562 C 49.40625 51 49.148438 51.140625 48.953125 51.398438 C 48.8125 51.613281 48.886719 51.75 49.164062 51.75 L 52.617188 51.609375 C 55.71875 49 59.527344 51.257812 59.527344 51.257812 C 59.738281 51.398438 59.738281 51.398438 59.527344 51.324219 C 59.527344 51.324219 56.636719 49.984375 54.027344 51.113281 C 53.308594 51.394531 52.703125 51.828125 52.203125 52.414062 C 51.703125 53.003906 51.371094 53.675781 51.210938 54.429688 C 51.210938 54.710938 51.070312 54.921875 50.925781 54.921875 L 50.222656 54.921875 C 50.15625 55.207031 50.363281 55.347656 50.644531 55.347656 L 50.859375 55.347656 C 51.175781 55.277344 51.386719 55.089844 51.492188 54.78125 C 51.636719 54.253906 51.867188 53.761719 52.175781 53.308594 C 52.484375 52.855469 52.859375 52.464844 53.300781 52.136719 C 53.742188 51.8125 54.226562 51.566406 54.75 51.402344 C 55.273438 51.238281 55.808594 51.164062 56.355469 51.183594 C 60.300781 51.183594 61.007812 53.511719 61.5 54.429688 C 61.992188 55.277344 62.417969 55.628906 62.90625 55.699219 C 63.21875 55.746094 63.523438 55.816406 63.824219 55.914062 C 64.113281 56.0625 64.394531 56.226562 64.667969 56.40625 C 65.042969 56.625 65.441406 56.765625 65.867188 56.832031 C 66.59375 56.9375 67.320312 56.984375 68.050781 56.972656 C 68.476562 56.972656 68.050781 57.464844 68.050781 57.464844 C 67.757812 57.445312 67.476562 57.492188 67.207031 57.605469 L 67.277344 57.960938 C 67.363281 58.003906 67.410156 58.074219 67.417969 58.171875 C 67.417969 58.171875 67.277344 58.242188 67.136719 58.738281 L 67.066406 59.234375 C 67.136719 59.375 66.925781 59.515625 66.640625 59.515625 L 65.65625 59.515625 C 65.363281 59.644531 65.078125 59.625 64.808594 59.449219 L 63.6875 58.675781 C 63.460938 58.542969 63.226562 58.425781 62.984375 58.324219 C 62.84375 58.324219 62.628906 58.109375 62.558594 57.898438 C 62.476562 57.667969 62.3125 57.550781 62.066406 57.546875 C 61.855469 57.546875 61.714844 57.332031 61.644531 57.050781 L 61.574219 56.628906 C 61.503906 56.347656 61.359375 56.136719 61.222656 56.136719 C 61.082031 56.136719 61.007812 56.347656 61.007812 56.628906 C 61.007812 56.628906 61.289062 60.160156 56.707031 60.160156 C 52.125 60.160156 52.902344 54.792969 52.902344 54.792969 C 52.410156 54.859375 52.339844 55.074219 52.339844 55.074219 C 52.257812 55.398438 52.210938 55.730469 52.199219 56.0625 L 52.199219 56.203125 C 51.882812 56.195312 51.625 56.3125 51.421875 56.558594 C 51.21875 56.800781 51.125 57.085938 51.140625 57.402344 L 51.351562 59.945312 C 51.351562 60.226562 51.140625 60.441406 50.929688 60.367188 C 50.722656 60.332031 50.535156 60.378906 50.367188 60.507812 C 50.179688 60.660156 49.96875 60.753906 49.734375 60.792969 C 49.671875 60.808594 49.605469 60.808594 49.542969 60.792969 C 49.480469 60.777344 49.425781 60.75 49.375 60.707031 C 49.328125 60.667969 49.289062 60.617188 49.265625 60.554688 C 49.242188 60.496094 49.234375 60.433594 49.238281 60.367188 L 49.238281 59.59375 C 49.238281 59.3125 49.027344 59.171875 48.816406 59.3125 L 46 60.792969 C 45.949219 60.832031 45.894531 60.855469 45.835938 60.863281 C 45.773438 60.871094 45.714844 60.867188 45.65625 60.84375 C 45.601562 60.824219 45.550781 60.789062 45.511719 60.742188 C 45.472656 60.695312 45.445312 60.640625 45.433594 60.582031 L 45.082031 59.238281 C 45.046875 59.101562 44.964844 58.996094 44.839844 58.925781 C 44.714844 58.859375 44.585938 58.84375 44.449219 58.886719 L 44.234375 58.953125 C 44.097656 58.976562 43.980469 59.042969 43.886719 59.148438 C 43.796875 59.253906 43.746094 59.378906 43.742188 59.519531 L 43.808594 63.332031 C 43.539062 63.320312 43.28125 63.367188 43.035156 63.472656 C 42.75 63.613281 42.609375 63.472656 42.609375 63.1875 L 42.679688 61.566406 C 42.667969 61.238281 42.550781 60.957031 42.324219 60.71875 Z M 61.640625 80.703125 L 61.5 76.113281 C 61.511719 75.78125 61.488281 75.453125 61.429688 75.125 C 61.429688 75.125 61.289062 71.878906 60.023438 71.878906 C 58.753906 71.8125 58.753906 72.867188 58.753906 72.867188 L 58.753906 73.855469 C 58.753906 73.855469 58.753906 77.878906 58.683594 80.703125 C 59.671875 80.773438 60.660156 80.773438 61.644531 80.703125 Z M 55.15625 80.773438 L 55.15625 79.433594 C 55.15625 79.433594 55.4375 71.667969 53.816406 71.667969 C 52.410156 71.667969 52.265625 77.386719 52.195312 80.632812 C 53.179688 80.753906 54.167969 80.796875 55.160156 80.773438 Z M 46.488281 80.492188 C 47.40625 80.558594 48.320312 80.632812 49.308594 80.632812 C 49.027344 76.113281 48.671875 73.996094 48.390625 73.359375 C 48.039062 72.511719 47.757812 73.5 47.757812 73.5 L 47.335938 73.5 C 47.335938 73.5 46.839844 73.007812 46.769531 73.078125 C 46.628906 73.144531 46.558594 73.429688 46.558594 73.714844 Z M 92.511719 73.855469 C 92.511719 76.183594 86.589844 78.300781 77.570312 79.574219 C 84.96875 78.300781 89.691406 76.394531 89.691406 74.347656 C 89.691406 71.523438 81.023438 69.054688 68.546875 67.996094 C 68.476562 68.0625 68.40625 68.207031 68.335938 68.277344 C 68.105469 68.746094 68.011719 69.238281 68.054688 69.761719 C 68.054688 70.042969 68.125 70.464844 68.125 70.75 C 68.125 70.75 68.125 72.089844 68.054688 72.582031 C 67.992188 73.195312 68.019531 73.808594 68.125 74.417969 C 68.175781 74.746094 68.082031 75.03125 67.84375 75.265625 C 67.628906 75.40625 67.492188 75.828125 67.351562 76.039062 L 66.574219 78.441406 C 66.503906 78.722656 66.433594 78.722656 66.433594 78.441406 L 66.21875 74.910156 C 66.21875 74.628906 66.148438 74.203125 66.148438 73.921875 C 66.148438 73.921875 66.078125 72.511719 65.445312 72.652344 C 64.882812 72.71875 64.8125 73.78125 64.8125 73.78125 C 64.8125 74.0625 64.671875 74.203125 64.527344 74.132812 C 64.386719 74.0625 64.175781 74.203125 64.035156 74.417969 L 63.894531 74.558594 C 63.75 74.84375 63.675781 75.148438 63.679688 75.472656 C 63.679688 75.472656 63.679688 78.015625 63.75 80.625 C 68.828125 80.414062 73.476562 80.0625 77.566406 79.496094 C 69.882812 80.691406 62.152344 81.257812 54.378906 81.191406 C 34.855469 81.191406 19.066406 78.085938 19.066406 74.203125 C 19.066406 71.871094 24.917969 69.753906 33.9375 68.554688 C 26.464844 69.824219 21.8125 71.730469 21.8125 73.847656 C 21.8125 76.597656 29.992188 79.003906 41.828125 80.132812 C 41.894531 77.097656 42.042969 73.988281 42.042969 73.988281 C 42.042969 73.707031 41.40625 73 41.40625 72.789062 C 41.445312 72.5 41.515625 72.214844 41.621094 71.941406 L 42.113281 70.175781 C 42.179688 69.875 42.132812 69.59375 41.972656 69.332031 L 41.058594 68.199219 C 40.945312 68.097656 40.851562 67.980469 40.773438 67.847656 C 38.378906 68.0625 36.054688 68.269531 34.011719 68.625 C 36.054688 68.269531 38.238281 67.988281 40.636719 67.707031 L 40.421875 67.492188 L 40.070312 67.210938 C 39.832031 66.976562 39.714844 66.695312 39.71875 66.363281 C 39.71875 66.363281 39.785156 62.832031 53.039062 62.832031 C 67.980469 62.832031 68.964844 65.023438 69.460938 65.375 C 69.601562 65.496094 69.691406 65.648438 69.734375 65.832031 C 69.773438 66.015625 69.753906 66.191406 69.671875 66.363281 C 69.53125 66.644531 69.390625 66.855469 69.25 66.855469 C 69.179688 66.855469 69.035156 66.996094 68.96875 67.210938 C 82.644531 68.199219 92.511719 70.8125 92.511719 73.851562 Z M 54.734375 17.445312 C 54.511719 17.683594 54.394531 17.964844 54.382812 18.292969 L 54.449219 25.210938 C 54.425781 25.535156 54.285156 25.792969 54.027344 25.988281 C 53.5 26.355469 53.054688 26.800781 52.6875 27.328125 C 52.265625 28.035156 52.050781 28.105469 52.050781 28.105469 C 51.730469 28.203125 51.515625 28.414062 51.417969 28.738281 L 51.066406 29.796875 C 50.925781 30.222656 51.347656 31.207031 50.078125 32.765625 C 49.261719 33.789062 48.203125 34.402344 46.910156 34.597656 C 46.144531 34.417969 45.558594 33.996094 45.148438 33.328125 C 45.148438 33.328125 46.488281 33.046875 47.121094 30.363281 C 47.824219 27.679688 50.152344 25.066406 50.152344 25.066406 C 50.382812 24.828125 50.59375 24.566406 50.785156 24.292969 C 50.785156 24.292969 53.675781 20.199219 53.957031 17.867188 C 53.605469 17.597656 53.390625 17.246094 53.320312 16.808594 C 53.308594 16.601562 53.371094 16.421875 53.511719 16.269531 C 53.648438 16.117188 53.824219 16.039062 54.03125 16.035156 C 54.242188 16.035156 54.945312 16.25 54.945312 16.742188 C 54.941406 16.996094 54.871094 17.230469 54.734375 17.445312 Z M 54.734375 17.445312 " fill-opacity="1" fill-rule="nonzero"/><path stroke-linecap="butt" transform="matrix(0.669751, 0, 0, 0.670844, -30.084841, 15.969357)" fill="none" stroke-linejoin="miter" d="M 129.378387 64.714639 C 134.849174 64.714639 134.954157 60.399881 134.954157 60.399881 C 135.024146 59.508979 134.954157 58.635547 134.744191 57.767937 C 134.627543 57.476793 134.487566 57.197294 134.324259 56.923619 C 134.225108 57.872749 134.009309 58.821879 134.009309 59.241127 C 134.020974 60.45811 133.706025 61.581926 133.058629 62.612577 C 132.650361 63.14246 132.13711 63.538416 131.518877 63.800446 C 130.900643 64.062475 130.253247 64.155642 129.588354 64.085767 C 128.217741 63.986778 126.642994 62.507765 127.062927 61.034575 C 127.31372 61.680916 127.72782 62.199152 128.305227 62.583463 C 128.888466 62.967773 129.524197 63.148283 130.218252 63.130814 C 133.589377 63.130814 133.478561 58.816056 131.798832 57.034253 C 130.323236 55.456252 125.698146 55.456252 125.482347 58.297819 C 125.062415 54.297497 132.42873 53.557991 133.268595 57.348689 C 133.688528 57.02843 133.589377 56.294747 133.478561 55.770687 C 132.74368 54.926369 131.47805 54.192685 128.952623 54.192685 C 128.661003 54.163571 128.369383 54.163571 128.077763 54.198508 C 127.786144 54.233446 127.500356 54.297497 127.220401 54.396486 C 126.940446 54.489653 126.677988 54.617756 126.427195 54.774974 C 126.176402 54.926369 125.943107 55.106878 125.73314 55.316502 C 125.523174 55.520303 125.336538 55.747396 125.179063 55.991957 C 125.015756 56.236518 124.881611 56.498548 124.78246 56.778046 C 124.677477 57.051722 124.601656 57.337043 124.560829 57.628188 C 124.520002 57.919332 124.51417 58.210476 124.537499 58.507443 L 124.432516 59.241127 C 124.642483 59.031503 123.907601 64.714639 129.378387 64.714639 Z M 107.069475 66.077194 C 106.713699 65.733643 106.573722 65.308573 106.649543 64.819451 L 107.279442 61.133564 C 107.337766 60.889003 107.337766 60.644442 107.279442 60.399881 C 107.10447 59.922404 107.034481 59.427459 107.069475 58.926691 C 107.10447 58.064904 107.390257 57.29046 107.90934 56.609183 C 108.755038 55.450429 108.860021 55.764864 108.860021 55.764864 C 108.982501 56.248164 109.05249 56.743109 109.069987 57.238054 L 109.279953 60.184434 C 110.382276 60.574567 111.507928 60.644442 112.651078 60.394058 C 113.07101 60.295069 113.280976 60.079622 113.175993 59.97481 C 113.018519 59.677843 112.913536 59.363407 112.855212 59.02568 L 112.330296 55.240805 C 117.701932 47.874855 123.697634 47.770043 123.697634 47.770043 C 123.907601 47.775866 124.082573 47.705992 124.228382 47.560419 C 124.36836 47.414847 124.438349 47.240161 124.438349 47.030537 L 124.438349 30.825448 C 124.794125 31.093301 125.004091 31.442674 125.068247 31.87939 L 125.698146 47.560419 C 128.538523 47.560419 134.95999 50.291353 134.95999 50.291353 C 129.483371 48.503727 126.642994 49.138421 126.642994 49.138421 C 126.223062 49.23741 125.908112 49.452857 125.908112 49.662481 C 125.908112 49.872105 125.698146 49.98274 125.48818 50.081729 C 125.359867 50.070083 125.249052 50.006031 125.167398 49.907042 C 125.085745 49.80223 125.056583 49.685773 125.068247 49.557669 C 121.907089 49.976917 122.437837 51.030859 122.437837 51.030859 C 122.647803 51.450107 122.647803 51.764542 122.536988 51.869354 C 122.239536 52.032395 121.924586 52.10227 121.59214 52.084801 L 119.171696 52.18379 C 118.687607 52.218727 118.302669 52.428351 118.011049 52.812662 C 117.801083 53.13292 117.911898 53.336721 118.331831 53.336721 L 123.487668 53.127098 C 128.11859 49.23741 133.799343 52.603038 133.799343 52.603038 C 134.120125 52.812662 134.120125 52.812662 133.799343 52.702027 C 133.799343 52.702027 129.483371 50.704777 125.593163 52.387591 C 124.520002 52.806839 123.610149 53.453179 122.863602 54.326612 C 122.117055 55.205867 121.627134 56.207404 121.382174 57.33122 C 121.382174 57.750468 121.172207 58.064904 120.962241 58.064904 L 119.91241 58.064904 C 119.807427 58.489975 120.122376 58.699598 120.542309 58.699598 L 120.857258 58.699598 C 121.335514 58.594787 121.650464 58.315288 121.807938 57.85528 C 122.023737 57.069191 122.362016 56.335507 122.822775 55.660052 C 123.289367 54.984598 123.849277 54.402309 124.508337 53.913187 C 125.167398 53.429888 125.884783 53.063046 126.666324 52.818485 C 127.447865 52.573923 128.246903 52.463289 129.069271 52.492403 C 134.95999 52.492403 136.009821 55.962842 136.750535 57.33122 C 137.485417 58.594787 138.115316 59.118846 138.850197 59.223658 C 139.310957 59.293533 139.771716 59.398345 140.214978 59.543917 C 140.652408 59.765186 141.07234 60.009748 141.480608 60.2776 C 142.034685 60.603682 142.635422 60.813306 143.271153 60.912295 C 144.350146 61.069513 145.440804 61.139387 146.531462 61.121919 C 147.161361 61.121919 146.531462 61.855602 146.531462 61.855602 C 146.094032 61.826488 145.6741 61.896362 145.265832 62.065226 L 145.376648 62.595108 C 145.50496 62.65916 145.574949 62.763972 145.586614 62.909544 C 145.586614 62.909544 145.376648 63.014356 145.160849 63.753863 L 145.055866 64.493369 C 145.160849 64.702993 144.8459 64.912617 144.425967 64.912617 L 142.950371 64.912617 C 142.512942 65.104772 142.093009 65.075657 141.690574 64.813628 L 140.005012 63.654874 C 139.666733 63.456895 139.316789 63.282209 138.955181 63.130814 C 138.745214 63.130814 138.424433 62.810555 138.319449 62.496119 C 138.196969 62.152569 137.952009 61.977883 137.584568 61.97206 C 137.269618 61.97206 137.059652 61.651801 136.954669 61.238376 L 136.849686 60.603682 C 136.744703 60.184434 136.528904 59.869998 136.32477 59.869998 C 136.114804 59.869998 136.003989 60.184434 136.003989 60.603682 C 136.003989 60.603682 136.423921 65.86757 129.582521 65.86757 C 122.741122 65.86757 123.901768 57.866926 123.901768 57.866926 C 123.166887 57.965915 123.056071 58.286174 123.056071 58.286174 C 122.933591 58.769473 122.863602 59.264418 122.846105 59.759363 L 122.846105 59.968987 C 122.373681 59.957342 121.988743 60.132028 121.69129 60.49887 C 121.388006 60.865712 121.248028 61.284959 121.271358 61.762436 L 121.586307 65.547311 C 121.586307 65.966559 121.271358 66.286818 120.956409 66.176183 C 120.647292 66.123777 120.367337 66.193651 120.116544 66.391629 C 119.836589 66.612899 119.521639 66.752648 119.165863 66.810877 C 119.072545 66.834169 118.979227 66.834169 118.885908 66.810877 C 118.79259 66.793409 118.710936 66.746825 118.635115 66.688597 C 118.565127 66.624545 118.506803 66.548847 118.471808 66.455681 C 118.436814 66.368338 118.425149 66.275172 118.430982 66.176183 L 118.430982 65.029074 C 118.430982 64.609827 118.116032 64.400203 117.801083 64.609827 L 113.590093 66.8167 C 113.520105 66.874929 113.438451 66.909866 113.345133 66.921512 C 113.257647 66.933158 113.170161 66.927335 113.082675 66.892398 C 112.995189 66.863283 112.9252 66.810877 112.866876 66.741003 C 112.808552 66.671128 112.767726 66.589608 112.750228 66.502264 L 112.225313 64.499192 C 112.166989 64.295391 112.050341 64.138173 111.863704 64.033361 C 111.677068 63.934372 111.478766 63.91108 111.274632 63.975132 L 110.959683 64.074121 C 110.749717 64.109059 110.580577 64.208048 110.4406 64.365266 C 110.306455 64.522483 110.230634 64.708816 110.224801 64.91844 L 110.323952 70.601575 C 109.921517 70.584107 109.536579 70.653981 109.163305 70.811199 C 108.743373 71.020823 108.533407 70.811199 108.533407 70.386129 L 108.632557 67.969631 C 108.620893 67.480509 108.440088 67.061261 108.107642 66.706065 Z M 136.954669 96.490122 L 136.744703 89.654055 C 136.7622 89.15911 136.727206 88.664164 136.63972 88.180865 C 136.63972 88.180865 136.429753 83.336225 134.540057 83.336225 C 132.644529 83.237236 132.644529 84.809415 132.644529 84.809415 L 132.644529 86.282605 C 132.644529 86.282605 132.644529 92.285999 132.539546 96.490122 C 134.009309 96.594934 135.484905 96.594934 136.960501 96.490122 Z M 127.272893 96.600757 L 127.272893 94.597684 C 127.272893 94.597684 127.692825 83.027612 125.272381 83.027612 C 123.172719 83.027612 122.95692 91.546493 122.851937 96.391133 C 124.321701 96.565819 125.791464 96.635694 127.272893 96.600757 Z M 114.330808 96.175686 C 115.695588 96.274675 117.066201 96.38531 118.541797 96.38531 C 118.116032 89.654055 117.591117 86.492228 117.171184 85.548921 C 116.646269 84.285355 116.226336 85.758545 116.226336 85.758545 L 115.590605 85.758545 C 115.590605 85.758545 114.855723 85.024861 114.75074 85.129673 C 114.540774 85.228662 114.435791 85.653733 114.435791 86.072981 Z M 183.048089 86.282605 C 183.048089 89.758867 174.206178 92.914871 160.739177 94.807308 C 171.785734 92.914871 178.8371 90.073303 178.8371 87.022111 C 178.8371 82.812165 165.895014 79.126279 147.266344 77.548277 C 147.161361 77.647266 147.056378 77.868536 146.951395 77.973348 C 146.607283 78.666271 146.467306 79.405777 146.531462 80.180221 C 146.531462 80.599469 146.636445 81.234163 146.636445 81.653411 C 146.636445 81.653411 146.636445 83.656483 146.531462 84.390167 C 146.438144 85.30436 146.473138 86.21273 146.636445 87.1211 C 146.712266 87.616045 146.572289 88.035293 146.216513 88.384666 C 145.895731 88.59429 145.685765 89.228984 145.475799 89.54342 L 144.320984 93.118671 C 144.216001 93.543742 144.111018 93.543742 144.111018 93.118671 L 143.790236 87.860606 C 143.790236 87.435536 143.685253 86.806664 143.685253 86.387416 C 143.685253 86.387416 143.58027 84.285355 142.635422 84.489156 C 141.789725 84.588145 141.684742 86.177793 141.684742 86.177793 C 141.684742 86.59704 141.474775 86.806664 141.264809 86.701852 C 141.054843 86.59704 140.739894 86.800841 140.529927 87.1211 L 140.319961 87.330724 C 140.09833 87.761617 139.993347 88.215802 139.999179 88.699102 C 139.999179 88.699102 139.999179 92.4898 140.104162 96.379487 C 147.680444 96.065051 154.626827 95.540992 160.733345 94.696673 C 149.261023 96.478476 137.718713 97.322794 126.112246 97.223805 C 96.961934 97.223805 73.387393 92.594612 73.387393 86.806664 C 73.387393 83.330402 82.124321 80.174398 95.591322 78.386773 C 84.433949 80.27921 77.487567 83.120778 77.487567 86.276782 C 77.487567 90.376093 89.69477 93.96299 107.37276 95.645804 C 107.471911 91.121422 107.693542 86.486405 107.693542 86.486405 C 107.693542 86.067158 106.742861 85.013216 106.742861 84.69878 C 106.801185 84.267886 106.906168 83.842816 107.063643 83.435214 L 107.798525 80.80327 C 107.897676 80.354908 107.827687 79.93566 107.588559 79.545527 L 106.217946 77.85689 C 106.054639 77.705495 105.914661 77.530808 105.798013 77.33283 C 102.222755 77.653089 98.746647 77.961702 95.696305 78.491584 C 98.75248 77.961702 102.012789 77.542454 105.593879 77.123206 L 105.273098 76.802948 L 104.748182 76.3837 C 104.392406 76.034327 104.217434 75.615079 104.223267 75.120134 C 104.223267 75.120134 104.322417 69.856246 124.111735 69.856246 C 146.420647 69.856246 147.89041 73.122884 148.625292 73.646944 C 148.841091 73.827454 148.975236 74.054546 149.03356 74.328222 C 149.091884 74.601897 149.062722 74.863927 148.946074 75.120134 C 148.736107 75.539382 148.526141 75.853818 148.316175 75.853818 C 148.211192 75.853818 147.995393 76.063441 147.896243 76.3837 C 168.315459 77.862713 183.048089 81.758223 183.048089 86.282605 Z M 126.642994 2.200146 C 126.310548 2.555342 126.135576 2.974589 126.118079 3.463712 L 126.217229 13.776041 C 126.182235 14.25934 125.972269 14.643651 125.587331 14.934795 C 124.799957 15.482146 124.135064 16.145955 123.586819 16.932045 C 122.95692 17.985987 122.641971 18.090799 122.641971 18.090799 C 122.157882 18.236371 121.842933 18.550807 121.69129 19.034106 L 121.166375 20.612108 C 120.956409 21.246802 121.586307 22.714169 119.696611 25.0375 C 118.471808 26.563096 116.891229 27.477289 114.960706 27.768433 C 113.823389 27.500581 112.942698 26.871709 112.330296 25.875996 C 112.330296 25.875996 114.330808 25.456748 115.275656 21.456426 C 116.325487 17.456104 119.801594 13.560594 119.801594 13.560594 C 120.145706 13.205398 120.460655 12.815265 120.746442 12.407663 C 120.746442 12.407663 125.062415 6.305279 125.482347 2.829017 C 124.957432 2.427238 124.642483 1.903178 124.537499 1.251015 C 124.51417 0.942402 124.607488 0.67455 124.817454 0.447457 C 125.021588 0.220365 125.284046 0.103907 125.593163 0.0980841 C 125.908112 0.0980841 126.957943 0.418343 126.957943 1.152026 C 126.952111 1.530514 126.847128 1.879887 126.642994 2.200146 Z M 126.642994 2.200146 " stroke="#144c3d" stroke-width="0.184" stroke-opacity="1" stroke-miterlimit="4"/></svg>