<svg xmlns="http://www.w3.org/2000/svg" xmlns:xlink="http://www.w3.org/1999/xlink" width="40" zoomAndPan="magnify" viewBox="0 0 30 30.000001" height="40" preserveAspectRatio="xMidYMid meet" version="1.0"><defs><clipPath id="0f5985e477"><path d="M 9.621094 9.136719 L 20.507812 9.136719 L 20.507812 20 L 9.621094 20 Z M 9.621094 9.136719 " clip-rule="nonzero"/></clipPath><clipPath id="1423b065b1"><path d="M 1.933594 1.453125 L 28.066406 1.453125 L 28.066406 27.582031 L 1.933594 27.582031 Z M 1.933594 1.453125 " clip-rule="nonzero"/></clipPath></defs><g clip-path="url(#0f5985e477)"><path fill="#ffffff" d="M 20.371094 13.519531 L 17.640625 13.519531 C 17.757812 13.828125 17.824219 14.164062 17.824219 14.511719 C 17.824219 16.074219 16.554688 17.339844 14.996094 17.339844 C 13.4375 17.339844 12.167969 16.074219 12.167969 14.511719 C 12.167969 14.164062 12.234375 13.828125 12.347656 13.519531 L 9.621094 13.519531 L 9.621094 18.257812 C 9.621094 19.15625 10.351562 19.890625 11.253906 19.890625 L 18.738281 19.890625 C 19.640625 19.890625 20.371094 19.15625 20.371094 18.257812 Z M 14.996094 12.242188 C 16.25 12.242188 17.265625 13.261719 17.265625 14.511719 C 17.265625 15.765625 16.25 16.78125 14.996094 16.78125 C 13.742188 16.78125 12.726562 15.765625 12.726562 14.511719 C 12.726562 13.261719 13.742188 12.242188 14.996094 12.242188 Z M 9.621094 12.960938 L 12.632812 12.960938 C 13.140625 12.191406 14.007812 11.6875 14.996094 11.6875 C 15.984375 11.6875 16.851562 12.191406 17.359375 12.960938 L 20.371094 12.960938 L 20.371094 10.769531 C 20.371094 9.867188 19.640625 9.136719 18.738281 9.136719 L 11.253906 9.136719 C 10.351562 9.136719 9.621094 9.867188 9.621094 10.769531 Z M 18.179688 10.691406 C 18.53125 10.691406 18.820312 10.976562 18.820312 11.328125 C 18.820312 11.679688 18.53125 11.964844 18.179688 11.964844 C 17.828125 11.964844 17.542969 11.679688 17.542969 11.328125 C 17.542969 10.976562 17.828125 10.691406 18.179688 10.691406 Z M 18.179688 10.691406 " fill-opacity="1" fill-rule="evenodd"/></g><g clip-path="url(#1423b065b1)"><path fill="#ffffff" d="M 28.0625 12.097656 L 21.429688 12.097656 C 21.710938 12.851562 21.867188 13.664062 21.867188 14.515625 C 21.867188 18.308594 18.789062 21.386719 14.996094 21.386719 C 11.203125 21.386719 8.125 18.308594 8.125 14.515625 C 8.125 13.664062 8.28125 12.851562 8.566406 12.097656 L 1.933594 12.097656 L 1.933594 23.613281 C 1.933594 25.804688 3.707031 27.582031 5.898438 27.582031 L 24.09375 27.582031 C 26.285156 27.582031 28.0625 25.804688 28.0625 23.613281 Z M 14.996094 9 C 18.042969 9 20.511719 11.472656 20.511719 14.515625 C 20.511719 17.5625 18.042969 20.03125 14.996094 20.03125 C 11.953125 20.03125 9.480469 17.5625 9.480469 14.515625 C 9.480469 11.472656 11.953125 9 14.996094 9 Z M 1.933594 10.742188 L 9.253906 10.742188 C 10.484375 8.878906 12.597656 7.644531 14.996094 7.644531 C 17.394531 7.644531 19.507812 8.878906 20.738281 10.742188 L 28.0625 10.742188 L 28.0625 5.417969 C 28.0625 3.226562 26.285156 1.453125 24.09375 1.453125 L 5.898438 1.453125 C 3.707031 1.453125 1.933594 3.226562 1.933594 5.417969 Z M 22.738281 5.226562 C 23.59375 5.226562 24.289062 5.917969 24.289062 6.773438 C 24.289062 7.628906 23.59375 8.324219 22.738281 8.324219 C 21.882812 8.324219 21.191406 7.628906 21.191406 6.773438 C 21.191406 5.917969 21.882812 5.226562 22.738281 5.226562 Z M 22.738281 5.226562 " fill-opacity="1" fill-rule="evenodd"/></g></svg>